<?plantuml 1.2026.1?><svg xmlns="http://www.w3.org/2000/svg" xmlns:xlink="http://www.w3.org/1999/xlink" contentStyleType="text/css" data-diagram-type="DESCRIPTION" height="469px" preserveAspectRatio="none" style="width:1579px;height:469px;" version="1.1" viewBox="0 0 1579 469" width="1579px" zoomAndPan="magnify"><title>Bowtie Risk Diagram - Confidential Compute Impact</title><defs/><g><g class="title" data-source-line="13"><text fill="#000000" font-family="sans-serif" font-size="14" font-weight="bold" lengthAdjust="spacing" textLength="410.1973" x="577.4014" y="22.9951">Bowtie Risk Diagram - Confidential Compute Impact</text></g><!--cluster Threats--><g class="cluster" data-qualified-name="Threats" data-source-line="18" id="ent0002"><path d="M942.5,225.2969 L942.5,225.8574 L952.7314,224.192 L962.9629,225.8123 L973.1943,226.3627 L983.4258,223.3945 L993.6572,225.0896 L1003.8887,225.2969 L1006.3887,227.7969 L1006.0313,227.6705 L1007.4673,231.6426 L1009.1316,235.6954 L1010.0093,239.4701 L1012.4526,243.7984 L1013.3887,247.5938 L1013.3887,245.913 L1022.8998,247.0664 L1032.4109,248.7456 L1041.9221,247.365 L1051.4332,247.7757 L1060.9443,247.5086 L1070.4555,248.0698 L1079.9666,248.2314 L1089.4777,249.1556 L1098.9889,249.3832 L1108.5,247.5938 L1111,250.0938 L1112.8114,250.0938 L1111.679,260.1789 L1112.2362,270.2641 L1112.8726,280.3492 L1109.0768,290.4344 L1112.8094,300.5195 L1110.2093,310.6047 L1112.4235,320.6898 L1109.6799,330.775 L1110.8173,340.8602 L1112.9776,350.9453 L1110.87,361.0305 L1111.2808,371.1156 L1111.903,381.2008 L1112.11,391.2859 L1110.9896,401.3711 L1111.7659,411.4563 L1109.4736,421.5414 L1111.7584,431.6266 L1112.4619,441.7117 L1111,451.7969 L1108.5,454.2969 L1108.5,455.4823 L1098.7353,455.9316 L1088.9706,453.0087 L1079.2059,452.5577 L1069.4412,452.6398 L1059.6765,454.1399 L1049.9118,453.7728 L1040.1471,456.114 L1030.3824,453.8311 L1020.6176,453.3821 L1010.8529,454.9056 L1001.0882,452.5186 L991.3235,452.9125 L981.5588,456.0274 L971.7941,455.4587 L962.0294,456.2555 L952.2647,453.4388 L942.5,454.2969 L940,451.7969 L940.8512,451.7969 L941.5745,441.6151 L938.7403,431.4332 L939.7444,421.2514 L940.336,411.0696 L941.738,400.8878 L939.9888,390.706 L941.2335,380.5241 L938.5232,370.3423 L938.194,360.1605 L941.343,349.9787 L938.0882,339.7969 L941.3572,329.6151 L940.551,319.4332 L939.2856,309.2514 L939.0566,299.0696 L941.2234,288.8878 L939.2018,278.706 L941.5783,268.5241 L938.526,258.3423 L941.6465,248.1605 L941.2915,237.9787 L940,227.7969 L942.5,225.2969" fill="#FFDDDD" style="stroke:#000000;stroke-width:1.5;"/><path d="M940,247.5938 L940,247.874 L950.4841,247.0413 L960.9682,247.8515 L971.4523,248.1267 L981.9364,246.6426 L992.4205,247.4901 L1002.9046,247.0251 L1013.3887,247.5938" fill="#FFDDDD" style="stroke:#000000;stroke-width:1.5;"/><text fill="#000000" font-family="sans-serif" font-size="14" font-weight="bold" lengthAdjust="spacing" textLength="60.3887" x="944" y="240.292">Threats</text></g><!--cluster Risk Event--><g class="cluster" data-qualified-name="Risk Event" data-source-line="24" id="ent0006"><path d="M1211.5,296.2969 L1211.5,296.8574 L1221.9926,295.192 L1232.4851,296.8123 L1242.9777,297.3627 L1253.4702,294.3945 L1263.9628,296.0896 L1274.4553,295.1596 L1284.9479,295.2742 L1295.4404,296.2969 L1297.9404,298.7969 L1297.8833,298.7767 L1298.761,302.5514 L1301.2044,306.8797 L1301.6122,310.4882 L1303.3747,314.5758 L1304.9404,318.5938 L1304.9404,319.7456 L1315.0581,318.365 L1325.1758,318.7757 L1335.2935,318.5086 L1345.4111,319.0698 L1355.5288,319.2314 L1365.6465,320.1556 L1375.7642,320.3832 L1385.8818,320.4051 L1395.9995,319.2728 L1406.1172,319.83 L1416.2349,320.4664 L1426.3525,316.6706 L1436.4702,320.4031 L1446.5879,317.8031 L1456.7056,320.0172 L1466.8232,317.2737 L1476.9409,318.4111 L1487.0586,320.5714 L1497.1763,318.4638 L1507.2939,318.8746 L1517.4116,319.4968 L1527.5293,319.7037 L1537.647,318.5833 L1547.7646,319.3597 L1557.8823,317.0673 L1568,318.5938 L1570.5,321.0938 L1571.2584,321.0938 L1571.9619,331.0011 L1571.6854,340.9085 L1572.1347,350.8158 L1569.2118,360.7232 L1568.7608,370.6306 L1568.8429,380.5379 L1570.343,390.4453 L1569.9759,400.3527 L1572.3171,410.26 L1570.0342,420.1674 L1569.5852,430.0748 L1571.1087,439.9821 L1568.7218,449.8895 L1570.5,459.7969 L1568,462.2969 L1568,460.9125 L1558.0972,464.0274 L1548.1944,463.4587 L1538.2917,464.2555 L1528.3889,461.4388 L1518.4861,463.1481 L1508.5833,463.8713 L1498.6806,461.0371 L1488.7778,462.0412 L1478.875,462.6328 L1468.9722,464.0349 L1459.0694,462.2857 L1449.1667,463.5304 L1439.2639,460.8201 L1429.3611,460.4909 L1419.4583,463.6398 L1409.5556,460.385 L1399.6528,463.6541 L1389.75,462.8479 L1379.8472,461.5824 L1369.9444,461.3535 L1360.0417,463.5202 L1350.1389,461.4987 L1340.2361,463.8752 L1330.3333,460.8229 L1320.4306,463.9433 L1310.5278,463.5884 L1300.625,462.9501 L1290.7222,462.4228 L1280.8194,464.2345 L1270.9167,463.9331 L1261.0139,462.7482 L1251.1111,463.012 L1241.2083,461.9495 L1231.3056,464.2074 L1221.4028,462.7099 L1211.5,462.2969 L1209,459.7969 L1209.4602,459.7969 L1207.3777,449.7344 L1207.9194,439.6719 L1210.4153,429.6094 L1210.146,419.5469 L1208.8855,409.4844 L1208.1409,399.4219 L1208.4162,389.3594 L1207.1702,379.2969 L1210.106,369.2344 L1210.9722,359.1719 L1210.4037,349.1094 L1210.8532,339.0469 L1208.6354,328.9844 L1209.2326,318.9219 L1207.9664,308.8594 L1209,298.7969 L1211.5,296.2969" fill="#FFD700" style="stroke:#000000;stroke-width:1.5;"/><path d="M1209,318.5938 L1209,318.874 L1218.594,318.0413 L1228.1881,318.8515 L1237.7821,319.1267 L1247.3762,317.6426 L1256.9702,318.4901 L1266.5643,318.0251 L1276.1583,318.0824 L1285.7523,318.5029 L1295.3464,317.6719 L1304.9404,318.5938" fill="#FFD700" style="stroke:#000000;stroke-width:1.5;"/><text fill="#000000" font-family="sans-serif" font-size="14" font-weight="bold" lengthAdjust="spacing" textLength="82.9404" x="1213" y="311.292">Risk Event</text></g><!--cluster Consequences--><g class="cluster" data-qualified-name="Consequences" data-source-line="37" id="ent0014"><path d="M1381.5,43.2969 L1381.5,43.8574 L1391.8877,42.192 L1402.2754,43.8123 L1412.6631,44.3627 L1423.0508,41.3945 L1433.4385,43.0896 L1443.8262,42.1596 L1454.2139,42.2742 L1464.6016,43.1151 L1474.9893,41.4532 L1485.377,44.7733 L1495.7646,43.2969 L1498.2646,45.7969 L1497.7364,45.6101 L1499.4989,49.6976 L1501.4266,53.8436 L1502.3928,57.6496 L1503.9218,61.6546 L1505.2646,65.5938 L1505.2646,65.5086 L1515.9705,66.0698 L1526.6764,66.2314 L1537.3823,67.1556 L1548.0882,67.3832 L1558.7941,67.4051 L1569.5,65.5938 L1572,68.0938 L1572.679,68.0938 L1573.2362,78.1789 L1573.8726,88.2641 L1570.0768,98.3492 L1573.8094,108.4344 L1571.2093,118.5195 L1573.4235,128.6047 L1570.6799,138.6898 L1571.8173,148.775 L1573.9776,158.8602 L1571.87,168.9453 L1572.2808,179.0305 L1572.903,189.1156 L1573.11,199.2008 L1571.9896,209.2859 L1572.7659,219.3711 L1570.4736,229.4563 L1572.7584,239.5414 L1573.4619,249.6266 L1573.1854,259.7117 L1572,269.7969 L1569.5,272.2969 L1569.5,273.9316 L1559.6053,271.0087 L1549.7105,270.5577 L1539.8158,270.6398 L1529.9211,272.1399 L1520.0263,271.7728 L1510.1316,274.114 L1500.2368,271.8311 L1490.3421,271.3821 L1480.4474,272.9056 L1470.5526,270.5186 L1460.6579,270.9125 L1450.7632,274.0274 L1440.8684,273.4587 L1430.9737,274.2555 L1421.0789,271.4388 L1411.1842,273.1481 L1401.2895,273.8713 L1391.3947,271.0371 L1381.5,272.2969 L1379,269.7969 L1378.7444,269.7969 L1379.336,259.6151 L1380.738,249.4332 L1378.9888,239.2514 L1380.2335,229.0696 L1377.5232,218.8878 L1377.194,208.706 L1380.343,198.5241 L1377.0882,188.3423 L1380.3572,178.1605 L1379.551,167.9787 L1378.2856,157.7969 L1378.0566,147.6151 L1380.2234,137.4332 L1378.2018,127.2514 L1380.5783,117.0696 L1377.526,106.8878 L1380.6465,96.706 L1380.2915,86.5241 L1379.6532,76.3423 L1379.1259,66.1605 L1380.9376,55.9787 L1379,45.7969 L1381.5,43.2969" fill="#FFAAAA" style="stroke:#000000;stroke-width:1.5;"/><path d="M1379,65.5938 L1379,65.874 L1388.7127,65.0413 L1398.4253,65.8515 L1408.138,66.1267 L1417.8507,64.6426 L1427.5633,65.4901 L1437.276,65.0251 L1446.9887,65.0824 L1456.7013,65.5029 L1466.414,64.6719 L1476.1267,66.3319 L1485.8393,64.7534 L1495.552,65.3301 L1505.2646,65.5938" fill="#FFAAAA" style="stroke:#000000;stroke-width:1.5;"/><text fill="#000000" font-family="sans-serif" font-size="14" font-weight="bold" lengthAdjust="spacing" textLength="113.2646" x="1383" y="58.292">Consequences</text></g><!--cluster Preventive Controls--><g class="cluster" data-qualified-name="Preventive Controls" data-source-line="43" id="ent0018"><path d="M8.5,269.2969 L8.5,269.8574 L18.34,268.192 L28.1801,269.8123 L38.0201,270.3627 L47.8601,267.3945 L57.7001,269.0896 L67.5402,268.1596 L77.3802,268.2742 L87.2202,269.1151 L97.0602,267.4532 L106.9003,270.7733 L116.7403,267.6161 L126.5803,268.7695 L136.4203,270.4487 L146.2604,269.0681 L156.1004,269.4788 L165.9404,269.2969 L168.4404,271.7969 L168.4137,271.7874 L169.99,275.8092 L171.4408,279.7865 L173.1313,283.8486 L174.6028,287.8332 L175.4404,291.5938 L175.4404,293.4051 L185.264,292.2728 L195.0875,292.83 L204.9111,293.4664 L214.7347,289.6706 L224.5582,293.4031 L234.3818,290.8031 L244.2053,293.0172 L254.0289,290.2737 L263.8524,291.4111 L273.676,293.5714 L283.4995,291.4638 L293.3231,291.8746 L303.1467,292.4968 L312.9702,292.7037 L322.7938,291.5833 L332.6173,292.3597 L342.4409,290.0673 L352.2644,292.3521 L362.088,293.0556 L371.9116,292.7792 L381.7351,293.2285 L391.5587,290.3055 L401.3822,289.8546 L411.2058,289.9367 L421.0293,291.4367 L430.8529,291.0697 L440.6764,293.4108 L450.5,291.5938 L453,294.0938 L452.5342,294.0938 L452.0852,304.1478 L453.6087,314.2019 L451.2218,324.256 L451.6157,334.3101 L454.7305,344.3642 L454.1618,354.4183 L454.9586,364.4724 L452.1419,374.5264 L453.8512,384.5805 L454.5745,394.6346 L451.7403,404.6887 L452.7444,414.7428 L453,424.7969 L450.5,427.2969 L450.5,427.6328 L440.4545,429.0349 L430.4091,427.2857 L420.3636,428.5304 L410.3182,425.8201 L400.2727,425.4909 L390.2273,428.6398 L380.1818,425.385 L370.1364,428.6541 L360.0909,427.8479 L350.0455,426.5824 L340,426.3535 L329.9545,428.5202 L319.9091,426.4987 L309.8636,428.8752 L299.8182,425.8229 L289.7727,428.9433 L279.7273,428.5884 L269.6818,427.9501 L259.6364,427.4228 L249.5909,429.2345 L239.5455,428.9331 L229.5,427.7482 L219.4545,428.012 L209.4091,426.9495 L199.3636,429.2074 L189.3182,427.7099 L179.2727,427.7571 L169.2273,425.6746 L159.1818,426.2163 L149.1364,428.7122 L139.0909,428.4429 L129.0455,427.1824 L119,426.4378 L108.9545,426.7131 L98.9091,425.4671 L88.8636,428.4028 L78.8182,429.269 L68.7727,428.7006 L58.7273,429.15 L48.6818,426.9323 L38.6364,427.5295 L28.5909,426.2633 L18.5455,428.0543 L8.5,427.2969 L6,424.7969 L6.658,424.7969 L7.473,414.5969 L5.3876,404.3969 L5.6416,394.1969 L7.1826,383.9969 L7.5129,373.7969 L4.6332,363.5969 L5.483,353.3969 L6.398,343.1969 L4.3711,332.9969 L6.9424,322.7969 L6.688,312.5969 L5.7313,302.3969 L6.3793,292.1969 L7.9431,281.9969 L6,271.7969 L8.5,269.2969" fill="#DDFFDD" style="stroke:#000000;stroke-width:1.5;"/><path d="M6,291.5938 L6,291.874 L15.9671,291.0413 L25.9342,291.8515 L35.9013,292.1267 L45.8683,290.6426 L55.8354,291.4901 L65.8025,291.0251 L75.7696,291.0824 L85.7367,291.5029 L95.7038,290.6719 L105.6708,292.3319 L115.6379,290.7534 L125.605,291.3301 L135.5721,292.1697 L145.5392,291.4794 L155.5063,291.6847 L165.4733,291.5512 L175.4404,291.5938" fill="#DDFFDD" style="stroke:#000000;stroke-width:1.5;"/><text fill="#000000" font-family="sans-serif" font-size="14" font-weight="bold" lengthAdjust="spacing" textLength="156.4404" x="10" y="284.292">Preventive Controls</text></g><!--cluster Mitigative Controls--><g class="cluster" data-qualified-name="Mitigative Controls" data-source-line="48" id="ent0021"><path d="M728.5,43.2969 L728.5,43.8574 L738.6255,42.192 L748.751,43.8123 L758.8766,44.3627 L769.0021,41.3945 L779.1276,43.0896 L789.2531,42.1596 L799.3786,42.2742 L809.5042,43.1151 L819.6297,41.4532 L829.7552,44.7733 L839.8807,41.6161 L850.0063,42.7695 L860.1318,44.4487 L870.2573,43.0681 L880.3828,43.2969 L882.8828,45.7969 L882.94,45.8171 L884.256,49.7468 L885.8324,53.7685 L887.2832,57.7459 L888.9736,61.8079 L889.8828,65.5938 L889.8828,66.1902 L892.8063,66.1975 L895.7297,65.8201 L898.6531,66.0058 L901.5766,66.218 L904.5,65.5938 L907,68.0938 L905.0768,68.0938 L908.8094,78.1478 L906.2093,88.2019 L908.4235,98.256 L905.6799,108.3101 L906.8173,118.3642 L908.9776,128.4183 L906.87,138.4724 L907.2808,148.5264 L907.903,158.5805 L908.11,168.6346 L906.9896,178.6887 L907.7659,188.7428 L907,198.7969 L904.5,201.2969 L904.5,199.7704 L894.7222,202.0552 L884.9444,202.7587 L875.1667,202.4823 L865.3889,202.9316 L855.6111,200.0087 L845.8333,199.5577 L836.0556,199.6398 L826.2778,201.1399 L816.5,200.7728 L806.7222,203.114 L796.9444,200.8311 L787.1667,200.3821 L777.3889,201.9056 L767.6111,199.5186 L757.8333,199.9125 L748.0556,203.0274 L738.2778,202.4587 L728.5,201.2969 L726,198.7969 L727.9586,198.7969 L725.1419,188.5969 L726.8512,178.3969 L727.5745,168.1969 L724.7403,157.9969 L725.7444,147.7969 L726.336,137.5969 L727.738,127.3969 L725.9888,117.1969 L727.2335,106.9969 L724.5232,96.7969 L724.194,86.5969 L727.343,76.3969 L724.0882,66.1969 L727.3572,55.9969 L726,45.7969 L728.5,43.2969" fill="#DDDDFF" style="stroke:#000000;stroke-width:1.5;"/><path d="M726,65.5938 L726,65.874 L736.2427,65.0413 L746.4854,65.8515 L756.728,66.1267 L766.9707,64.6426 L777.2134,65.4901 L787.4561,65.0251 L797.6987,65.0824 L807.9414,65.5029 L818.1841,64.6719 L828.4268,66.3319 L838.6694,64.7534 L848.9121,65.3301 L859.1548,66.1697 L869.3975,65.4794 L879.6401,65.6847 L889.8828,65.5938" fill="#DDDDFF" style="stroke:#000000;stroke-width:1.5;"/><text fill="#000000" font-family="sans-serif" font-size="14" font-weight="bold" lengthAdjust="spacing" textLength="150.8828" x="730" y="58.292">Mitigative Controls</text></g><!--entity C1--><g class="entity" data-qualified-name="Threats.C1" data-source-line="19" id="ent0003"><polygon fill="#F1F1F1" points="973,331.2969,973,331.5071,983.4619,330.8826,993.9238,331.4902,1004.3857,331.6966,1014.8477,330.5835,1025.3096,331.2192,1035.7715,330.8704,1046.2334,330.9134,1056.6953,331.2287,1067.1572,330.6055,1077.6191,331.2969,1077.6898,331.4674,1077.8923,331.2492,1078.301,331.5289,1078.7349,331.8692,1079.0224,331.8562,1079.3869,332.0291,1079.4079,332.0378,1079.5235,332.3786,1079.7348,332.759,1079.8999,333.1203,1080.1531,333.518,1080.1191,333.7969,1080.3428,333.7969,1080.3456,340.0563,1080.204,346.3156,1080.2737,352.575,1080.3532,358.8344,1080.1191,365.0938,1079.897,365.0018,1080.1816,365.5339,1079.7349,365.763,1079.8442,366.2225,1079.3809,366.4448,1079.3869,366.8615,1079.3782,366.8404,1079.128,367.2363,1078.6736,367.1394,1078.3397,367.3333,1078.0159,367.5516,1077.6191,367.5938,1077.6191,368.01,1067.1572,367.5898,1056.6953,367.881,1046.2334,367.0213,1035.7715,367.8781,1025.3096,368.1419,1014.8477,368.0383,1004.3857,368.2068,993.9238,367.1107,983.4619,366.9416,973,367.5938,972.9207,367.4024,972.6389,367.4292,972.2678,367.2403,972.0263,367.3643,971.5635,366.9542,971.2322,366.8615,971.1266,366.8178,971.1561,366.5371,970.734,366.0693,970.633,365.7346,970.8463,365.5301,970.5,365.0938,970.6452,365.0938,970.7448,358.8344,970.3927,352.575,970.6064,346.3156,970.6968,340.0563,970.5,333.7969,970.3545,333.7366,970.6169,333.4311,970.8317,333.1058,971.1401,332.8194,971.0845,332.3821,971.2322,332.0291,971.2912,332.1716,971.5151,331.7121,971.8529,331.5276,972.3571,331.7449,972.555,331.2225,973,331.2969" style="stroke:#333333;stroke-width:0.5;"/><text fill="#333333" font-family="sans-serif" font-size="14" lengthAdjust="spacing" textLength="89.6191" x="980.5" y="354.292">Human Error</text></g><!--entity C2--><g class="entity" data-qualified-name="Threats.C2" data-source-line="20" id="ent0004"><polygon fill="#F1F1F1" points="958.5,402.2969,958.5,402.5071,968.7898,401.8826,979.0796,402.4902,989.3694,402.6966,999.6593,401.5835,1009.9491,402.2192,1020.2389,401.8704,1030.5287,401.9134,1040.8185,402.2287,1051.1083,401.6055,1061.3981,402.8505,1071.688,401.6666,1081.9778,402.0991,1092.2676,402.2969,1092.3227,402.4299,1092.6102,402.4169,1092.9834,402.6108,1093.3242,402.7264,1093.7046,402.9376,1094.0353,403.0291,1094.109,403.0596,1094.3622,403.4574,1094.5349,403.8218,1094.6839,404.1764,1094.6995,404.4758,1094.7676,404.7969,1094.9221,404.7969,1095.0017,411.0563,1094.5272,417.3156,1094.9937,423.575,1094.6687,429.8344,1094.7676,436.0938,1094.932,436.1618,1094.4687,436.3842,1094.4536,436.7921,1094.5566,437.249,1094.1668,437.5017,1094.0353,437.8615,1094.0488,437.8939,1093.725,438.1122,1093.3813,438.2826,1092.9742,438.2997,1092.6578,438.5358,1092.2676,438.5938,1092.2676,438.0213,1081.9778,438.8781,1071.688,439.1419,1061.3981,439.0383,1051.1083,439.2068,1040.8185,438.1107,1030.5287,437.9416,1020.2389,437.9723,1009.9491,438.5349,999.6593,438.3972,989.3694,439.2752,979.0796,438.4191,968.7898,438.2507,958.5,438.5938,958.5291,438.664,958.0614,438.2419,957.7267,438.141,957.5221,438.3543,957.1414,438.1421,956.7322,437.8615,956.9584,437.9552,956.4867,437.4669,956.5376,437.1951,956.4747,436.8762,956.001,436.387,956,436.0938,955.968,436.0938,956.042,429.8344,956.2173,423.575,955.9986,417.3156,956.1542,411.0563,956,404.7969,955.8295,404.7262,955.9379,404.3569,956.448,404.154,956.2186,403.6448,956.7425,403.4476,956.7322,403.0291,956.7586,403.0927,957.0516,402.8002,957.3942,402.6273,957.8514,402.731,958.1083,402.3511,958.5,402.2969" style="stroke:#333333;stroke-width:0.5;"/><text fill="#333333" font-family="sans-serif" font-size="14" lengthAdjust="spacing" textLength="118.7676" x="966" y="425.292">Technical Failure</text></g><!--entity C3--><g class="entity" data-qualified-name="Threats.C3" data-source-line="21" id="ent0005"><polygon fill="#F1F1F1" points="964,260.2969,964,260.5071,974.2267,259.8826,984.4535,260.4902,994.6802,260.6966,1004.9069,259.5835,1015.1336,260.2192,1025.3604,259.8704,1035.5871,259.9134,1045.8138,260.2287,1056.0405,259.6055,1066.2673,260.8505,1076.494,259.6666,1086.7207,260.2969,1086.6955,260.236,1087.1294,260.5763,1087.4169,260.5634,1087.7901,260.7572,1088.1308,260.8728,1088.4885,261.0291,1088.5434,261.0519,1088.7086,261.4132,1088.9617,261.8109,1089.1345,262.1754,1089.2834,262.53,1089.2207,262.7969,1089.3056,262.7969,1089.3752,269.0563,1089.4548,275.3156,1088.9803,281.575,1089.4469,287.8344,1089.2207,294.0938,1089.1294,294.0559,1089.2386,294.5154,1088.7754,294.7377,1088.7603,295.1457,1088.8633,295.6026,1088.4885,295.8615,1088.4823,295.8465,1088.1483,296.0404,1087.8246,296.2587,1087.4809,296.429,1087.0738,296.4461,1086.7207,296.5938,1086.7207,296.881,1076.494,296.0213,1066.2673,296.8781,1056.0405,297.1419,1045.8138,297.0383,1035.5871,297.2068,1025.3604,296.1107,1015.1336,295.9416,1004.9069,295.9723,994.6802,296.5349,984.4535,296.3972,974.2267,297.2752,964,296.5938,963.9777,296.54,963.6027,296.3417,963.322,296.3712,962.8543,295.9491,962.5196,295.8481,962.2322,295.8615,962.4321,295.9443,962.22,295.5635,962.1655,295.2481,961.6938,294.7598,961.7447,294.488,961.5,294.0938,961.6968,294.0938,961.3425,287.8344,961.468,281.575,961.542,275.3156,961.7173,269.0563,961.5,262.7969,961.4987,262.7963,961.7889,262.5023,961.6223,262.0191,961.7308,261.6498,962.2409,261.4469,962.2322,261.0291,962.1408,260.8083,962.6507,261.0394,962.9657,260.7998,963.2587,260.5073,963.6013,260.3344,964,260.2969" style="stroke:#333333;stroke-width:0.5;"/><text fill="#333333" font-family="sans-serif" font-size="14" lengthAdjust="spacing" textLength="107.7207" x="971.5" y="283.292">External Attack</text></g><!--entity R--><g class="entity" data-qualified-name="Risk Event.R" data-source-line="25" id="ent0007"><polygon fill="#F1F1F1" points="1227.5,331.2969,1227.5,331.5071,1237.7001,330.8826,1247.9002,331.4902,1258.1003,331.6966,1268.3004,330.5835,1278.5005,331.2192,1288.7006,330.8704,1298.9007,330.9134,1309.1008,331.2287,1319.3009,330.6055,1329.501,331.2969,1329.5716,331.4674,1329.7741,331.2492,1330.1829,331.5289,1330.6167,331.8692,1330.9042,331.8562,1331.2687,332.0291,1331.2898,332.0378,1331.4054,332.3786,1331.6166,332.759,1331.7817,333.1203,1332.0349,333.518,1332.001,333.7969,1332.2247,333.7969,1332.2274,340.0563,1332.0859,346.3156,1332.1555,352.575,1332.2351,358.8344,1332.001,365.0938,1331.7789,365.0018,1332.0635,365.5339,1331.6168,365.763,1331.726,366.2225,1331.2627,366.4448,1331.2687,366.8615,1331.26,366.8404,1331.0098,367.2363,1330.5554,367.1394,1330.2215,367.3333,1329.8977,367.5516,1329.501,367.5938,1329.501,368.01,1319.3009,367.5898,1309.1008,367.881,1298.9007,367.0213,1288.7006,367.8781,1278.5005,368.1419,1268.3004,368.0383,1258.1003,368.2068,1247.9002,367.1107,1237.7001,366.9416,1227.5,367.5938,1227.4207,367.4024,1227.1389,367.4292,1226.7678,367.2403,1226.5263,367.3643,1226.0635,366.9542,1225.7322,366.8615,1225.6266,366.8178,1225.6561,366.5371,1225.234,366.0693,1225.133,365.7346,1225.3463,365.5301,1225,365.0938,1225.1452,365.0938,1225.2448,358.8344,1224.8927,352.575,1225.1064,346.3156,1225.1968,340.0563,1225,333.7969,1224.8545,333.7366,1225.1169,333.4311,1225.3317,333.1058,1225.6401,332.8194,1225.5845,332.3821,1225.7322,332.0291,1225.7912,332.1716,1226.0151,331.7121,1226.3529,331.5276,1226.8571,331.7449,1227.055,331.2225,1227.5,331.2969" style="stroke:#333333;stroke-width:0.5;"/><text fill="#333333" font-family="sans-serif" font-size="14" lengthAdjust="spacing" textLength="87.001" x="1235" y="354.292">Data Breach</text></g><g class="entity" data-qualified-name="Risk Event.GMN8" data-source-line="27" id="ent0009"><path d="M1396.5,406.2969 L1396.6868,406.2969 L1396.1317,414.35 L1396.6718,422.4031 L1396.8553,430.4563 L1395.8659,438.5094 L1396.5,446.5625 L1396.5,446.3553 L1406.3656,445.4252 L1416.2311,445.5398 L1426.0967,446.3807 L1435.9623,444.7188 L1445.8279,448.0389 L1455.6934,444.8818 L1465.559,446.0351 L1475.4246,447.7144 L1485.2901,446.3338 L1495.1557,446.7445 L1505.0213,446.4773 L1514.8868,447.0386 L1524.7524,447.2002 L1534.618,448.1243 L1544.4836,448.352 L1554.3491,446.5625 L1554.9529,446.5625 L1554.5755,440.5094 L1554.7612,434.4563 L1554.9733,428.4031 L1553.7081,422.35 L1554.3491,416.2969 L1554.7756,416.7233 L1552.1628,414.1105 L1550.6846,412.6324 L1548.038,409.9857 L1546.3061,408.2538 L1544.3491,406.2969 L1544.3491,408.2745 L1534.4925,406.1669 L1524.6359,406.5777 L1514.7793,407.1999 L1504.9227,407.4068 L1495.0661,406.2865 L1485.2095,407.0628 L1475.3529,404.7704 L1465.4963,407.0552 L1455.6396,407.7587 L1445.783,407.4823 L1435.9264,407.9316 L1426.0698,405.0087 L1416.2132,404.5577 L1406.3566,404.6398 L1396.5,406.2969" fill="#FFFFCC" style="stroke:#333333;stroke-width:0.5;"/><path d="M1544.3491,406.2969 L1544.5359,406.2969 L1543.9808,408.2969 L1544.5209,410.2969 L1544.7044,412.2969 L1543.715,414.2969 L1544.3491,416.2969 L1544.3491,416.2278 L1546.3491,415.9178 L1548.3491,415.956 L1550.3491,416.2363 L1552.3491,415.6823 L1554.3491,416.2969 L1554.6971,416.6449 L1551.953,413.9007 L1550.2248,412.1726 L1548.6206,410.5684 L1546.2952,408.243 L1544.3491,406.2969" fill="#FFFFCC" style="stroke:#333333;stroke-width:1;"/><text fill="#000000" font-family="sans-serif" font-size="13" font-weight="bold" lengthAdjust="spacing" textLength="55.5801" x="1402.5" y="423.3638">Impact:</text><text fill="#000000" font-family="sans-serif" font-size="13" lengthAdjust="spacing" textLength="29.8784" x="1462.2124" y="423.3638">High</text><text fill="#000000" font-family="sans-serif" font-size="13" font-weight="bold" lengthAdjust="spacing" textLength="80.7358" x="1402.5" y="438.4966">Likelihood:</text><text fill="#000000" font-family="sans-serif" font-size="13" lengthAdjust="spacing" textLength="51.981" x="1487.3682" y="438.4966">Medium</text></g><g class="entity" data-qualified-name="Risk Event.GMN11" data-source-line="32" id="ent0012"><path d="M1396.5,331.2969 L1396.6868,331.2969 L1396.1317,334.3369 L1396.6718,337.3769 L1396.8553,340.4169 L1395.8659,343.4569 L1396.5,346.4969 L1396.4893,346.2899 L1385.6928,345.9177 L1374.9504,346.5889 L1364.2456,347.9854 L1353.4113,346.8824 L1342.8347,350.7546 L1332.01,349.8369 L1331.8889,348.1605 L1342.7203,350.0875 L1353.5897,352.5391 L1364.2385,351.9387 L1375.0164,353.125 L1385.7455,353.6352 L1396.5,354.4969 L1396.6587,354.4969 L1396.7126,357.91 L1397.0206,361.3231 L1397.0965,364.7363 L1397.1038,368.1494 L1396.5,371.5625 L1396.5,371.5625 L1396.5,372.2415 L1406.3656,372.7987 L1416.2311,373.4351 L1426.0967,369.6393 L1435.9623,373.3719 L1445.8279,370.7718 L1455.6934,372.986 L1465.559,370.2424 L1475.4246,371.3798 L1485.2901,373.5401 L1495.1557,371.4325 L1505.0213,371.8433 L1514.8868,372.4655 L1524.7524,372.6725 L1534.618,371.5521 L1544.4836,372.3284 L1554.3491,371.5625 L1554.3491,371.5625 L1553.8403,371.5625 L1554.6019,365.5094 L1554.8364,359.4563 L1554.7443,353.4031 L1554.894,347.35 L1554.3491,341.2969 L1554.0455,340.9932 L1551.9392,338.887 L1549.9585,336.9063 L1548.3121,335.2599 L1546.2256,333.1733 L1544.3491,331.2969 L1544.3491,333.114 L1534.4925,330.8311 L1524.6359,330.3821 L1514.7793,331.9056 L1504.9227,329.5186 L1495.0661,329.9125 L1485.2095,333.0274 L1475.3529,332.4587 L1465.4963,333.2555 L1455.6396,330.4388 L1445.783,332.1481 L1435.9264,332.8713 L1426.0698,330.0371 L1416.2132,331.0412 L1406.3566,331.6328 L1396.5,331.2969 L1396.5,331.2969" fill="#FFFFCC" style="stroke:#333333;stroke-width:0.5;"/><path d="M1544.3491,331.2969 L1544.5359,331.2969 L1543.9808,333.2969 L1544.5209,335.2969 L1544.7044,337.2969 L1543.715,339.2969 L1544.3491,341.2969 L1544.3491,341.2278 L1546.3491,340.9178 L1548.3491,340.956 L1550.3491,341.2363 L1552.3491,340.6823 L1554.3491,341.2969 L1554.6971,341.6449 L1551.953,338.9007 L1550.2248,337.1726 L1548.6206,335.5684 L1546.2952,333.243 L1544.3491,331.2969" fill="#FFFFCC" style="stroke:#333333;stroke-width:0.5;"/><text fill="#000000" font-family="sans-serif" font-size="13" font-weight="bold" lengthAdjust="spacing" textLength="55.5801" x="1402.5" y="348.3638">Impact:</text><text fill="#000000" font-family="sans-serif" font-size="13" lengthAdjust="spacing" textLength="29.8784" x="1462.2124" y="348.3638">High</text><text fill="#000000" font-family="sans-serif" font-size="13" font-weight="bold" lengthAdjust="spacing" textLength="80.7358" x="1402.5" y="363.4966">Likelihood:</text><text fill="#000000" font-family="sans-serif" font-size="13" lengthAdjust="spacing" textLength="51.981" x="1487.3682" y="363.4966">Medium</text></g><!--entity Co1--><g class="entity" data-qualified-name="Consequences.Co1" data-source-line="38" id="ent0015"><polygon fill="#F1F1F1" points="1419,149.2969,1419,149.5071,1429.2479,148.8826,1439.4957,149.4902,1449.7436,149.6966,1459.9915,148.5835,1470.2393,149.2192,1480.4872,148.8704,1490.7351,148.9134,1500.983,149.2287,1511.2308,148.6055,1521.4787,149.8505,1531.7266,149.2969,1531.6462,149.1028,1532.0549,149.3824,1532.4888,149.7228,1532.7763,149.7098,1533.1495,149.9037,1533.4943,150.0291,1533.4845,150.025,1533.6958,150.4054,1533.8609,150.7667,1534.114,151.1645,1534.2868,151.5289,1534.2266,151.7969,1534.453,151.7969,1534.3114,158.0563,1534.3811,164.3156,1534.4606,170.575,1533.9862,176.8344,1534.2266,183.0938,1534.4355,183.1803,1533.9888,183.4095,1534.0981,183.869,1533.6348,184.0913,1533.6197,184.4992,1533.4943,184.8615,1533.5889,185.0899,1533.1346,184.993,1532.8007,185.1868,1532.4769,185.4051,1532.1332,185.5755,1531.7266,185.5938,1531.7266,185.5898,1521.4787,185.881,1511.2308,185.0213,1500.983,185.8781,1490.7351,186.1419,1480.4872,186.0383,1470.2393,186.2068,1459.9915,185.1107,1449.7436,184.9416,1439.4957,184.9723,1429.2479,185.5349,1419,185.5938,1418.9749,185.5332,1418.7334,185.6572,1418.2706,185.2471,1417.8956,185.0488,1417.6149,185.0783,1417.2322,184.8615,1417.0269,184.7765,1416.9259,184.4417,1417.1392,184.2372,1416.9271,183.8564,1416.8726,183.541,1416.5,183.0938,1416.3927,183.0938,1416.6064,176.8344,1416.6968,170.575,1416.3425,164.3156,1416.468,158.0563,1416.5,151.7969,1416.5388,151.8129,1416.8472,151.5265,1416.7916,151.0892,1417.0818,150.7952,1416.9152,150.312,1417.2322,150.0291,1417.1458,149.8205,1417.65,150.0378,1417.8479,149.5154,1418.3578,149.7465,1418.6728,149.507,1419,149.2969" style="stroke:#333333;stroke-width:0.5;"/><text fill="#333333" font-family="sans-serif" font-size="14" lengthAdjust="spacing" textLength="97.7266" x="1426.5" y="172.292">Financial Loss</text></g><!--entity Co2--><g class="entity" data-qualified-name="Consequences.Co2" data-source-line="39" id="ent0016"><polygon fill="#F1F1F1" points="1397.5,220.2969,1397.5,220.5071,1407.2195,219.8826,1416.9391,220.4902,1426.6586,220.6966,1436.3782,219.5835,1446.0977,220.2192,1455.8173,219.8704,1465.5368,219.9134,1475.2563,220.2287,1484.9759,219.6055,1494.6954,220.8505,1504.415,219.6666,1514.1345,220.0991,1523.8541,220.7288,1533.5736,220.2111,1543.2932,220.3651,1553.0127,220.2969,1553.0086,220.287,1553.389,220.4983,1553.7503,220.6634,1554.1481,220.9166,1554.5125,221.0893,1554.7805,221.0291,1554.9896,221.1158,1555.0053,221.4151,1555.2161,221.7954,1555.4361,222.1793,1555.1442,222.3513,1555.5127,222.7969,1555.7389,222.7969,1555.4139,229.0563,1555.6906,235.3156,1555.3477,241.575,1555.4899,247.8344,1555.5127,254.0938,1555.7411,254.1884,1555.3512,254.4411,1555.2522,254.8143,1555.1776,255.1976,1555.0551,255.5611,1554.7805,255.8615,1554.78,255.8603,1554.4635,256.0964,1554.0003,255.9781,1553.7561,256.3884,1553.4362,256.6161,1553.0127,256.5938,1553.0127,257.0383,1543.2932,257.2068,1533.5736,256.1107,1523.8541,255.9416,1514.1345,255.9723,1504.415,256.5349,1494.6954,256.3972,1484.9759,257.2752,1475.2563,256.4191,1465.5368,256.2507,1455.8173,256.822,1446.0977,255.9269,1436.3782,256.0746,1426.6586,257.2427,1416.9391,257.0294,1407.2195,257.3282,1397.5,256.5938,1397.459,256.4947,1397.1872,256.5456,1396.8682,256.4827,1396.3791,256.0089,1396.0736,255.9784,1395.7322,255.8615,1395.771,255.8776,1395.7865,255.5911,1395.438,255.1539,1395.4353,254.8599,1394.9759,254.3767,1395,254.0938,1394.7742,254.0938,1395.1679,247.8344,1394.761,241.575,1395.1697,235.3156,1395.0689,229.0563,1395,222.7969,1394.9175,222.7627,1395.0375,222.3982,1395.4342,222.1483,1395.3472,221.698,1395.7681,221.4582,1395.7322,221.0291,1395.6617,220.8589,1396.1645,221.0728,1396.5011,220.8854,1396.8241,220.6652,1397.1525,220.4579,1397.5,220.2969" style="stroke:#333333;stroke-width:0.5;"/><text fill="#333333" font-family="sans-serif" font-size="14" lengthAdjust="spacing" textLength="140.5127" x="1405" y="243.292">Reputation Damage</text></g><!--entity Co3--><g class="entity" data-qualified-name="Consequences.Co3" data-source-line="40" id="ent0017"><polygon fill="#F1F1F1" points="1415,78.2969,1415,78.5071,1425.0752,77.8826,1435.1504,78.4902,1445.2256,78.6966,1455.3008,77.5835,1465.376,78.2192,1475.4512,77.8704,1485.5264,77.9134,1495.6016,78.2287,1505.6768,77.6055,1515.752,78.8505,1525.8271,77.6666,1535.9023,78.2969,1535.8771,78.236,1536.311,78.5763,1536.5985,78.5634,1536.9717,78.7572,1537.3125,78.8728,1537.6701,79.0291,1537.7251,79.0519,1537.8902,79.4132,1538.1434,79.8109,1538.3161,80.1754,1538.4651,80.53,1538.4023,80.7969,1538.4872,80.7969,1538.5569,87.0563,1538.6364,93.3156,1538.1619,99.575,1538.6285,105.8344,1538.4023,112.0938,1538.311,112.0559,1538.4203,112.5154,1537.957,112.7377,1537.9419,113.1457,1538.0449,113.6026,1537.6701,113.8615,1537.6639,113.8465,1537.33,114.0404,1537.0062,114.2587,1536.6625,114.429,1536.2554,114.4461,1535.9023,114.5938,1535.9023,114.881,1525.8271,114.0213,1515.752,114.8781,1505.6768,115.1419,1495.6016,115.0383,1485.5264,115.2068,1475.4512,114.1107,1465.376,113.9416,1455.3008,113.9723,1445.2256,114.5349,1435.1504,114.3972,1425.0752,115.2752,1415,114.5938,1414.9777,114.54,1414.6027,114.3417,1414.322,114.3712,1413.8543,113.9491,1413.5196,113.8481,1413.2322,113.8615,1413.4321,113.9443,1413.22,113.5635,1413.1655,113.2481,1412.6938,112.7598,1412.7447,112.488,1412.5,112.0938,1412.6968,112.0938,1412.3425,105.8344,1412.468,99.575,1412.542,93.3156,1412.7173,87.0563,1412.5,80.7969,1412.4987,80.7963,1412.7889,80.5023,1412.6223,80.0191,1412.7308,79.6498,1413.2409,79.4469,1413.2322,79.0291,1413.1408,78.8083,1413.6507,79.0394,1413.9657,78.7998,1414.2587,78.5073,1414.6013,78.3344,1415,78.2969" style="stroke:#333333;stroke-width:0.5;"/><text fill="#333333" font-family="sans-serif" font-size="14" lengthAdjust="spacing" textLength="105.9023" x="1422.5" y="101.292">Legal Penalties</text></g><!--entity P2--><g class="entity" data-qualified-name="Preventive Controls.P2" data-source-line="44" id="ent0019"><polygon fill="#F1F1F1" points="24.5,375.2969,24.5,375.5071,34.494,374.8826,44.488,375.4902,54.4821,375.6966,64.4761,374.5835,74.4701,375.2192,84.4641,374.8704,94.4582,374.9134,104.4522,375.2287,114.4462,374.6055,124.4402,375.8505,134.4342,374.6666,144.4283,375.0991,154.4223,375.7288,164.4163,375.2111,174.4103,375.3651,184.4043,375.2649,194.3984,375.4754,204.3924,375.536,214.3864,375.8826,224.3804,375.9679,234.3745,375.9761,244.3685,375.5515,254.3625,375.7605,264.3565,375.9991,274.3505,374.5757,284.3446,375.9754,294.3386,375.0004,304.3326,375.8307,314.3266,374.8019,324.3206,375.2284,334.3147,376.0385,344.3087,375.2481,354.3027,375.4022,364.2967,375.6355,374.2908,375.7131,384.2848,375.293,394.2788,375.5841,404.2728,374.7245,414.2668,375.5813,424.2609,375.8451,434.2549,375.2969,434.3116,375.4338,434.6866,375.6321,434.9004,375.441,435.2323,375.5354,435.5898,375.6913,436.0226,376.0291,436.0045,376.0216,436.1086,376.3576,436.5254,376.8231,436.4082,377.0675,436.5028,377.3996,436.7549,377.7969,436.831,377.7969,436.5326,384.0563,436.5818,390.3156,436.9712,396.575,436.9001,402.8344,436.7549,409.0938,436.9811,409.1874,436.5093,409.4063,436.5603,409.8416,436.4974,410.2297,436.0236,410.4477,436.0226,410.8615,436.0104,410.832,435.6852,411.0468,435.3987,411.3551,434.9615,411.2996,434.6674,411.5898,434.2549,411.5938,434.2549,411.04,424.2609,410.9165,414.2668,412.0974,404.2728,410.8768,394.2788,412.1027,384.2848,411.8004,374.2908,411.3258,364.2967,411.24,354.3027,412.0525,344.3087,411.2944,334.3147,412.1856,324.3206,411.041,314.3266,412.2112,304.3326,412.0781,294.3386,411.8387,284.3446,411.641,274.3505,412.3204,264.3565,412.2073,254.3625,411.763,244.3685,411.8619,234.3745,411.4635,224.3804,412.3102,214.3864,411.7486,204.3924,411.7663,194.3984,410.9854,184.4043,411.1885,174.4103,412.1245,164.4163,412.0235,154.4223,411.5508,144.4283,411.2716,134.4342,411.3748,124.4402,410.9076,114.4462,412.0085,104.4522,412.3333,94.4582,412.1201,84.4641,412.2887,74.4701,411.457,64.4761,411.681,54.4821,411.2062,44.488,411.8778,34.494,411.8405,24.5,411.5938,24.5705,411.7639,24.1172,411.3766,23.7757,411.2595,23.4959,411.291,23.1582,411.1827,22.7322,410.8615,22.5744,410.7961,22.5261,410.4832,22.4853,410.1735,22.1048,409.7229,22.2553,409.4924,22,409.0938,22.086,409.0938,21.9664,402.8344,22.0474,396.575,22.2429,390.3156,21.8957,384.0563,22,377.7969,22.097,377.8371,22.2344,377.4798,22.3285,377.1045,22.4827,376.7542,22.6207,376.3971,22.7322,376.0291,22.6526,375.8369,23.0347,375.7592,23.3805,375.5941,23.801,375.6094,24.1577,375.4705,24.5,375.2969" style="stroke:#333333;stroke-width:0.5;"/><text fill="#333333" font-family="sans-serif" font-size="14" lengthAdjust="spacing" textLength="394.7549" x="32" y="398.292">System Monitoring (Enhanced by Confidential Compute)</text></g><!--entity CC--><g class="entity" data-qualified-name="Preventive Controls.CC" data-source-line="45" id="ent0020"><polygon fill="#F1F1F1" points="145.5,304.2969,145.5,304.5071,155.3555,303.8826,165.2111,304.4902,175.0666,304.6966,184.9221,303.5835,194.7776,304.2192,204.6332,303.8704,214.4887,303.9134,224.3442,304.2287,234.1997,303.6055,244.0553,304.8505,253.9108,303.6666,263.7663,304.0991,273.6218,304.7288,283.4774,304.2111,293.3329,304.3651,303.1884,304.2649,313.0439,304.2969,313.0667,304.3519,313.428,304.517,313.8258,304.7701,314.1902,304.9429,314.5448,305.0918,314.8117,305.0291,314.8901,305.0616,315.1009,305.4418,315.3209,305.8258,315.029,305.9978,315.6065,306.5299,315.5439,306.7969,315.4451,306.7969,315.7219,313.0563,315.3789,319.3156,315.5211,325.575,315.7911,331.8344,315.5439,338.0938,315.5289,338.0875,315.4299,338.4607,315.3553,338.8441,315.2328,339.2075,314.957,339.5075,314.8117,339.8615,314.8483,339.95,314.3851,339.8317,314.1409,340.242,313.821,340.4697,313.4542,340.5842,313.0439,340.5938,313.0439,341.2068,303.1884,340.1107,293.3329,339.9416,283.4774,339.9723,273.6218,340.5349,263.7663,340.3972,253.9108,341.2752,244.0553,340.4191,234.1997,340.2507,224.3442,340.822,214.4887,339.9269,204.6332,340.0746,194.7776,341.2427,184.9221,341.0294,175.0666,341.3282,165.2111,340.272,155.3555,340.9129,145.5,340.5938,145.5753,340.7756,145.0862,340.3018,144.7807,340.2713,144.4554,340.1932,144.1689,340.2087,143.7322,339.8615,143.7309,339.861,143.7282,339.567,143.2688,339.0838,143.0843,338.7145,143.3015,338.5115,143,338.0938,142.761,338.0938,143.1697,331.8344,143.0689,325.575,142.9107,319.3156,142.8821,313.0563,143,306.7969,143.1413,306.8554,143.0543,306.4051,143.4752,306.1653,143.2691,305.6657,143.7759,305.4614,143.7322,305.0291,143.794,305.1783,144.117,304.9581,144.4454,304.7508,144.8856,304.8135,145.2247,304.6323,145.5,304.2969" style="stroke:#333333;stroke-width:0.5;"/><text fill="#333333" font-family="sans-serif" font-size="14" lengthAdjust="spacing" textLength="152.5439" x="153" y="327.292">Confidential Compute</text></g><!--entity M1--><g class="entity" data-qualified-name="Mitigative Controls.M1" data-source-line="49" id="ent0022"><polygon fill="#F1F1F1" points="744.5,149.2969,744.5,149.5071,754.7692,148.8826,765.0384,149.4902,775.3075,149.6966,785.5767,148.5835,795.8459,149.2192,806.1151,148.8704,816.3843,148.9134,826.6535,149.2287,836.9226,148.6055,847.1918,149.8505,857.461,148.6666,867.7302,149.0991,877.9994,149.7288,888.2686,149.2969,888.2576,149.2705,888.6308,149.4643,888.9716,149.5799,889.352,149.7912,889.7133,149.9563,890.0363,150.0291,890.2167,150.1038,890.3894,150.4683,890.5384,150.8229,890.5541,151.1222,890.7649,151.5025,890.7686,151.7969,891.0026,151.7969,890.5282,158.0563,890.9947,164.3156,890.6697,170.575,890.9465,176.8344,890.7686,183.0938,890.6161,183.0306,890.601,183.4386,890.704,183.8955,890.3142,184.1482,890.2152,184.5214,890.0363,184.8615,890.0795,184.9658,889.7359,185.1361,889.3287,185.1532,889.0123,185.3893,888.5491,185.271,888.2686,185.5938,888.2686,185.8781,877.9994,186.1419,867.7302,186.0383,857.461,186.2068,847.1918,185.1107,836.9226,184.9416,826.6535,184.9723,816.3843,185.5349,806.1151,185.3972,795.8459,186.2752,785.5767,185.4191,775.3075,185.2507,765.0384,185.822,754.7692,184.9269,744.5,185.5938,744.4338,185.4339,744.2292,185.6472,743.8485,185.435,743.533,185.3806,743.0447,184.9089,742.7322,184.8615,742.8305,184.9022,742.7676,184.5833,742.2939,184.0941,742.2634,183.7886,742.1852,183.4634,742,183.0938,742.2173,183.0938,741.9986,176.8344,742.1542,170.575,741.8154,164.3156,741.7742,158.0563,742,151.7969,742.1551,151.8611,741.9257,151.3519,742.4496,151.1547,742.503,150.7626,742.5033,150.3485,742.7322,150.0291,742.6871,149.9202,743.1443,150.0239,743.4012,149.644,743.8684,149.772,744.0759,149.2731,744.5,149.2969" style="stroke:#333333;stroke-width:0.5;"/><text fill="#333333" font-family="sans-serif" font-size="14" lengthAdjust="spacing" textLength="128.7686" x="752" y="172.292">Incident Response</text></g><!--entity M2--><g class="entity" data-qualified-name="Mitigative Controls.M2" data-source-line="50" id="ent0023"><polygon fill="#F1F1F1" points="752,78.2969,752,78.5071,761.958,77.8826,771.916,78.4902,781.874,78.6966,791.832,77.5835,801.79,78.2192,811.748,77.8704,821.7061,77.9134,831.6641,78.2287,841.6221,77.6055,851.5801,78.8505,861.5381,77.6666,871.4961,78.0991,881.4541,78.2969,881.5092,78.4299,881.7967,78.4169,882.1699,78.6108,882.5107,78.7264,882.8911,78.9376,883.2219,79.0291,883.2955,79.0596,883.5487,79.4574,883.7214,79.8218,883.8704,80.1764,883.8861,80.4758,883.9541,80.7969,884.1086,80.7969,884.1882,87.0563,883.7137,93.3156,884.1803,99.575,883.8553,105.8344,883.9541,112.0938,884.1185,112.1618,883.6552,112.3842,883.6401,112.7921,883.7431,113.249,883.3533,113.5017,883.2219,113.8615,883.2353,113.8939,882.9115,114.1122,882.5679,114.2826,882.1607,114.2997,881.8443,114.5358,881.4541,114.5938,881.4541,114.0213,871.4961,114.8781,861.5381,115.1419,851.5801,115.0383,841.6221,115.2068,831.6641,114.1107,821.7061,113.9416,811.748,113.9723,801.79,114.5349,791.832,114.3972,781.874,115.2752,771.916,114.4191,761.958,114.2507,752,114.5938,752.0291,114.664,751.5614,114.2419,751.2267,114.141,751.0221,114.3543,750.6414,114.1421,750.2322,113.8615,750.4584,113.9552,749.9867,113.4669,750.0376,113.1951,749.9747,112.8762,749.501,112.387,749.5,112.0938,749.468,112.0938,749.542,105.8344,749.7173,99.575,749.4986,93.3156,749.6542,87.0563,749.5,80.7969,749.3295,80.7262,749.4379,80.3569,749.948,80.154,749.7186,79.6448,750.2425,79.4476,750.2322,79.0291,750.2586,79.0927,750.5516,78.8002,750.8942,78.6273,751.3514,78.731,751.6083,78.3511,752,78.2969" style="stroke:#333333;stroke-width:0.5;"/><text fill="#333333" font-family="sans-serif" font-size="14" lengthAdjust="spacing" textLength="114.4541" x="759.5" y="101.292">Cyber Insurance</text></g><!--link R to GMN8--><g class="link" data-entity-1="ent0007" data-entity-2="ent0009" data-link-type="association" data-source-line="27" id="lnk10"><path d="M1320.76,367.4169 L1320.7965,367.5029 L1325.6469,369.3488 L1330.711,371.699 L1335.7056,373.8849 L1340.4713,375.5309 L1345.5538,377.9244 L1345.5407,377.8924 L1350.5714,379.8233 L1355.6679,381.9155 L1360.8101,384.1198 L1365.7948,385.9378 L1371,388.2969 L1371.0888,388.5264 L1375.6047,389.8559 L1380.3798,391.8554 L1385.1865,393.9367 L1389.8092,395.5423 L1394.5288,397.3981 L1394.5393,397.4265 L1399.252,399.1466 L1404.013,400.996 L1408.7506,402.783 L1413.5326,404.689 L1418.17,406.2069" fill="none" style="stroke:#181818;stroke-width:1;stroke-dasharray:7,7;"/></g><!--link C1 to R--><g class="link" data-entity-1="ent0003" data-entity-2="ent0007" data-link-type="dependency" data-source-line="54" id="lnk24"><path d="M1080.65,349.2969 L1080.65,349.5771 L1090.5129,348.7444 L1100.3757,349.5546 L1110.2386,349.8298 L1120.1014,348.3457 L1129.9643,349.1933 L1139.8271,348.7282 L1149.69,348.7855 L1159.5529,349.206 L1169.4157,348.375 L1179.2786,350.0351 L1189.1414,348.4565 L1199.0043,349.0332 L1208.8671,349.8728 L1218.73,349.2969" fill="none" style="stroke:#FF0000;stroke-width:1;"/><polygon fill="#FF0000" points="1224.73,349.2969,1224.7585,349.3609,1222.8739,348.3707,1221.1562,347.7558,1219.3841,347.0186,1217.4334,345.8796,1215.73,345.2969,1215.7117,345.2786,1216.4295,345.9963,1217.2396,346.8065,1218.1139,347.6808,1218.767,348.3339,1219.73,349.2969,1219.8605,349.4274,1218.7814,349.9483,1218.0834,350.8503,1217.4318,351.7987,1216.5098,352.4767,1215.73,353.2969,1215.7392,353.3177,1217.5257,352.4871,1219.3542,351.7513,1221.1624,350.9697,1223.0093,350.2753,1224.73,349.2969" style="stroke:#FF0000;stroke-width:1;"/></g><!--link C2 to R--><g class="link" data-entity-1="ent0004" data-entity-2="ent0007" data-link-type="dependency" data-source-line="55" id="lnk25"><path d="M1090.16,402.2869 L1090.2363,402.5565 L1099.9309,398.9494 L1110.0727,396.923 L1120.0688,394.3818 L1129.5862,390.1478 L1139.7381,388.1575 L1149.5328,384.904 L1159.4697,382.1533 L1169.5054,379.7519 L1179.2005,376.1464 L1189.5735,374.9378 L1199.0652,370.6129 L1209.1434,368.3619 L1219.1364,365.8097" fill="none" style="stroke:#FF0000;stroke-width:1;"/><polygon fill="#FF0000" points="1224.91,364.1769,1224.92,364.2462,1222.9406,363.7602,1221.0196,363.6807,1219.0796,363.4688,1217.0771,362.8216,1215.1611,362.777,1215.1485,362.7544,1216.0793,363.205,1217.0738,363.7696,1218.1126,364.4135,1218.9987,364.7843,1220.0987,365.5375,1220.2598,365.6276,1219.3632,366.4225,1218.9369,367.4804,1218.5681,368.5703,1217.8653,369.4736,1217.3382,370.4751,1217.3527,370.4926,1218.8457,369.2073,1220.405,368.0016,1221.9322,366.7574,1223.5205,365.5866,1224.91,364.1769" style="stroke:#FF0000;stroke-width:1;"/></g><!--link C3 to R--><g class="link" data-entity-1="ent0005" data-entity-2="ent0007" data-link-type="dependency" data-source-line="56" id="lnk26"><path d="M1089.89,294.8769 L1089.9631,295.1474 L1099.8462,297.0716 L1110.1577,300.5817 L1120.3297,303.5753 L1130.043,304.8706 L1140.3913,308.5169 L1140.382,308.4836 L1145.6514,309.8075 L1150.9674,311.2993 L1156.3157,312.9076 L1161.5525,314.114 L1166.9455,315.8834 L1167.0128,316.1201 L1172.0797,317.0967 L1177.3432,318.7643 L1182.6307,320.5161 L1187.7787,321.7775 L1193,323.2969 L1193.0086,323.326 L1198.2181,324.8313 L1203.4669,326.4691 L1208.6967,328.043 L1213.9626,329.7388 L1219.1107,331.0373" fill="none" style="stroke:#FF0000;stroke-width:1;"/><polygon fill="#FF0000" points="1224.85,332.7869,1224.8959,332.8398,1223.271,331.3924,1221.9152,330.2554,1220.4718,329.0172,1218.7403,327.4468,1217.4075,326.3363,1217.3846,326.3242,1217.814,327.268,1218.3586,328.2733,1218.9833,329.3212,1219.3319,330.222,1220.0673,331.3289,1220.1541,331.4918,1218.97,331.6754,1218.0393,332.3346,1217.1395,333.0518,1216.0598,333.4315,1215.0747,333.9887,1215.0775,334.0113,1217.0285,333.7378,1218.9921,333.567,1220.9496,333.3467,1222.9188,333.221,1224.85,332.7869" style="stroke:#FF0000;stroke-width:1;"/></g><!--link R to Co1--><g class="link" data-entity-1="ent0007" data-entity-2="ent0015" data-link-type="dependency" data-source-line="58" id="lnk27"><path d="M1297.38,331.1069 L1297.449,331.1699 L1298.7737,329.3079 L1300.5028,327.8153 L1302.1002,326.2024 L1303.2646,324.194 L1305.0284,322.733 L1305.0024,322.7103 L1306.5599,320.6902 L1308.2487,318.7845 L1310.0286,316.9584 L1311.4943,314.858 L1313.4002,313.1419 L1313.5897,313.2988 L1314.9469,310.8346 L1316.8575,308.8286 L1318.8356,306.8785 L1320.4209,304.6031 L1322.2128,302.4988 L1322.2367,302.5175 L1323.9958,300.1842 L1325.8638,297.9358 L1327.6792,295.6464 L1329.595,293.4351 L1331.1838,290.9694 L1331.4255,291.144 L1333.1978,288.696 L1334.8142,286.1355 L1336.6588,283.7398 L1338.5142,281.3518 L1340.0305,278.719 L1339.7629,278.5426 L1341.9703,276.3238 L1343.2964,273.5241 L1345.2926,271.166 L1346.5988,268.3532 L1348.4705,265.9131 L1348.4442,265.8977 L1350.3048,263.4409 L1351.5521,260.6238 L1353.1612,258.0193 L1354.8008,255.4327 L1356.2212,252.7173 L1356.3863,252.8007 L1357.5754,250.0324 L1359.0466,247.4067 L1360.0614,244.5503 L1361.757,242.0379 L1363,239.2969 L1363.2418,239.327 L1363.6833,235.4158 L1364.2449,231.5196 L1364.2487,227.5538 L1364.6614,223.639 L1365.4363,219.7694 L1365.1731,219.6856 L1366.5241,216.2669 L1367.5785,212.7539 L1369.0631,209.3778 L1369.8133,205.7678 L1371,202.2969 L1370.8928,202.1885 L1372.8301,200.6295 L1374.3091,198.6071 L1376.1141,196.9142 L1378.2379,195.5438 L1379.7939,193.5992 L1379.9082,193.7555 L1381.8155,192.525 L1383.3672,190.8083 L1385.3642,189.7005 L1387.2643,188.4601 L1388.9382,186.9106 L1388.8422,186.7239 L1390.934,185.8361 L1392.9943,184.8872 L1395.1164,184.0584 L1396.9983,182.7625 L1399.0144,181.7276 L1399.0842,181.921 L1401.2488,180.6599 L1403.5481,179.7721 L1406.0441,179.4297 L1408.1779,178.0832 L1410.6039,177.5468" fill="none" style="stroke:#FF0000;stroke-width:1;"/><polygon fill="#FF0000" points="1416.34,175.7869,1416.3484,175.8564,1414.3679,175.4129,1412.4368,175.3772,1410.4896,175.2086,1408.4895,174.6035,1406.5626,174.6027,1406.5504,174.5798,1407.4954,175.0073,1408.5016,175.5501,1409.5503,176.1731,1410.4525,176.5197,1411.5599,177.2535,1411.723,177.34,1410.8442,178.1545,1410.4414,179.2215,1410.0967,180.3194,1409.4141,181.238,1408.9092,182.2508,1408.9241,182.268,1410.3883,180.95,1411.9206,179.7101,1413.42,178.4326,1414.982,177.227,1416.34,175.7869" style="stroke:#FF0000;stroke-width:1;"/></g><!--link R to Co2--><g class="link" data-entity-1="ent0007" data-entity-2="ent0016" data-link-type="dependency" data-source-line="59" id="lnk28"><path d="M1311.26,331.2169 L1311.3986,331.4604 L1319.4051,325.9447 L1328.2242,321.8566 L1336.7788,317.3036 L1344.4629,311.2217 L1353.3006,307.1662 L1361.4889,301.9699 L1369.9356,297.2276 L1378.562,292.8009 L1386.5693,287.2866 L1395.8089,283.9372 L1403.4464,277.7732 L1412.15,273.4822 L1420.9838,269.4198 L1429.0606,264.0278 L1437.5356,259.335" fill="none" style="stroke:#FF0000;stroke-width:1;"/><polygon fill="#FF0000" points="1442.75,256.3669,1442.7569,256.4366,1440.7762,256.4246,1438.8362,256.8214,1436.883,257.085,1434.8861,256.911,1432.9496,257.3428,1432.9428,257.3179,1434.003,257.5052,1435.0978,257.8186,1436.2166,258.2194,1437.2526,258.3186,1438.4047,258.8403,1438.5826,258.8892,1437.9026,259.8757,1437.7421,261.0049,1437.645,262.1515,1437.1791,263.1968,1436.9072,264.2954,1436.9255,264.3089,1438.0672,262.7034,1439.2922,261.1593,1440.477,259.5856,1441.7386,258.0684,1442.75,256.3669" style="stroke:#FF0000;stroke-width:1;"/></g><!--link R to Co3--><g class="link" data-entity-1="ent0007" data-entity-2="ent0017" data-link-type="dependency" data-source-line="60" id="lnk29"><path d="M1281.99,331.2169 L1282.0819,331.2334 L1282.4608,327.5519 L1283.3787,323.9672 L1284.121,320.351 L1284.2861,316.6312 L1285.2503,313.0547 L1285.2165,313.0477 L1285.5153,310.8497 L1285.9846,308.6872 L1286.5724,306.5493 L1286.7518,304.3265 L1287.5032,302.2227 L1287.743,302.2778 L1287.7729,299.8018 L1288.5029,297.4868 L1289.3183,295.1915 L1289.6367,292.7819 L1290.2166,290.4323 L1290.246,290.4398 L1290.8443,287.9105 L1291.5765,285.4152 L1292.2441,282.9036 L1293.0348,280.4232 L1293.4241,277.8406 L1293.7111,277.9216 L1294.4617,275.2754 L1295.0272,272.5769 L1295.8637,269.9549 L1296.7128,267.3364 L1297.1596,264.6044 L1296.8537,264.5086 L1298.3068,261.9497 L1298.7528,259.0754 L1299.9644,256.4409 L1300.3875,253.5595 L1301.4569,250.8804 L1301.4282,250.8704 L1302.7468,248.1778 L1303.3937,245.2514 L1304.437,242.4629 L1305.5135,239.6861 L1306.35,236.8256 L1306.5225,236.8926 L1307.4529,233.9792 L1308.678,231.1803 L1309.4264,228.1963 L1310.8859,225.4883 L1311.8726,222.5968 L1312.0961,222.6938 L1313.291,219.8263 L1314.5969,217.0069 L1315.3872,213.9637 L1316.5555,211.0845 L1318.0586,208.3508 L1317.8103,208.2297 L1319.4117,205.518 L1320.7333,202.6699 L1322.4606,200.0198 L1323.4953,197.0316 L1324.9417,194.2444 L1324.8082,194.1708 L1326.5534,191.5314 L1327.7279,188.5774 L1329.3082,185.8471 L1331.2857,183.3358 L1332.5559,180.4345 L1332.72,180.5374 L1334.5083,177.9367 L1335.7864,175.0159 L1337.7036,172.496 L1339.4815,169.8888 L1340.935,167.078 L1340.7646,166.9553 L1342.736,164.5038 L1344.6516,162.0122 L1346.6768,159.5995 L1348.2758,156.8798 L1350.1129,154.3317 L1350.2706,154.4635 L1351.9261,151.778 L1353.886,149.3469 L1356.2908,147.2876 L1357.8766,144.5439 L1360.1232,142.3523 L1360.2845,142.511 L1362.364,140.2057 L1364.3891,137.8466 L1366.5372,135.6088 L1368.97,133.651 L1371,131.2969 L1370.9135,131.1958 L1372.8391,130.0685 L1374.1763,128.2538 L1376.1825,127.2206 L1377.8121,125.7474 L1379.3401,124.1557 L1379.4016,124.2455 L1380.999,123.0457 L1382.8166,122.1676 L1384.4353,120.9988 L1385.9708,119.7085 L1387.5754,118.5191 L1387.6302,118.625 L1389.3233,117.5489 L1391.2709,116.9643 L1392.9307,115.8238 L1394.7088,114.912 L1396.4481,113.925 L1396.3495,113.6733 L1398.433,112.9546 L1400.6351,112.5392 L1402.6693,111.6947 L1404.6432,110.6963 L1406.7007,109.9114" fill="none" style="stroke:#FF0000;stroke-width:1;"/><polygon fill="#FF0000" points="1412.37,107.9469,1412.3759,108.0167,1410.3956,107.6427,1408.45,107.678,1406.4931,107.58,1404.499,107.0437,1402.5564,107.1141,1402.5451,107.0908,1403.5122,107.4802,1404.5363,107.987,1405.6,108.5756,1406.5271,108.8826,1407.6456,109.584,1407.8116,109.6645,1406.9626,110.5101,1406.5983,111.5908,1406.2932,112.7003,1405.644,113.6428,1405.1757,114.6731,1405.1913,114.6897,1406.6073,113.3201,1408.0941,112.0261,1409.5467,110.6956,1411.0645,109.4347,1412.37,107.9469" style="stroke:#FF0000;stroke-width:1;"/></g><!--link CC to C3--><g class="link" data-entity-1="ent0020" data-entity-2="ent0005" data-link-type="association" data-source-line="63" id="lnk30"><path d="M316.23,317.5469 L316.2455,317.8267 L326.1262,316.4451 L336.0978,316.7039 L346.0398,316.4285 L355.8844,314.3965 L365.8581,314.6926 L375.7591,313.6782 L385.6891,313.1852 L395.6391,313.0549 L405.5199,311.6751 L415.5385,312.7824 L425.378,310.6561 L435.3366,310.6817 L445.3099,310.9699 L455.1984,309.7305 L465.1366,309.3854 L475.056,308.7019 L484.9982,308.4319 L494.9295,307.9625 L504.8818,307.8737 L514.8149,307.4372 L524.7423,306.8979 L534.6377,305.7825 L544.5799,305.5105 L554.5243,305.2781 L564.346,302.8329 L574.3761,304.1462 L584.2309,302.298 L594.2189,302.8532 L604.0698,300.9334 L614.028,300.9511 L624.0146,301.4794 L633.883,299.8771 L643.8212,299.532 L653.7651,299.2925 L663.6976,298.8456 L673.5934,297.7361 L683.5417,297.5735 L693.405,295.879 L703.395,296.4695 L713.3412,296.2705 L723.2603,295.5824 L733.1995,295.2565 L743.0454,293.2471 L752.9597,292.4719 L762.8888,291.9627 L772.857,292.1614 L782.7737,291.428 L792.7652,292.0466 L802.6288,290.3568 L812.5432,289.5825 L822.5121,289.7929 L832.3728,288.0511 L842.3105,287.6976 L852.3234,288.7025 L862.2345,287.8684 L872.1833,287.7161 L882.0321,285.7597 L892.0062,286.0629 L901.9529,285.8738 L911.8013,283.9087 L921.7559,283.8599 L931.699,283.6051 L941.6645,283.7549 L951.5429,282.3314 L961.47,281.7869" fill="none" style="stroke:#008000;stroke-width:1;stroke-dasharray:7,7;"/><text fill="#000000" font-family="sans-serif" font-size="13" lengthAdjust="spacing" textLength="177.3472" x="532" y="292.3638">Neutralizes External Attack</text></g><!--link P2 to C2--><g class="link" data-entity-1="ent0019" data-entity-2="ent0004" data-link-type="association" data-source-line="64" id="lnk31"><path d="M437.04,400.3169 L437.0495,400.597 L446.9926,400.104 L456.9915,401.2529 L466.9722,401.8672 L476.893,400.7232 L486.8932,401.9095 L496.8487,401.7839 L506.822,402.1805 L516.8077,402.9399 L526.7508,402.4487 L536.7786,404.4469 L546.6962,403.2085 L556.6872,404.1241 L566.6871,405.3025 L576.635,404.9518 L586.6133,405.4963 L596.5801,405.702 L606.561,406.3217 L616.5351,406.7417 L626.5221,407.5427 L636.4973,407.9957 L646.4691,408.3459 L656.4212,408.1193 L666.402,408.7369 L676.3841,409.3942 L686.291,407.8366 L696.3258,410.041 L706.2529,409.081 L716.2619,410.5267 L726.1866,409.4949 L736.1773,410.4025 L746.1854,411.8213 L756.1209,411.1073 L766.0992,411.6518 L776.0811,412.302 L786.056,412.7446 L796.0083,412.524 L805.9928,413.2511 L815.9252,412.4449 L825.9354,413.9258 L835.9187,414.6166 L845.8853,414.8177 L855.8643,415.3815 L865.786,414.2601 L875.7497,414.374 L885.7224,414.7542 L895.7193,415.843 L905.6844,415.9988 L915.6955,417.508 L925.628,416.7064 L935.5918,416.8213 L945.589,417.9218 L955.55,417.9569" fill="none" style="stroke:#008000;stroke-width:1;stroke-dasharray:7,7;"/><text fill="#000000" font-family="sans-serif" font-size="13" lengthAdjust="spacing" textLength="171.3105" x="535" y="400.3638">Detects Technical Failures</text></g><!--link M1 to Co1--><g class="link" data-entity-1="ent0022" data-entity-2="ent0015" data-link-type="association" data-source-line="66" id="lnk32"><path d="M891.27,167.2969 L891.27,167.5771 L901.1787,166.7444 L911.0874,167.5546 L920.996,167.8298 L930.9047,166.3457 L940.8134,167.1933 L950.7221,166.7282 L960.6308,166.7855 L970.5394,167.206 L980.4481,166.375 L990.3568,168.0351 L1000.2655,166.4565 L1010.1742,167.0332 L1020.0828,167.8728 L1029.9915,167.1825 L1039.9002,167.3879 L1049.8089,167.2543 L1059.7175,167.5349 L1069.6262,167.6157 L1079.5349,168.0778 L1089.4436,168.1916 L1099.3523,168.2026 L1109.2609,167.6364 L1119.1696,167.915 L1129.0783,168.2332 L1138.987,166.3353 L1148.8957,168.2016 L1158.8043,166.9015 L1168.713,168.0086 L1178.6217,166.6368 L1188.5304,167.2055 L1198.4391,168.2857 L1208.3477,167.2319 L1218.2564,167.4373 L1228.1651,167.7484 L1238.0738,167.8519 L1247.9825,167.2917 L1257.8911,167.6798 L1267.7998,166.5337 L1277.7085,167.6761 L1287.6172,168.0278 L1297.5258,167.8896 L1307.4345,168.1142 L1317.3432,166.6528 L1327.2519,166.4273 L1337.1606,166.4683 L1347.0692,167.2184 L1356.9779,167.0348 L1366.8866,168.2054 L1376.7953,167.064 L1386.704,166.8395 L1396.6126,167.6012 L1406.5213,166.4078 L1416.43,167.2969" fill="none" style="stroke:#0000FF;stroke-width:1;stroke-dasharray:7,7;"/><text fill="#000000" font-family="sans-serif" font-size="13" lengthAdjust="spacing" textLength="64.1558" x="1128" y="163.3638">Mitigative</text></g><!--link M2 to Co3--><g class="link" data-entity-1="ent0023" data-entity-2="ent0017" data-link-type="association" data-source-line="67" id="lnk33"><path d="M883.5,96.2969 L883.5,96.5771 L893.4792,95.7444 L903.4585,96.5546 L913.4377,96.8298 L923.417,95.3457 L933.3962,96.1933 L943.3755,95.7282 L953.3547,95.7855 L963.334,96.206 L973.3132,95.375 L983.2925,97.0351 L993.2717,95.4565 L1003.2509,96.0332 L1013.2302,96.8728 L1023.2094,96.1825 L1033.1887,96.3879 L1043.1679,96.2543 L1053.1472,96.5349 L1063.1264,96.6157 L1073.1057,97.0778 L1083.0849,97.1916 L1093.0642,97.2026 L1103.0434,96.6364 L1113.0226,96.915 L1123.0019,97.2332 L1132.9811,95.3353 L1142.9604,97.2016 L1152.9396,95.9015 L1162.9189,97.0086 L1172.8981,95.6368 L1182.8774,96.2055 L1192.8566,97.2857 L1202.8358,96.2319 L1212.8151,96.4373 L1222.7943,96.7484 L1232.7736,96.8519 L1242.7528,96.2917 L1252.7321,96.6798 L1262.7113,95.5337 L1272.6906,96.6761 L1282.6698,97.0278 L1292.6491,96.8896 L1302.6283,97.1142 L1312.6075,95.6528 L1322.5868,95.4273 L1332.566,95.4683 L1342.5453,96.2184 L1352.5245,96.0348 L1362.5038,97.2054 L1372.483,96.064 L1382.4623,95.8395 L1392.4415,96.6012 L1402.4208,95.4078 L1412.4,96.2969" fill="none" style="stroke:#0000FF;stroke-width:1;stroke-dasharray:7,7;"/><text fill="#000000" font-family="sans-serif" font-size="13" lengthAdjust="spacing" textLength="64.1558" x="1128" y="92.3638">Mitigative</text></g><?plantuml-src jLHDRzim3BthLt39OLk018upO4E13cZjP2tG347QMx63QhEs5blo9BfTElI_ZxBJDdQoutGmOEgHV7hyU6SgKaP3BdNwQ1KHQY1Ret0RfIjfPGbtCjbarjGwZKnXB5zBxVWADUsXB2OaTLOW_140vyQcQ5lySDOSjYwCfcEsQ_M4CFqadlVYQKExKBtqmmMVAFf7acSXI16pE3UFf13MocqWLZBpCSSG6NslKcQkPC4_PLLpbikoaWa9KU0z0HcmAii9KkMVnDe8yHvEJq_X6vEeC8NhrkoyKR3dHcO8WvlSeYGtyFnYFWttDr465tKfDSojDNO0qa4qxTxVO99hbJ2jXLH5RR55XLtK_3UXrGmw8-BCBQPvzIkHviNp1tvZo-Lp4FIvhD6PsYO85-edkocTDO7MZ6faRmKmzuq5O3Hg5JePZTWZotV6AxN1GkN6fFvYYQcgIxv2dJPHkYbZIHBEMQ8a_n-vzWNW6ZlyLQDEi2t76P--10kbfKvy5rmPvreTpRGl4xU7RCOZbYN7ti5wDRd2ZCEiaCl27VSIgrkKbKLV4VM0lWN9ci9JYsFVAtrgrrj7MCBIQ4N6Sd7WmrppV2RSUtVReotyiKcwwX4xXcpPHHroIqKgauVaFBq-kKiMpOS4xg7A2zq4NFQKYxPtQE5IkzfwtYqcz4dRKU8qUd-AeYcCRxbI0PyVuw_S2r5uO9drBMBTjVW27fZ2GzFCqpYw2InMXUIsWRE4l-v53k3b28vuusMK8tCkNsiZeWWcazjX47pnyISJ7aSuWUzOyveiUAyvwCsiM8LzZv0zOYHMnC717d12BASxZo1OB1eFCsMNjxg9PNY0c7KHVm40?></g></svg>