<?plantuml 1.2026.1?><svg xmlns="http://www.w3.org/2000/svg" xmlns:xlink="http://www.w3.org/1999/xlink" contentStyleType="text/css" data-diagram-type="DESCRIPTION" height="452px" preserveAspectRatio="none" style="width:482px;height:452px;" version="1.1" viewBox="0 0 482 452" width="482px" zoomAndPan="magnify"><defs/><g><!--entity hp--><g class="entity" data-qualified-name="hp" data-source-line="7" id="ent0002"><polygon fill="#F1F1F1" points="72.5,272,72.5,272.2102,82.2491,271.5857,91.9982,272.1933,101.7473,272.3997,111.4964,271.2866,121.2454,271.9223,130.9945,271.5735,140.7436,271.6165,150.4927,271.9318,160.2418,271.3086,169.9909,272.5536,179.74,271.3697,189.4891,271.8022,199.2382,272.4319,208.9872,271.9142,218.7363,272,218.745,272.021,219.0858,272.1366,219.4662,272.3479,219.8275,272.513,220.2253,272.7662,220.5041,272.7322,220.7108,272.8178,220.8597,273.1724,220.8754,273.4718,221.0862,273.852,221.3061,274.236,221.2363,274.5,220.9959,274.5,221.4625,280.7594,221.1375,287.0188,221.4143,293.2781,221.0713,299.5375,221.2363,305.7969,221.2152,305.7881,221.3183,306.245,220.9284,306.4978,220.8294,306.871,220.7548,307.2543,220.5041,307.5646,220.5572,307.6928,220.15,307.7099,219.8336,307.946,219.3704,307.8277,219.1262,308.238,218.7363,308.2969,218.7363,308.8451,208.9872,308.7414,199.2382,308.9099,189.4891,307.8138,179.74,307.6447,169.9909,307.6755,160.2418,308.238,150.4927,308.1003,140.7436,308.9783,130.9945,308.1222,121.2454,307.9538,111.4964,308.5251,101.7473,307.63,91.9982,307.7777,82.2491,308.9458,72.5,308.2969,72.5556,308.431,72.2401,308.3766,71.7518,307.9049,71.4801,307.9558,71.1611,307.8929,70.7322,307.5646,70.5868,307.5044,70.5563,307.1989,70.4781,306.8736,70.4936,306.5871,70.1452,306.1499,70,305.7969,70.1542,305.7969,69.8154,299.5375,69.7742,293.2781,70.1679,287.0188,69.761,280.7594,70,274.5,70.1567,274.5649,70.2101,274.1728,70.2104,273.7587,70.3304,273.3942,70.7271,273.1443,70.7322,272.7322,70.694,272.6401,71.1613,272.7681,71.3688,272.2691,71.8717,272.483,72.2082,272.2956,72.5,272" style="stroke:#181818;stroke-width:0.5;"/><text fill="#000000" font-family="sans-serif" font-size="14" lengthAdjust="spacing" textLength="131.2363" x="80" y="294.9951">Hardware provider</text></g><!--entity cp--><g class="entity" data-qualified-name="cp" data-source-line="8" id="ent0003"><polygon fill="#F1F1F1" points="280.5,272,280.5,272.2102,290.3399,271.5857,300.1799,272.1933,310.0198,272.3997,319.8597,271.2866,329.6996,271.9223,339.5396,271.5735,349.3795,271.6165,359.2194,271.9318,369.0593,271.3086,378.8993,272.5536,388.7392,271.3697,398.5791,272,398.5539,271.9391,398.9878,272.2795,399.2753,272.2665,399.6485,272.4604,399.9892,272.5759,400.3469,272.7322,400.4018,272.755,400.567,273.1163,400.8201,273.5141,400.9929,273.8785,401.1418,274.2331,401.0791,274.5,401.164,274.5,401.2336,280.7594,401.3132,287.0188,400.8387,293.2781,401.3053,299.5375,401.0791,305.7969,400.9878,305.7591,401.097,306.2185,400.6338,306.4408,400.6187,306.8488,400.7217,307.3057,400.3469,307.5646,400.3407,307.5496,400.0067,307.7435,399.683,307.9618,399.3393,308.1322,398.9322,308.1492,398.5791,308.2969,398.5791,308.5841,388.7392,307.7245,378.8993,308.5813,369.0593,308.8451,359.2194,308.7414,349.3795,308.9099,339.5396,307.8138,329.6996,307.6447,319.8597,307.6755,310.0198,308.238,300.1799,308.1003,290.3399,308.9783,280.5,308.2969,280.4777,308.2431,280.1027,308.0448,279.822,308.0743,279.3543,307.6522,279.0196,307.5512,278.7322,307.5646,278.9321,307.6474,278.72,307.2667,278.6655,306.9512,278.1938,306.4629,278.2447,306.1911,278,305.7969,278.1968,305.7969,277.8425,299.5375,277.968,293.2781,278.042,287.0188,278.2173,280.7594,278,274.5,277.9987,274.4995,278.2889,274.2055,278.1223,273.7223,278.2308,273.3529,278.7409,273.15,278.7322,272.7322,278.6408,272.5114,279.1507,272.7425,279.4657,272.503,279.7587,272.2104,280.1013,272.0375,280.5,272" style="stroke:#181818;stroke-width:0.5;"/><text fill="#000000" font-family="sans-serif" font-size="14" lengthAdjust="spacing" textLength="103.0791" x="288" y="294.9951">Cloud provider</text></g><!--entity ap--><g class="entity" data-qualified-name="ap" data-source-line="9" id="ent0004"><polygon fill="#F1F1F1" points="162,74,162,74.2102,171.7148,73.5857,181.4297,74.1933,191.1445,74.3997,200.8594,73.2866,210.5742,73.9223,220.2891,73.5735,230.0039,73.6165,239.7188,73.9318,249.4336,73.3086,259.1484,74.5536,268.8633,73.3697,278.5781,73.8022,288.293,74.4319,298.0078,73.9142,307.7227,74.0682,317.4375,74,317.4334,73.9902,317.8138,74.2014,318.1751,74.3665,318.5729,74.6197,318.9373,74.7924,319.2053,74.7322,319.4145,74.8189,319.4301,75.1183,319.6409,75.4985,319.8609,75.8825,319.569,76.0545,319.9375,76.5,320.1637,76.5,319.8387,82.7594,320.1154,89.0188,319.7725,95.2781,319.9147,101.5375,319.9375,107.7969,320.1659,107.8915,319.776,108.1442,319.677,108.5174,319.6024,108.9007,319.4799,109.2642,319.2053,109.5646,319.2048,109.5634,318.8884,109.7995,318.4251,109.6813,318.1809,110.0916,317.861,110.3193,317.4375,110.2969,317.4375,110.7414,307.7227,110.9099,298.0078,109.8138,288.293,109.6447,278.5781,109.6755,268.8633,110.238,259.1484,110.1003,249.4336,110.9783,239.7188,110.1222,230.0039,109.9538,220.2891,110.5251,210.5742,109.63,200.8594,109.7777,191.1445,110.9458,181.4297,110.7325,171.7148,111.0314,162,110.2969,161.959,110.1978,161.6872,110.2487,161.3682,110.1858,160.8791,109.7121,160.5736,109.6816,160.2322,109.5646,160.271,109.5807,160.2865,109.2942,159.938,108.857,159.9353,108.563,159.4759,108.0798,159.5,107.7969,159.2742,107.7969,159.6679,101.5375,159.261,95.2781,159.6697,89.0188,159.5689,82.7594,159.5,76.5,159.4175,76.4658,159.5375,76.1013,159.9342,75.8514,159.8472,75.4012,160.2681,75.1613,160.2322,74.7322,160.1617,74.562,160.6645,74.7759,161.0011,74.5885,161.3241,74.3683,161.6525,74.161,162,74" style="stroke:#181818;stroke-width:0.5;"/><text fill="#000000" font-family="sans-serif" font-size="14" lengthAdjust="spacing" textLength="140.4375" x="169.5" y="96.9951">Attestation provider</text></g><!--entity cs--><g class="entity" data-qualified-name="cs" data-source-line="10" id="ent0005"><polygon fill="#F1F1F1" points="165.5,173,165.5,173.2102,175.3753,172.5857,185.2507,173.1933,195.126,173.3997,205.0013,172.2866,214.8766,172.9223,224.752,172.5735,234.6273,172.6165,244.5026,172.9318,254.3779,172.3086,264.2533,173.5536,274.1286,172.3697,284.0039,172.8022,293.8792,173.4319,303.7546,172.9142,313.6299,173,313.6386,173.021,313.9794,173.1366,314.3598,173.3479,314.721,173.513,315.1188,173.7662,315.3976,173.7322,315.6043,173.8178,315.7533,174.1724,315.769,174.4718,315.9798,174.852,316.1997,175.236,316.1299,175.5,315.8895,175.5,316.3561,181.7594,316.031,188.0188,316.3078,194.2781,315.9649,200.5375,316.1299,206.7969,316.1088,206.7881,316.2118,207.245,315.822,207.4978,315.723,207.871,315.6484,208.2543,315.3976,208.5646,315.4507,208.6928,315.0436,208.7099,314.7272,208.946,314.264,208.8277,314.0197,209.238,313.6299,209.2969,313.6299,209.8451,303.7546,209.7414,293.8792,209.9099,284.0039,208.8138,274.1286,208.6447,264.2533,208.6755,254.3779,209.238,244.5026,209.1003,234.6273,209.9783,224.752,209.1222,214.8766,208.9538,205.0013,209.5251,195.126,208.63,185.2507,208.7777,175.3753,209.9458,165.5,209.2969,165.5556,209.431,165.2401,209.3766,164.7518,208.9049,164.4801,208.9558,164.1611,208.8929,163.7322,208.5646,163.5868,208.5044,163.5563,208.1989,163.4781,207.8736,163.4936,207.5871,163.1452,207.1499,163,206.7969,163.1542,206.7969,162.8154,200.5375,162.7742,194.2781,163.1679,188.0188,162.761,181.7594,163,175.5,163.1567,175.5649,163.2101,175.1728,163.2104,174.7587,163.3304,174.3942,163.7271,174.1443,163.7322,173.7322,163.694,173.6401,164.1613,173.7681,164.3688,173.2691,164.8717,173.483,165.2082,173.2956,165.5,173" style="stroke:#181818;stroke-width:0.5;"/><text fill="#000000" font-family="sans-serif" font-size="14" lengthAdjust="spacing" textLength="133.1299" x="173" y="195.9951">Customer software</text></g><g class="entity" data-qualified-name="GMN6" data-source-line="12" id="ent0007"><path d="M126,12 L126.1868,12 L125.6317,17.0266 L126.1718,22.0531 L126.3553,27.0797 L125.3659,32.1063 L126,37.1328 L126,37.1328 L126,36.9256 L135.9545,35.9955 L145.9091,36.1101 L155.8636,36.9511 L165.8182,35.2892 L175.7727,38.6092 L185.7273,35.4521 L195.6818,36.6054 L205.6364,38.2847 L215.5909,36.9041 L225.5455,37.3148 L235.5,37.1328 L235.4718,37.1297 L236.4578,44.4682 L237.3113,51.7923 L238.4175,59.1439 L239.293,66.4704 L239.5,73.7237 L240.1002,73.7893 L240.525,66.4301 L241.5096,59.1321 L242.5205,51.837 L242.0627,44.3813 L243.5,37.1328 L243.5,38.9422 L253.4332,36.3421 L263.3665,38.5563 L273.2997,35.8128 L283.233,36.9501 L293.1662,39.1104 L303.0994,37.0029 L313.0327,37.4136 L322.9659,38.0358 L332.8991,38.2428 L342.8324,37.1224 L352.7656,37.1328 L352.7656,37.1328 L353.0209,37.1328 L352.2568,34.1063 L353.0184,31.0797 L353.2529,28.0531 L353.1608,25.0266 L352.7656,22 L353.1509,22.3853 L350.462,19.6964 L348.3557,17.5901 L346.3751,15.6094 L344.7286,13.963 L342.7656,12 L342.7656,11.4759 L332.9126,13.8171 L323.0597,11.5342 L313.2067,11.0852 L303.3537,12.6087 L293.5007,10.2218 L283.6477,10.6157 L273.7947,13.7305 L263.9418,13.1618 L254.0888,13.9586 L244.2358,11.1419 L234.3828,12.8512 L224.5298,13.5745 L214.6768,10.7403 L204.8239,11.7444 L194.9709,12.336 L185.1179,13.738 L175.2649,11.9888 L165.4119,13.2335 L155.5589,10.5232 L145.706,10.194 L135.853,13.343 L126,12 L126,12" fill="#FEFFDD" style="stroke:#181818;stroke-width:0.5;"/><path d="M342.7656,12 L342.9525,12 L342.3973,14 L342.9374,16 L343.1209,18 L342.1315,20 L342.7656,22 L342.7656,21.9309 L344.7656,21.6209 L346.7656,21.6591 L348.7656,21.9394 L350.7656,21.3854 L352.7656,22 L353.1136,22.348 L350.3695,19.6038 L348.6413,17.8757 L347.0371,16.2715 L344.7117,13.9461 L342.7656,12" fill="#FEFFDD" style="stroke:#181818;stroke-width:0.5;"/><text fill="#000000" font-family="sans-serif" font-size="13" lengthAdjust="spacing" textLength="205.7656" x="132" y="29.0669">attests integrity measurements</text></g><g class="entity" data-qualified-name="GMN9" data-source-line="13" id="ent0010"><path d="M6,345 L6.1868,345 L5.6317,350.0266 L6.1718,355.0531 L6.3553,360.0797 L5.3659,365.1063 L6,370.1328 L6,370.1328 L6,369.9256 L15.9745,368.9955 L25.9489,369.1101 L35.9234,369.9511 L45.8978,368.2892 L55.8723,371.6092 L65.8468,368.4521 L75.8212,369.6054 L85.7957,371.2847 L95.7701,369.9041 L105.7446,370.3148 L115.7191,370.0476 L125.6935,370.6089 L135.668,370.7705 L145.6425,371.6947 L155.6169,371.9223 L165.5914,371.9442 L175.5658,370.8118 L185.5403,371.369 L195.5148,372.0054 L205.4892,368.2097 L215.4637,371.9422 L225.4381,369.3421 L235.4126,370.1328 L235.4126,370.1328 L235.8871,370.1328 L234.9726,367.1063 L235.3517,364.0797 L236.0718,361.0531 L235.3693,358.0266 L235.4126,355 L235.4788,355.0662 L233.6254,353.2128 L231.6742,351.2616 L229.4101,348.9975 L227.5931,347.1805 L225.4126,345 L225.4126,343.4736 L215.769,345.7584 L206.1254,346.4619 L196.4818,346.1854 L186.8382,346.6347 L177.1947,343.7118 L167.5511,343.2608 L157.9075,343.3429 L148.2639,344.843 L138.6203,344.4759 L128.9767,345 L129.5614,345.1582 L130.8178,337.6013 L132.6643,330.2041 L135.1455,322.9786 L136.3684,315.4127 L138.9315,308.2094 L138.5168,308.007 L135.859,315.8205 L132.0976,323.0955 L128.7454,330.5701 L124.3106,337.5164 L120.9767,345 L120.9767,345.8512 L110.5243,346.5745 L100.0719,343.7403 L89.6194,344.7444 L79.167,345.336 L68.7146,346.738 L58.2621,344.9888 L47.8097,346.2335 L37.3573,343.5232 L26.9049,343.194 L16.4524,346.343 L6,345 L6,345" fill="#FEFFDD" style="stroke:#181818;stroke-width:0.5;"/><path d="M225.4126,345 L225.5994,345 L225.0443,347 L225.5844,349 L225.7679,351 L224.7785,353 L225.4126,355 L225.4126,354.9309 L227.4126,354.6209 L229.4126,354.6591 L231.4126,354.9394 L233.4126,354.3854 L235.4126,355 L235.7606,355.348 L233.0164,352.6038 L231.2883,350.8757 L229.6841,349.2715 L227.3587,346.9461 L225.4126,345" fill="#FEFFDD" style="stroke:#181818;stroke-width:0.5;"/><text fill="#000000" font-family="sans-serif" font-size="13" lengthAdjust="spacing" textLength="208.4126" x="12" y="362.0669">defines integrity measurements</text></g><g class="entity" data-qualified-name="GMN12" data-source-line="14" id="ent0013"><path d="M253,345 L253.1868,345 L252.6317,350.0266 L253.1718,355.0531 L253.3553,360.0797 L252.3659,365.1063 L253,370.1328 L253,370.1328 L253,369.9256 L263.1142,368.9955 L273.2284,369.1101 L283.3426,369.9511 L293.4569,368.2892 L303.5711,371.6092 L313.6853,368.4521 L323.7995,369.6054 L333.9137,371.2847 L344.0279,369.9041 L354.1421,370.3148 L364.2563,370.0476 L374.3706,370.6089 L384.4848,370.7705 L394.599,371.6947 L404.7132,371.9223 L414.8274,371.9442 L424.9416,370.8118 L435.0558,371.369 L445.1701,372.0054 L455.2843,368.2097 L465.3985,371.9422 L475.5127,370.1328 L475.5127,370.1328 L475.2491,370.1328 L475.9872,367.1063 L475.0727,364.0797 L475.4518,361.0531 L476.1719,358.0266 L475.5127,355 L475.4821,354.9694 L473.5789,353.0662 L471.7255,351.2128 L469.7743,349.2616 L467.5102,346.9975 L465.5127,345 L465.5127,345.7659 L455.3638,343.4736 L445.2148,345.7584 L435.0659,346.4619 L424.9169,346.1854 L414.768,346.6347 L404.6191,343.7118 L394.4701,343.2608 L384.3212,343.3429 L374.1722,344.843 L364.0233,345 L363.8663,344.9234 L360.9767,337.9075 L356.7018,330.2156 L352.9763,322.7919 L349.8418,315.6565 L346.0685,308.2094 L345.4963,308.0545 L347.614,315.447 L350.6072,323.0763 L352.4152,330.3849 L354.6625,337.8124 L356.0233,345 L356.0233,344.1419 L345.721,345.8512 L335.4186,346.5745 L325.1163,343.7403 L314.814,344.7444 L304.5116,345.336 L294.2093,346.738 L283.907,344.9888 L273.6047,346.2335 L263.3023,343.5232 L253,345 L253,345" fill="#FEFFDD" style="stroke:#181818;stroke-width:0.5;"/><path d="M465.5127,345 L465.6995,345 L465.1444,347 L465.6845,349 L465.868,351 L464.8786,353 L465.5127,355 L465.5127,354.9309 L467.5127,354.6209 L469.5127,354.6591 L471.5127,354.9394 L473.5127,354.3854 L475.5127,355 L475.8607,355.348 L473.1165,352.6038 L471.3884,350.8757 L469.7842,349.2715 L467.4588,346.9461 L465.5127,345" fill="#FEFFDD" style="stroke:#181818;stroke-width:0.5;"/><text fill="#000000" font-family="sans-serif" font-size="13" lengthAdjust="spacing" textLength="201.5127" x="259" y="362.0669">allows integrity measurements</text></g><g class="link" data-entity-1="ent0004" data-entity-2="ent0002" data-link-type="dependency" id="lnk15"><polygon fill="#FF0000" points="199.4571,110.01,199.4613,110.0799,197.4826,109.9897,195.5284,110.3094,193.5663,110.4957,191.5779,110.2429,189.6258,110.5979,189.618,110.5732,190.6611,110.8047,191.7438,111.1608,192.8539,111.6034,193.8693,111.7477,195.0174,112.3098,195.1933,112.3656,194.4748,113.3245,194.2698,114.4465,194.1275,115.5883,193.6206,116.6144,193.3055,117.7014,193.3233,117.7156,194.5275,116.1564,195.8126,114.662,197.0587,113.1363,198.3792,111.6702,199.4571,110.01" style="stroke:#FF0000;stroke-width:1;"/><polygon fill="#FF0000" points="136.9523,271.8395,137.0223,271.8396,136.8161,269.8696,137.0206,267.9,137.0914,265.9303,136.7224,263.9602,136.9622,261.9906,136.938,261.9813,136.4223,262.995,136.0285,264.0557,135.7194,265.1491,135.1183,266.1299,134.9262,267.2684,134.9926,267.4406,133.795,266.6652,132.7913,266.3925,131.8113,266.1811,130.6937,265.6129,129.6484,265.2324,129.6637,265.2493,131.102,266.5459,132.6099,267.9194,134.0842,269.2558,135.6225,270.6629,136.9523,271.8395" style="stroke:#FF0000;stroke-width:1;"/><path d="M194.1295,112.7697 L194.1742,112.8518 L192.1416,113.643 L190.3711,114.915 L188.5152,116.0305 L186.3788,116.631 L184.6307,117.9443 L184.6128,117.9148 L182.6566,118.9243 L180.7909,120.0825 L178.9883,121.344 L176.9687,122.2493 L175.2529,123.6536 L175.3928,123.856 L173.2671,124.6858 L171.55,126.1065 L169.8826,127.5993 L167.9253,128.6726 L166.1205,129.9666 L166.1394,129.9903 L164.3592,131.3526 L162.6651,132.8228 L160.9294,134.241 L159.2729,135.7585 L157.3582,136.9521 L157.5618,137.17 L155.9108,138.7181 L154.1284,140.1256 L152.5382,141.7389 L150.9571,143.3618 L149.0904,144.6793 L148.8517,144.4654 L147.7853,146.588 L145.9328,148.0064 L144.6779,149.9602 L142.8076,151.3626 L141.4418,153.217 L141.4172,153.199 L140.3266,155.2953 L138.6623,156.9711 L137.3365,158.895 L136.0391,160.8398 L134.5368,162.6342 L134.6966,162.7273 L133.3279,164.7065 L132.2324,166.8448 L130.6949,168.7257 L129.8166,170.9905 L128.5,173 L128.7263,173.0902 L127.7068,175.5233 L126.7996,178.0012 L125.3703,180.271 L124.3238,182.6933 L123.6163,185.2508 L123.3457,185.1953 L123.0762,187.7549 L122.5019,190.252 L122.3697,192.8397 L121.4826,195.2726 L121.0442,197.7976 L120.8919,197.7902 L121.0233,200.3249 L120.5037,202.828 L120.4471,205.3535 L120.8434,207.901 L120.4331,210.4094 L120.6261,210.4249 L120.9583,212.9246 L120.6902,215.3762 L121.1741,217.8881 L121.4941,220.3869 L121.4324,222.855 L121.226,222.8163 L121.8423,225.2568 L122.391,227.6847 L123.0725,230.1374 L123.2378,232.4934 L123.6914,234.9034 L123.8895,234.9583 L124.0879,237.1216 L124.6686,239.3909 L125.808,241.8152 L125.9189,243.9542 L126.8596,246.3234 L127.0729,246.3987 L127.6915,248.4661 L128.238,250.5081 L128.9473,252.6075 L130.0332,254.8398 L130.5863,256.8841 L130.4635,256.833 L131.6161,258.879 L131.9333,260.5779 L133.2005,262.6714 L133.9328,264.5427 L134.5209,266.3542" fill="none" style="stroke:#FF0000;stroke-width:1;stroke-dasharray:7,7;"/><text fill="#FF0000" font-family="sans-serif" font-size="20" lengthAdjust="spacing" textLength="6.3574" x="130.5" y="198.0645">&#160;</text><path d="M144.5241,184.4479 L144.5241,184.4479 L144.5901,184.514 L143.0605,185.651 L141.9182,187.1753 L140.6497,188.5735 L138.9666,189.5571 L137.8574,191.1146 L137.8574,191.1146 L137.833,191.0902 L139.0567,192.3139 L140.4036,193.6607 L141.836,195.0932 L142.9735,196.2306 L144.5241,197.7813 L144.5241,197.7813 L144.6981,197.9552 L145.6593,196.2498 L147.1286,195.0524 L148.6598,193.917 L149.8305,192.421 L151.1908,191.1146 L151.1908,191.1146 L151.2122,191.136 L149.8474,189.7712 L148.5802,188.504 L147.2659,187.1897 L146.0415,185.9653 L144.5241,184.4479 M142.0241,187.4146 L142.4459,187.8364 L142.951,188.3415 L143.1841,188.5746 L143.8155,189.206 L144.4655,189.856 L144.5241,189.9146 L144.0708,189.4613 L145.4506,189.8411 L145.3377,188.7282 L146.3596,188.7501 L146.2129,187.6034 L147.0241,187.4146 L146.981,187.3715 L147.7302,188.1207 L147.4735,187.864 L147.8103,188.2008 L148.1969,188.5874 L148.2241,188.6146 L148.4857,188.8762 L147.7216,189.1121 L147.4046,189.7951 L146.3643,189.7548 L146.4028,190.7933 L145.7241,191.1146 L146.0687,191.4591 L146.5035,191.894 L147.1094,192.4999 L146.9205,192.3109 L147.3142,192.7047 L148.2241,193.6146 L147.8335,193.224 L147.9471,193.8176 L147.6206,193.9711 L147.9324,194.7629 L147.1543,194.4648 L147.0241,194.8146 L146.8085,194.599 L146.6676,194.4581 L145.605,193.3954 L145.1978,192.9883 L145.432,193.2225 L144.5241,192.3146 L144.7979,192.5884 L144.4857,193.2762 L143.3218,193.1123 L143.2247,194.0152 L142.8952,194.6857 L142.0241,194.8146 L141.7272,194.5177 L141.7238,194.5143 L141.6233,194.4138 L141.7137,194.5042 L141.0615,193.8519 L140.8241,193.6146 L141.1148,193.9053 L140.976,192.7665 L141.3984,192.1889 L142.6406,192.4311 L142.3735,191.164 L143.3241,191.1146 L143.644,191.4345 L142.954,190.7445 L142.1557,189.9462 L141.6017,189.3922 L141.6124,189.4029 L140.8241,188.6146 L140.6359,188.4264 L141.4361,188.7466 L140.9567,187.7872 L141.9322,188.2827 L142.0885,187.959 L142.0241,187.4146" fill="#FF0000"/></g><g class="link" data-entity-1="ent0004" data-entity-2="ent0003" data-link-type="dependency" id="lnk16"><polygon fill="#FF0000" points="265.641,110.0231,265.7017,110.0581,266.5053,111.6605,267.6647,113.4681,268.7082,115.2089,269.3707,116.73,270.5607,118.5552,270.5351,118.5512,270.2446,117.4155,270.0831,116.3,270.0114,115.1987,269.6305,114.0488,269.6826,112.9669,269.7112,113.1492,270.7676,112.5837,271.9076,112.5505,273.0579,112.5823,274.1487,112.2362,275.2708,112.0888,275.2756,112.111,273.3426,111.6652,271.4314,111.3207,269.5097,110.9273,267.608,110.6271,265.641,110.0231" style="stroke:#FF0000;stroke-width:1;"/><polygon fill="#FF0000" points="340.7663,271.8228,340.8291,271.854,341.5175,269.9967,342.5739,268.3219,343.5105,266.5876,344.053,264.6581,345.141,262.9989,345.1235,262.9798,344.2119,263.6599,343.3887,264.4361,342.6269,265.2792,341.6534,265.8919,340.9765,266.8273,341.1123,266.9522,340.0561,265.8522,339.3966,265.1168,338.7854,264.426,337.8927,263.4763,337.1481,262.6627,337.1692,262.6711,337.8618,264.4908,338.6507,266.3486,339.3932,268.1881,340.2243,270.0625,340.7663,271.8228" style="stroke:#FF0000;stroke-width:1;"/><path d="M270.4909,113.5557 L270.5485,113.6292 L273.3445,115.7348 L276.4782,118.2715 L279.5019,120.6679 L282.164,122.6025 L285.3267,125.1763 L285.3031,125.1511 L288.0952,127.7555 L291.0065,130.4869 L294.0005,133.3066 L296.7092,135.822 L299.8176,138.7636 L300.0005,138.9282 L300.9816,140.1006 L302.4967,141.7536 L304.0769,143.4652 L305.2781,144.8357 L306.6786,146.3856 L306.7025,146.4043 L307.9612,148.0213 L309.3285,149.7236 L310.6434,151.3848 L312.0582,153.1245 L313.1474,154.6081 L313.3946,154.7748 L314.5926,156.5488 L315.631,158.2151 L316.9029,160.0389 L318.1857,161.8701 L319.1218,163.4675 L318.8427,163.31 L320.4601,165.5222 L321.1583,167.2157 L322.5554,169.3036 L323.2328,170.9854 L324.5,173 L324.4722,172.9876 L325.8898,175.5763 L326.6577,177.8754 L327.809,180.3454 L328.9925,182.8298 L329.9438,185.2106 L330.1192,185.2693 L330.7768,187.7056 L331.7341,190.2421 L332.2064,192.6164 L333.4021,195.2327 L334.1169,197.6881 L334.3536,197.7458 L334.9199,200.2397 L335.6036,202.7623 L335.7414,205.1517 L336.2794,207.6387 L337.172,210.2122 L336.8997,210.1661 L337.5641,212.678 L337.9217,215.1379 L338.7244,217.6731 L338.7672,220.0798 L339.2617,222.5629 L339.1101,222.5467 L339.6179,224.965 L339.4777,227.3142 L339.7984,229.7126 L340.57,232.1591 L340.5385,234.5199 L340.7319,234.5304 L340.9878,236.8063 L340.6424,239.0495 L341.0502,241.3336 L341.2939,243.6088 L341.1552,245.8632 L340.9453,245.8618 L341.0853,249.8559 L341.1565,253.8496 L341.3628,257.8442 L341.044,261.8351 L341.0185,265.8281" fill="none" style="stroke:#FF0000;stroke-width:1;stroke-dasharray:7,7;"/><text fill="#FF0000" font-family="sans-serif" font-size="20" lengthAdjust="spacing" textLength="6.3574" x="338.5" y="198.0645">&#160;</text><path d="M352.5241,184.4479 L352.5241,184.4479 L352.5901,184.514 L351.0605,185.651 L349.9182,187.1753 L348.6497,188.5735 L346.9666,189.5571 L345.8574,191.1146 L345.8574,191.1146 L345.833,191.0902 L347.0567,192.3139 L348.4036,193.6607 L349.836,195.0932 L350.9735,196.2306 L352.5241,197.7813 L352.5241,197.7813 L352.6981,197.9552 L353.6593,196.2498 L355.1286,195.0524 L356.6598,193.917 L357.8305,192.421 L359.1908,191.1146 L359.1908,191.1146 L359.2122,191.136 L357.8474,189.7712 L356.5802,188.504 L355.2659,187.1897 L354.0415,185.9653 L352.5241,184.4479 M350.0241,187.4146 L350.4459,187.8364 L350.951,188.3415 L351.1841,188.5746 L351.8155,189.206 L352.4655,189.856 L352.5241,189.9146 L352.0708,189.4613 L353.4506,189.8411 L353.3377,188.7282 L354.3596,188.7501 L354.2129,187.6034 L355.0241,187.4146 L354.981,187.3715 L355.7302,188.1207 L355.4735,187.864 L355.8103,188.2008 L356.1969,188.5874 L356.2241,188.6146 L356.4857,188.8762 L355.7216,189.1121 L355.4046,189.7951 L354.3643,189.7548 L354.4028,190.7933 L353.7241,191.1146 L354.0687,191.4591 L354.5035,191.894 L355.1094,192.4999 L354.9205,192.3109 L355.3142,192.7047 L356.2241,193.6146 L355.8335,193.224 L355.9471,193.8176 L355.6206,193.9711 L355.9324,194.7629 L355.1543,194.4648 L355.0241,194.8146 L354.8085,194.599 L354.6676,194.4581 L353.605,193.3954 L353.1978,192.9883 L353.432,193.2225 L352.5241,192.3146 L352.7979,192.5884 L352.4857,193.2762 L351.3218,193.1123 L351.2247,194.0152 L350.8952,194.6857 L350.0241,194.8146 L349.7272,194.5177 L349.7238,194.5143 L349.6233,194.4138 L349.7137,194.5042 L349.0615,193.8519 L348.8241,193.6146 L349.1148,193.9053 L348.976,192.7665 L349.3984,192.1889 L350.6406,192.4311 L350.3735,191.164 L351.3241,191.1146 L351.644,191.4345 L350.954,190.7445 L350.1557,189.9462 L349.6017,189.3922 L349.6124,189.4029 L348.8241,188.6146 L348.6359,188.4264 L349.4361,188.7466 L348.9567,187.7872 L349.9322,188.2827 L350.0885,187.959 L350.0241,187.4146" fill="#FF0000"/></g><g class="link" data-entity-1="ent0002" data-entity-2="ent0003" data-link-type="dependency" id="lnk17"><polygon fill="#FF0000" points="221.061,290,221.0894,290.064,222.8049,290.6738,224.6871,291.6589,226.5151,292.5217,228.1644,292.9827,230.061,294,230.0427,293.9817,229.1604,293.0995,228.3706,292.3096,227.6449,291.5839,226.698,290.637,226.061,290,226.1915,290.1305,226.7124,289.0514,227.6144,288.3534,228.5628,287.7018,229.2408,286.7798,230.061,286,230.0702,286.0208,228.2566,286.7903,226.4851,287.6544,224.6933,288.4728,222.9403,289.3784,221.061,290" style="stroke:#FF0000;stroke-width:1;"/><polygon fill="#FF0000" points="277.9235,290,277.952,290.064,276.0675,289.0738,274.3497,288.4589,272.5777,287.7217,270.627,286.5827,268.9235,286,268.9052,285.9817,269.623,286.6995,270.4332,287.5096,271.3075,288.3839,271.9606,289.037,272.9235,290,273.054,290.1305,271.975,290.6514,271.2769,291.5534,270.6254,292.5018,269.7033,293.1798,268.9235,294,268.9328,294.0208,270.7192,293.1903,272.5477,292.4544,274.3559,291.6728,276.2028,290.9784,277.9235,290" style="stroke:#FF0000;stroke-width:1;"/><path d="M227.061,290 L227.061,290.0934 L236.0335,289.8159 L245.006,290.0859 L253.9785,290.1776 L262.951,289.6829 L271.9235,290" fill="none" style="stroke:#FF0000;stroke-width:1;stroke-dasharray:7,7;"/><text fill="#FF0000" font-family="sans-serif" font-size="20" lengthAdjust="spacing" textLength="6.3574" x="239" y="280.5645">&#160;</text><path d="M253.0241,266.9479 L253.0241,266.9479 L253.0901,267.014 L251.5605,268.151 L250.4182,269.6753 L249.1497,271.0735 L247.4666,272.0571 L246.3574,273.6146 L246.3574,273.6146 L246.333,273.5902 L247.5567,274.8139 L248.9036,276.1607 L250.336,277.5932 L251.4735,278.7306 L253.0241,280.2813 L253.0241,280.2813 L253.1981,280.4552 L254.1593,278.7498 L255.6286,277.5524 L257.1598,276.417 L258.3305,274.921 L259.6908,273.6146 L259.6908,273.6146 L259.7122,273.636 L258.3474,272.2712 L257.0802,271.004 L255.7659,269.6897 L254.5415,268.4653 L253.0241,266.9479 M250.5241,269.9146 L250.9459,270.3364 L251.451,270.8415 L251.6841,271.0746 L252.3155,271.706 L252.9655,272.356 L253.0241,272.4146 L252.5708,271.9613 L253.9506,272.3411 L253.8377,271.2282 L254.8596,271.2501 L254.7129,270.1034 L255.5241,269.9146 L255.481,269.8715 L256.2302,270.6207 L255.9735,270.364 L256.3103,270.7008 L256.6969,271.0874 L256.7241,271.1146 L256.9857,271.3762 L256.2216,271.6121 L255.9046,272.2951 L254.8643,272.2548 L254.9028,273.2933 L254.2241,273.6146 L254.5687,273.9591 L255.0035,274.394 L255.6094,274.9999 L255.4205,274.8109 L255.8142,275.2047 L256.7241,276.1146 L256.3335,275.724 L256.4471,276.3176 L256.1206,276.4711 L256.4324,277.2629 L255.6543,276.9648 L255.5241,277.3146 L255.3085,277.099 L255.1676,276.9581 L254.105,275.8954 L253.6978,275.4883 L253.932,275.7225 L253.0241,274.8146 L253.2979,275.0884 L252.9857,275.7762 L251.8218,275.6123 L251.7247,276.5152 L251.3952,277.1857 L250.5241,277.3146 L250.2272,277.0177 L250.2238,277.0143 L250.1233,276.9138 L250.2137,277.0042 L249.5615,276.3519 L249.3241,276.1146 L249.6148,276.4053 L249.476,275.2665 L249.8984,274.6889 L251.1406,274.9311 L250.8735,273.664 L251.8241,273.6146 L252.144,273.9345 L251.454,273.2445 L250.6557,272.4462 L250.1017,271.8922 L250.1124,271.9029 L249.3241,271.1146 L249.1359,270.9264 L249.9361,271.2466 L249.4567,270.2872 L250.4322,270.7827 L250.5885,270.459 L250.5241,269.9146" fill="#FF0000"/></g><g class="link" data-entity-1="ent0004" data-entity-2="ent0005" data-link-type="dependency" id="lnk18"><polygon fill="#008000" points="239.5,172.8085,239.564,172.8369,240.1738,170.9524,241.1589,169.2346,242.0217,167.4626,242.4827,165.5119,243.5,163.8085,243.4817,163.7902,242.5995,164.508,241.8096,165.3181,241.0839,166.1924,240.137,166.8455,239.5,167.8085,239.6305,167.939,238.5514,166.8599,237.8534,166.1619,237.2018,165.5103,236.2798,164.5883,235.5,163.8085,235.5208,163.8177,236.2903,165.6042,237.1544,167.4326,237.9728,169.2409,238.8784,171.0878,239.5,172.8085" style="stroke:#008000;stroke-width:1;"/><path d="M239.5,110.3417 L239.7802,110.3417 L238.9476,119.7528 L239.7577,129.1639 L240.0329,138.5751 L238.5488,147.9862 L239.3964,157.3973 L239.5,166.8085" fill="none" style="stroke:#008000;stroke-width:1;"/><text fill="#008000" font-family="sans-serif" font-size="20" lengthAdjust="spacing" textLength="6.3574" x="241.5" y="148.5645">&#160;</text><path d="M255.5241,134.9479 L255.5241,134.9479 L255.5901,135.014 L254.0605,136.151 L252.9182,137.6753 L251.6497,139.0735 L249.9666,140.0571 L248.8574,141.6146 L248.8574,141.6146 L248.833,141.5902 L250.0567,142.8139 L251.4036,144.1607 L252.836,145.5932 L253.9735,146.7306 L255.5241,148.2813 L255.5241,148.2813 L255.6981,148.4552 L256.6593,146.7498 L258.1286,145.5524 L259.6598,144.417 L260.8305,142.921 L262.1908,141.6146 L262.1908,141.6146 L262.2122,141.636 L260.8474,140.2712 L259.5802,139.004 L258.2659,137.6897 L257.0415,136.4653 L255.5241,134.9479 M258.8574,137.9146 L259.2792,138.3364 L259.5244,138.5815 L259.4975,138.5546 L259.8688,138.926 L260.2588,139.316 L260.0574,139.1146 L259.6041,138.6613 L259.4106,140.6144 L257.7244,141.0749 L257.1729,142.6701 L255.4529,143.0968 L254.6908,144.4813 L254.6477,144.4382 L254.5836,144.374 L253.5135,143.304 L253.0369,142.8274 L252.6103,142.4008 L251.8241,141.6146 L252.0857,141.8762 L252.0616,141.3721 L252.4846,141.3151 L252.1843,140.5348 L252.9628,140.8333 L253.0241,140.4146 L253.3687,140.7591 L253.6368,141.0273 L254.0761,141.4666 L253.7205,141.1109 L253.9475,141.338 L254.6908,142.0812 L254.3002,141.6907 L255.4871,141.2109 L256.2339,140.2911 L257.619,140.0095 L257.9143,138.6381 L258.8574,137.9146" fill="#008000"/></g><g class="link" data-entity-1="ent0005" data-entity-2="ent0002" data-link-type="dependency" id="lnk20"><polygon fill="#008000" points="222.6947,209.3417,222.7209,209.4066,220.8159,209.9494,219.0645,210.8732,217.263,211.6729,215.2973,212.0646,213.559,213.0211,213.5585,212.9952,214.688,212.8612,215.8194,212.8578,216.9523,212.9451,218.0803,212.7196,219.2151,212.9323,219.3996,212.9352,219.0228,214.0602,219.1847,215.1937,219.4124,216.3282,219.2576,217.4568,219.304,218.5884,219.3253,218.5963,219.9721,216.7354,220.7161,214.9102,221.4132,213.0678,222.1998,211.2582,222.6947,209.3417" style="stroke:#008000;stroke-width:1;"/><path d="M218.5192,213.6504 L218.7204,213.8454 L211.0776,220.5357 L204.6144,228.3693 L197.7671,235.8305 L189.6564,242.0675 L183.2202,249.9271 L175.8413,256.8732 L168.8375,264.1829 L162.1598,271.8085" fill="none" style="stroke:#008000;stroke-width:1;"/><text fill="#008000" font-family="sans-serif" font-size="20" lengthAdjust="spacing" textLength="6.3574" x="206.5" y="247.5645">&#160;</text><path d="M220.5241,233.9479 L220.5241,233.9479 L220.5901,234.014 L219.0605,235.151 L217.9182,236.6753 L216.6497,238.0735 L214.9666,239.0571 L213.8574,240.6146 L213.8574,240.6146 L213.833,240.5902 L215.0567,241.8139 L216.4036,243.1607 L217.836,244.5932 L218.9735,245.7306 L220.5241,247.2813 L220.5241,247.2813 L220.6981,247.4552 L221.6593,245.7498 L223.1286,244.5524 L224.6598,243.417 L225.8305,241.921 L227.1908,240.6146 L227.1908,240.6146 L227.2122,240.636 L225.8474,239.2712 L224.5802,238.004 L223.2659,236.6897 L222.0415,235.4653 L220.5241,233.9479 M223.8574,236.9146 L224.2792,237.3364 L224.5244,237.5815 L224.4975,237.5546 L224.8688,237.926 L225.2588,238.316 L225.0574,238.1146 L224.6041,237.6613 L224.4106,239.6144 L222.7244,240.0749 L222.1729,241.6701 L220.4529,242.0968 L219.6908,243.4813 L219.6477,243.4382 L219.5836,243.374 L218.5135,242.304 L218.0369,241.8274 L217.6103,241.4008 L216.8241,240.6146 L217.0857,240.8762 L217.0616,240.3721 L217.4846,240.3151 L217.1843,239.5348 L217.9628,239.8333 L218.0241,239.4146 L218.3687,239.7591 L218.6368,240.0273 L219.0761,240.4666 L218.7205,240.1109 L218.9475,240.338 L219.6908,241.0812 L219.3002,240.6907 L220.4871,240.2109 L221.2339,239.2911 L222.619,239.0095 L222.9143,237.6381 L223.8574,236.9146" fill="#008000"/></g><g class="link" data-entity-1="ent0005" data-entity-2="ent0003" data-link-type="dependency" id="lnk22"><polygon fill="#008000" points="257.378,209.3417,257.443,209.3678,257.9849,211.1176,258.9078,213.0207,259.7067,214.8739,260.0974,216.5629,261.0531,218.4791,261.0272,218.4787,260.8937,217.3457,260.8908,216.2147,260.9787,215.0851,260.7538,213.9507,260.967,212.8229,260.9698,213.0075,262.095,212.5956,263.2284,212.7226,264.3629,212.9152,265.4915,212.7254,266.6232,212.7368,266.631,212.7582,264.7705,212.0478,262.9456,211.4346,261.1035,210.7745,259.2943,210.204,257.378,209.3417" style="stroke:#008000;stroke-width:1;"/><path d="M261.6847,213.5192 L261.8799,213.7204 L268.8116,220.4088 L276.8872,228.2765 L284.5903,235.7602 L291.0685,241.9811 L299.1701,249.8756 L306.3578,256.828 L313.9093,264.1553 L321.7768,271.8085" fill="none" style="stroke:#008000;stroke-width:1;"/><text fill="#008000" font-family="sans-serif" font-size="20" lengthAdjust="spacing" textLength="6.3574" x="303.5" y="247.5645">&#160;</text><path d="M317.5241,233.9479 L317.5241,233.9479 L317.5901,234.014 L316.0605,235.151 L314.9182,236.6753 L313.6497,238.0735 L311.9666,239.0571 L310.8574,240.6146 L310.8574,240.6146 L310.833,240.5902 L312.0567,241.8139 L313.4036,243.1607 L314.836,244.5932 L315.9735,245.7306 L317.5241,247.2813 L317.5241,247.2813 L317.6981,247.4552 L318.6593,245.7498 L320.1286,244.5524 L321.6598,243.417 L322.8305,241.921 L324.1908,240.6146 L324.1908,240.6146 L324.2122,240.636 L322.8474,239.2712 L321.5802,238.004 L320.2659,236.6897 L319.0415,235.4653 L317.5241,233.9479 M320.8574,236.9146 L321.2792,237.3364 L321.5244,237.5815 L321.4975,237.5546 L321.8688,237.926 L322.2588,238.316 L322.0574,238.1146 L321.6041,237.6613 L321.4106,239.6144 L319.7244,240.0749 L319.1729,241.6701 L317.4529,242.0968 L316.6908,243.4813 L316.6477,243.4382 L316.5836,243.374 L315.5135,242.304 L315.0369,241.8274 L314.6103,241.4008 L313.8241,240.6146 L314.0857,240.8762 L314.0616,240.3721 L314.4846,240.3151 L314.1843,239.5348 L314.9628,239.8333 L315.0241,239.4146 L315.3687,239.7591 L315.6368,240.0273 L316.0761,240.4666 L315.7205,240.1109 L315.9475,240.338 L316.6908,241.0812 L316.3002,240.6907 L317.4871,240.2109 L318.2339,239.2911 L319.619,239.0095 L319.9143,237.6381 L320.8574,236.9146" fill="#008000"/></g><g class="legend" data-source-line="24"><polygon fill="none" points="80.6097,376,80.6097,376.2102,90.7317,375.5857,100.8536,376.1933,110.9756,376.3997,121.0975,375.2866,131.2195,375.9223,141.3414,375.5735,151.4634,375.6165,161.5853,375.9318,171.7073,375.3086,181.8292,376.5536,191.9512,375.3697,202.0732,375.8022,212.1951,376.4319,222.3171,375.9142,232.439,376.0682,242.561,375.9681,252.6829,376.1785,262.8049,376.2391,272.9268,376.5857,283.0488,376.6711,293.1708,376.6793,303.2927,376.2546,313.4147,376.4636,323.5366,376.7022,333.6586,375.2788,343.7805,376.6785,353.9025,375.7035,364.0244,376.5338,374.1464,375.505,384.2683,375.9315,394.3903,376,394.4849,376.2284,395.4447,376.4243,396.5251,376.9111,397.6155,377.4223,398.686,377.8855,399.6936,378.1967,399.6924,378.1962,400.2214,379.294,400.396,380.245,401.0992,381.415,401.6198,382.5093,401.8903,383.5,402.0385,383.5,402.0946,391.8333,401.7293,400.1667,401.6729,408.5,401.6832,416.8333,401.8903,425.1667,401.8722,425.1592,401.3904,426.2023,401.2215,427.3749,400.5185,428.3264,400.0273,429.3655,399.6936,430.47,399.7227,430.5403,398.5479,430.7039,397.5061,431.1888,396.5944,431.9878,395.5065,432.3615,394.3903,432.6667,394.3903,433.4012,384.2683,432.3449,374.1464,432.9859,364.0244,433.2571,353.9025,432.1943,343.7805,432.5708,333.6586,432.7927,323.5366,433.3184,313.4147,432.6625,303.2927,433.1292,293.1708,432.1129,283.0488,431.9894,272.9268,433.1703,262.8049,431.9497,252.6829,433.1756,242.561,432.8733,232.439,432.3987,222.3171,432.3129,212.1951,433.1254,202.0732,432.3673,191.9512,433.2585,181.8292,432.1139,171.7073,433.2841,161.5853,433.151,151.4634,432.9116,141.3414,432.7139,131.2195,433.3933,121.0975,433.2802,110.9756,432.8359,100.8536,432.9349,90.7317,432.5364,80.6097,432.6667,80.7011,432.8873,79.5688,432.275,78.5104,431.8411,77.3501,431.1613,76.3154,430.7845,75.3064,430.47,75.4698,430.5377,74.9994,429.4641,74.4145,428.3432,73.8892,427.2469,73.4816,426.1994,73.1097,425.1667,72.881,425.1667,73.2479,416.8333,73.3562,408.5,73.2852,400.1667,73.3413,391.8333,73.1097,383.5,73.0676,383.4826,73.5759,382.4505,73.869,381.3292,74.5152,380.3543,74.9431,379.2888,75.3064,378.1967,75.3769,378.3668,76.3378,377.6866,77.4106,377.2766,78.5449,377.0152,79.6214,376.6141,80.6097,376" style="stroke:#000000;stroke-width:1;"/><path d="M85.7764,381 L85.7764,381 L85.8424,381.0661 L84.3128,382.2031 L83.1704,383.7274 L81.902,385.1256 L80.2188,386.1091 L79.1097,387.6667 L79.1097,387.6667 L79.0853,387.6422 L80.309,388.866 L81.6558,390.2128 L83.0883,391.6452 L84.2258,392.7827 L85.7764,394.3333 L85.7764,394.3333 L85.9504,394.5073 L86.9116,392.8019 L88.3809,391.6045 L89.9121,390.4691 L91.0827,388.973 L92.443,387.6667 L92.443,387.6667 L92.4645,387.6881 L91.0997,386.3233 L89.8325,385.0561 L88.5182,383.7418 L87.2938,382.5174 L85.7764,381 M89.1097,383.9667 L89.5315,384.3885 L89.7766,384.6336 L89.7497,384.6067 L90.1211,384.978 L90.5111,385.368 L90.3097,385.1667 L89.8564,384.7134 L89.6628,386.6665 L87.9767,387.127 L87.4252,388.7222 L85.7052,389.1489 L84.943,390.5333 L84.9,390.4903 L84.8358,390.4261 L83.7657,389.356 L83.2892,388.8795 L82.8625,388.4528 L82.0764,387.6667 L82.338,387.9283 L82.3139,387.4242 L82.7369,387.3672 L82.4366,386.5869 L83.2151,386.8854 L83.2764,386.4667 L83.6209,386.8112 L83.8891,387.0794 L84.3283,387.5186 L83.9727,387.163 L84.1998,387.3901 L84.943,388.1333 L84.5525,387.7428 L85.7394,387.263 L86.4862,386.3431 L87.8713,386.0616 L88.1666,384.6902 L89.1097,383.9667" fill="#008000"/><text fill="#000000" font-family="sans-serif" font-size="14" lengthAdjust="spacing" textLength="128.7891" x="93.443" y="396.0316">: permit execution</text><path d="M73.1097,404.3333 L73.1097,404.6136 L83.0727,403.7809 L93.0358,404.591 L102.9988,404.8662 L112.9619,403.3821 L122.9249,404.2297 L132.888,403.7647 L142.851,403.822 L152.8141,404.2425 L162.7771,403.4115 L172.7402,405.0715 L182.7032,403.493 L192.6663,404.0696 L202.6293,404.9093 L212.5924,404.219 L222.5554,404.4243 L232.5185,404.2907 L242.4815,404.5714 L252.4446,404.6522 L262.4076,405.1143 L272.3707,405.2281 L282.3337,405.239 L292.2968,404.6728 L302.2598,404.9514 L312.2229,405.2696 L322.1859,403.3718 L332.149,405.238 L342.112,403.938 L352.0751,405.0451 L362.0381,403.6733 L372.0012,404.242 L381.9642,405.3221 L391.9273,404.2684 L401.8903,404.3333" fill="none" style="stroke:#000000;stroke-width:1;"/><path d="M73.1097,406.3333 L73.1097,406.6136 L83.0727,405.7809 L93.0358,406.591 L102.9988,406.8662 L112.9619,405.3821 L122.9249,406.2297 L132.888,405.7647 L142.851,405.822 L152.8141,406.2425 L162.7771,405.4115 L172.7402,407.0715 L182.7032,405.493 L192.6663,406.0696 L202.6293,406.9093 L212.5924,406.219 L222.5554,406.4243 L232.5185,406.2907 L242.4815,406.5714 L252.4446,406.6522 L262.4076,407.1143 L272.3707,407.2281 L282.3337,407.239 L292.2968,406.6728 L302.2598,406.9514 L312.2229,407.2696 L322.1859,405.3718 L332.149,407.238 L342.112,405.938 L352.0751,407.0451 L362.0381,405.6733 L372.0012,406.242 L381.9642,407.3221 L391.9273,406.2684 L401.8903,406.3333" fill="none" style="stroke:#000000;stroke-width:1;"/><path d="M85.7764,409.3333 L85.7764,409.3333 L85.8424,409.3994 L84.3128,410.5365 L83.1704,412.0607 L81.902,413.4589 L80.2188,414.4425 L79.1097,416 L79.1097,416 L79.0853,415.9756 L80.309,417.1993 L81.6558,418.5461 L83.0883,419.9786 L84.2258,421.1161 L85.7764,422.6667 L85.7764,422.6667 L85.9504,422.8407 L86.9116,421.1353 L88.3809,419.9378 L89.9121,418.8024 L91.0827,417.3064 L92.443,416 L92.443,416 L92.4645,416.0214 L91.0997,414.6566 L89.8325,413.3894 L88.5182,412.0752 L87.2938,410.8507 L85.7764,409.3333 M83.2764,412.3 L83.6982,412.7218 L84.2033,413.2269 L84.4364,413.46 L85.0677,414.0914 L85.7177,414.7414 L85.7764,414.8 L85.3231,414.3467 L86.7028,414.7265 L86.59,413.6136 L87.6119,413.6355 L87.4652,412.4889 L88.2764,412.3 L88.2333,412.2569 L88.9825,413.0061 L88.7257,412.7494 L89.0626,413.0862 L89.4492,413.4728 L89.4764,413.5 L89.738,413.7616 L88.9739,413.9975 L88.6569,414.6805 L87.6166,414.6402 L87.6551,415.6787 L86.9764,416 L87.3209,416.3446 L87.7558,416.7794 L88.3617,417.3853 L88.1727,417.1964 L88.5664,417.5901 L89.4764,418.5 L89.0858,418.1094 L89.1994,418.703 L88.8728,418.8565 L89.1847,419.6483 L88.4066,419.3502 L88.2764,419.7 L88.0607,419.4844 L87.9198,419.3435 L86.8572,418.2809 L86.4501,417.8737 L86.6843,418.1079 L85.7764,417.2 L86.0502,417.4738 L85.738,418.1617 L84.5741,417.9977 L84.477,418.9006 L84.1475,419.5711 L83.2764,419.7 L82.9794,419.4031 L82.9761,419.3997 L82.8756,419.2992 L82.966,419.3897 L82.3137,418.7374 L82.0764,418.5 L82.3671,418.7907 L82.2283,417.6519 L82.6507,417.0743 L83.8929,417.3165 L83.6257,416.0494 L84.5764,416 L84.8963,416.3199 L84.2062,415.6299 L83.408,414.8316 L82.854,414.2776 L82.8647,414.2883 L82.0764,413.5 L81.8882,413.3119 L82.6884,413.632 L82.2089,412.6726 L83.1844,413.1681 L83.3408,412.8444 L83.2764,412.3" fill="#FF0000"/><text fill="#000000" font-family="sans-serif" font-size="14" lengthAdjust="spacing" textLength="303.4473" x="93.443" y="424.3649">: segregation of duties(SoD) across entities</text></g><?plantuml-src hPD1Rzim38Nl-XKi2dGRq635ZePdOCWEk_SOzC1AZ2t45WLIMfh--jBELhHOCWpjV37Cn_VfcQ0kic0_8Onuu5f09ogOq5rmBf4J39Z2Nc8fbA189VT1Qyv2gk1vofme5OYUazDTJ1a59rZ_5cxBOIGGyeRiHthHSez-rmlN5DOyiXWQavfa9kSsFr32tZuW2_-CWUGEK678RhCUkORNPM_bRvPF2ow9NuauUweMdaX0ULjcxD6cpYKk18KpyDOw6y05en1JeTv--W0JeLQXoNBfiVsUYz5cns2EGDkOw5yTVZvZ77b_rk0mGxlQN0g5wu0wKBWBl4-hpaw31bg_J6kMkrRZ8pLVRZfehtmKFzBgeMi_prLxBOtTUPn_4sxu0oUn7ygRUNC-u_L2b9wJwGlIefnY-O7yxbI-PrpDxuJv_mbp8_MKWZjZ_xkxWKmonGBqGBxEM-w-skDEpllyk1jGspdgZ_V4zZ4OY_JZBN__1EY5xLBR5iQvw2mi_Chy1000?></g></svg>