<svg xmlns="http://www.w3.org/2000/svg" xmlns:xlink="http://www.w3.org/1999/xlink" contentStyleType="text/css" data-diagram-type="DESCRIPTION" height="452px" preserveAspectRatio="none" style="width:482px;height:452px;" version="1.1" viewBox="0 0 482 452" width="482px" zoomAndPan="magnify"><defs/><g><!--entity hp--><g class="entity" data-entity="hp" data-source-line="6" data-uid="ent0002" id="entity_hp"><rect fill="#F1F1F1" height="36.2969" rx="2.5" ry="2.5" style="stroke:#181818;stroke-width:0.5;" width="151.2363" x="70" y="272"/><text fill="#000000" font-family="sans-serif" font-size="14" lengthAdjust="spacing" textLength="131.2363" x="80" y="294.9951">Hardware provider</text></g><!--entity cp--><g class="entity" data-entity="cp" data-source-line="7" data-uid="ent0003" id="entity_cp"><rect fill="#F1F1F1" height="36.2969" rx="2.5" ry="2.5" style="stroke:#181818;stroke-width:0.5;" width="123.0791" x="278" y="272"/><text fill="#000000" font-family="sans-serif" font-size="14" lengthAdjust="spacing" textLength="103.0791" x="288" y="294.9951">Cloud provider</text></g><!--entity ap--><g class="entity" data-entity="ap" data-source-line="8" data-uid="ent0004" id="entity_ap"><rect fill="#F1F1F1" height="36.2969" rx="2.5" ry="2.5" style="stroke:#181818;stroke-width:0.5;" width="160.4375" x="159.5" y="74"/><text fill="#000000" font-family="sans-serif" font-size="14" lengthAdjust="spacing" textLength="140.4375" x="169.5" y="96.9951">Attestation provider</text></g><!--entity cs--><g class="entity" data-entity="cs" data-source-line="9" data-uid="ent0005" id="entity_cs"><rect fill="#F1F1F1" height="36.2969" rx="2.5" ry="2.5" style="stroke:#181818;stroke-width:0.5;" width="153.1299" x="163" y="173"/><text fill="#000000" font-family="sans-serif" font-size="14" lengthAdjust="spacing" textLength="133.1299" x="173" y="195.9951">Customer software</text></g><g class="entity" data-entity="GMN6" data-source-line="11" data-uid="ent0007" id="entity_GMN6"><path d="M126,12 L126,37.1328 A0,0 0 0 0 126,37.1328 L235.5,37.1328 L239.5,73.7237 L243.5,37.1328 L352.7656,37.1328 A0,0 0 0 0 352.7656,37.1328 L352.7656,22 L342.7656,12 L126,12 A0,0 0 0 0 126,12" fill="#FEFFDD" style="stroke:#181818;stroke-width:0.5;"/><path d="M342.7656,12 L342.7656,22 L352.7656,22 L342.7656,12" fill="#FEFFDD" style="stroke:#181818;stroke-width:0.5;"/><text fill="#000000" font-family="sans-serif" font-size="13" lengthAdjust="spacing" textLength="205.7656" x="132" y="29.0669">attests integrity measurements</text></g><g class="entity" data-entity="GMN9" data-source-line="12" data-uid="ent0010" id="entity_GMN9"><path d="M6,345 L6,370.1328 A0,0 0 0 0 6,370.1328 L235.4126,370.1328 A0,0 0 0 0 235.4126,370.1328 L235.4126,355 L225.4126,345 L128.9767,345 L138.9315,308.2094 L120.9767,345 L6,345 A0,0 0 0 0 6,345" fill="#FEFFDD" style="stroke:#181818;stroke-width:0.5;"/><path d="M225.4126,345 L225.4126,355 L235.4126,355 L225.4126,345" fill="#FEFFDD" style="stroke:#181818;stroke-width:0.5;"/><text fill="#000000" font-family="sans-serif" font-size="13" lengthAdjust="spacing" textLength="208.4126" x="12" y="362.0669">defines integrity measurements</text></g><g class="entity" data-entity="GMN12" data-source-line="13" data-uid="ent0013" id="entity_GMN12"><path d="M253,345 L253,370.1328 A0,0 0 0 0 253,370.1328 L475.5127,370.1328 A0,0 0 0 0 475.5127,370.1328 L475.5127,355 L465.5127,345 L364.0233,345 L346.0685,308.2094 L356.0233,345 L253,345 A0,0 0 0 0 253,345" fill="#FEFFDD" style="stroke:#181818;stroke-width:0.5;"/><path d="M465.5127,345 L465.5127,355 L475.5127,355 L465.5127,345" fill="#FEFFDD" style="stroke:#181818;stroke-width:0.5;"/><text fill="#000000" font-family="sans-serif" font-size="13" lengthAdjust="spacing" textLength="201.5127" x="259" y="362.0669">allows integrity measurements</text></g><g class="link" data-entity-1="ap" data-entity-2="hp" data-uid="lnk15" id="link_ap_hp"><polygon fill="#FF0000" points="199.4571,110.01,189.6258,110.5979,195.0174,112.3098,193.3055,117.7014,199.4571,110.01" style="stroke:#FF0000;stroke-width:1;"/><polygon fill="#FF0000" points="136.9523,271.8395,136.9622,261.9906,134.9262,267.2684,129.6484,265.2324,136.9523,271.8395" style="stroke:#FF0000;stroke-width:1;"/><path d="M194.1295,112.7697 C168.7489,125.9171 143.3298,144.0319 128.5,173 C112.083,205.0686 124.063,242.76 134.5209,266.3542" fill="none" style="stroke:#FF0000;stroke-width:1;stroke-dasharray:7,7;"/><text fill="#FF0000" font-family="sans-serif" font-size="20" lengthAdjust="spacing" textLength="6.3574" x="130.5" y="198.0645">&#160;</text><path d="M144.5241,184.4479 C140.8408,184.4479 137.8574,187.4312 137.8574,191.1146 C137.8574,194.7979 140.8408,197.7813 144.5241,197.7813 C148.2074,197.7813 151.1908,194.7979 151.1908,191.1146 C151.1908,187.4312 148.2074,184.4479 144.5241,184.4479 M142.0241,187.4146 L144.5241,189.9146 L147.0241,187.4146 L148.2241,188.6146 L145.7241,191.1146 L148.2241,193.6146 L147.0241,194.8146 L144.5241,192.3146 L142.0241,194.8146 L140.8241,193.6146 L143.3241,191.1146 L140.8241,188.6146 L142.0241,187.4146" fill="#FF0000"/></g><g class="link" data-entity-1="ap" data-entity-2="cp" data-uid="lnk16" id="link_ap_cp"><polygon fill="#FF0000" points="265.641,110.0231,270.5607,118.5552,269.6826,112.9669,275.2708,112.0888,265.641,110.0231" style="stroke:#FF0000;stroke-width:1;"/><polygon fill="#FF0000" points="340.7663,271.8228,345.141,262.9989,340.9765,266.8273,337.1481,262.6627,340.7663,271.8228" style="stroke:#FF0000;stroke-width:1;"/><path d="M270.4909,113.5557 C290.1393,127.8677 311.044,146.6501 324.5,173 C340.8466,205.0103 342.0117,242.2146 341.0185,265.8281" fill="none" style="stroke:#FF0000;stroke-width:1;stroke-dasharray:7,7;"/><text fill="#FF0000" font-family="sans-serif" font-size="20" lengthAdjust="spacing" textLength="6.3574" x="338.5" y="198.0645">&#160;</text><path d="M352.5241,184.4479 C348.8408,184.4479 345.8574,187.4312 345.8574,191.1146 C345.8574,194.7979 348.8408,197.7813 352.5241,197.7813 C356.2074,197.7813 359.1908,194.7979 359.1908,191.1146 C359.1908,187.4312 356.2074,184.4479 352.5241,184.4479 M350.0241,187.4146 L352.5241,189.9146 L355.0241,187.4146 L356.2241,188.6146 L353.7241,191.1146 L356.2241,193.6146 L355.0241,194.8146 L352.5241,192.3146 L350.0241,194.8146 L348.8241,193.6146 L351.3241,191.1146 L348.8241,188.6146 L350.0241,187.4146" fill="#FF0000"/></g><g class="link" data-entity-1="hp" data-entity-2="cp" data-uid="lnk17" id="link_hp_cp"><polygon fill="#FF0000" points="221.061,290,230.061,294,226.061,290,230.061,286,221.061,290" style="stroke:#FF0000;stroke-width:1;"/><polygon fill="#FF0000" points="277.9235,290,268.9235,286,272.9235,290,268.9235,294,277.9235,290" style="stroke:#FF0000;stroke-width:1;"/><path d="M227.061,290 C245.8921,290 253.858,290 271.9235,290" fill="none" style="stroke:#FF0000;stroke-width:1;stroke-dasharray:7,7;"/><text fill="#FF0000" font-family="sans-serif" font-size="20" lengthAdjust="spacing" textLength="6.3574" x="239" y="280.5645">&#160;</text><path d="M253.0241,266.9479 C249.3408,266.9479 246.3574,269.9313 246.3574,273.6146 C246.3574,277.2979 249.3408,280.2813 253.0241,280.2813 C256.7074,280.2813 259.6908,277.2979 259.6908,273.6146 C259.6908,269.9313 256.7074,266.9479 253.0241,266.9479 M250.5241,269.9146 L253.0241,272.4146 L255.5241,269.9146 L256.7241,271.1146 L254.2241,273.6146 L256.7241,276.1146 L255.5241,277.3146 L253.0241,274.8146 L250.5241,277.3146 L249.3241,276.1146 L251.8241,273.6146 L249.3241,271.1146 L250.5241,269.9146" fill="#FF0000"/></g><g class="link" data-entity-1="ap" data-entity-2="cs" data-uid="lnk18" id="link_ap_cs"><polygon fill="#008000" points="239.5,172.8085,243.5,163.8085,239.5,167.8085,235.5,163.8085,239.5,172.8085" style="stroke:#008000;stroke-width:1;"/><path d="M239.5,110.3417 C239.5,127.9975 239.5,149.207 239.5,166.8085" fill="none" style="stroke:#008000;stroke-width:1;"/><text fill="#008000" font-family="sans-serif" font-size="20" lengthAdjust="spacing" textLength="6.3574" x="241.5" y="148.5645">&#160;</text><path d="M255.5241,134.9479 C251.8408,134.9479 248.8574,137.9312 248.8574,141.6146 C248.8574,145.2979 251.8408,148.2813 255.5241,148.2813 C259.2074,148.2813 262.1908,145.2979 262.1908,141.6146 C262.1908,137.9312 259.2074,134.9479 255.5241,134.9479 M258.8574,137.9146 L260.0574,139.1146 L254.6908,144.4813 L251.8241,141.6146 L253.0241,140.4146 L254.6908,142.0812 L258.8574,137.9146" fill="#008000"/></g><g class="link" data-entity-1="cs" data-entity-2="hp" data-uid="lnk20" id="link_cs_hp"><polygon fill="#008000" points="222.6947,209.3417,213.559,213.0211,219.2151,212.9323,219.304,218.5884,222.6947,209.3417" style="stroke:#008000;stroke-width:1;"/><path d="M218.5192,213.6504 C201.4094,231.3063 179.2169,254.207 162.1598,271.8085" fill="none" style="stroke:#008000;stroke-width:1;"/><text fill="#008000" font-family="sans-serif" font-size="20" lengthAdjust="spacing" textLength="6.3574" x="206.5" y="247.5645">&#160;</text><path d="M220.5241,233.9479 C216.8408,233.9479 213.8574,236.9312 213.8574,240.6146 C213.8574,244.2979 216.8408,247.2813 220.5241,247.2813 C224.2074,247.2813 227.1908,244.2979 227.1908,240.6146 C227.1908,236.9312 224.2074,233.9479 220.5241,233.9479 M223.8574,236.9146 L225.0574,238.1146 L219.6908,243.4813 L216.8241,240.6146 L218.0241,239.4146 L219.6908,241.0812 L223.8574,236.9146" fill="#008000"/></g><g class="link" data-entity-1="cs" data-entity-2="cp" data-uid="lnk22" id="link_cs_cp"><polygon fill="#008000" points="257.378,209.3417,261.0531,218.4791,260.967,212.8229,266.6232,212.7368,257.378,209.3417" style="stroke:#008000;stroke-width:1;"/><path d="M261.6847,213.5192 C279.8867,231.1751 303.6309,254.207 321.7768,271.8085" fill="none" style="stroke:#008000;stroke-width:1;"/><text fill="#008000" font-family="sans-serif" font-size="20" lengthAdjust="spacing" textLength="6.3574" x="303.5" y="247.5645">&#160;</text><path d="M317.5241,233.9479 C313.8408,233.9479 310.8574,236.9312 310.8574,240.6146 C310.8574,244.2979 313.8408,247.2813 317.5241,247.2813 C321.2074,247.2813 324.1908,244.2979 324.1908,240.6146 C324.1908,236.9312 321.2074,233.9479 317.5241,233.9479 M320.8574,236.9146 L322.0574,238.1146 L316.6908,243.4813 L313.8241,240.6146 L315.0241,239.4146 L316.6908,241.0812 L320.8574,236.9146" fill="#008000"/></g><g class="legend" data-source-line="23"><rect fill="none" height="56.6667" rx="7.5" ry="7.5" style="stroke:#000000;stroke-width:1;" width="328.7806" x="73.1097" y="376"/><path d="M85.7764,381 C82.093,381 79.1097,383.9833 79.1097,387.6667 C79.1097,391.35 82.093,394.3333 85.7764,394.3333 C89.4597,394.3333 92.443,391.35 92.443,387.6667 C92.443,383.9833 89.4597,381 85.7764,381 M89.1097,383.9667 L90.3097,385.1667 L84.943,390.5333 L82.0764,387.6667 L83.2764,386.4667 L84.943,388.1333 L89.1097,383.9667" fill="#008000"/><text fill="#000000" font-family="sans-serif" font-size="14" lengthAdjust="spacing" textLength="128.7891" x="93.443" y="396.0316">: permit execution</text><line style="stroke:#000000;stroke-width:1;" x1="73.1097" x2="401.8903" y1="404.3333" y2="404.3333"/><line style="stroke:#000000;stroke-width:1;" x1="73.1097" x2="401.8903" y1="406.3333" y2="406.3333"/><path d="M85.7764,409.3333 C82.093,409.3333 79.1097,412.3167 79.1097,416 C79.1097,419.6833 82.093,422.6667 85.7764,422.6667 C89.4597,422.6667 92.443,419.6833 92.443,416 C92.443,412.3167 89.4597,409.3333 85.7764,409.3333 M83.2764,412.3 L85.7764,414.8 L88.2764,412.3 L89.4764,413.5 L86.9764,416 L89.4764,418.5 L88.2764,419.7 L85.7764,417.2 L83.2764,419.7 L82.0764,418.5 L84.5764,416 L82.0764,413.5 L83.2764,412.3" fill="#FF0000"/><text fill="#000000" font-family="sans-serif" font-size="14" lengthAdjust="spacing" textLength="303.4473" x="93.443" y="424.3649">: segregation of duties(SoD) across entities</text></g><!--SRC=[hPD1Qnmn38Nl_XKgXRI5BYaz3jE1iZtqdkEIWs9hPynwB2Dvkjdy-iYxRKZeRYbfvs96J-_pGyXlYk0u8oGyy591PwgOqRtJfHGXLV0y5ywKAqJFsUakveA2Cwn_2JVra0Y4l3d7HCzQxj3lHk4bXpKd5gY2MKqoatERxoXXRpzGX7_4G78Bg30LjradNiBBihVorrf9AzR8-QM8pRDevPa4bBUrOKysTIvp9QXSWBVMsG4UCGenLnebrWFCXBe8pPPBJ-rtN8tM79Cv0crZfhzr-7P7Iho_Q71Oe5zjtWg5Zm5red0RU9zNWzq67VJ-EAqc3xt61-e-VngWl_9HVABL_T1VjweTnyRXCiw_2ZVzXfCuJlNLl9RFUACGvQTa-enqLCwn_4H-ToxV4suf_mZp_nFc4esKWxjW_xExWq8onmfqJtvfM-w-sEVEpllok3jGspaQJ-_4zZ4OY_Jz3N_x0EY5xL7R5iPMT1OMVcP-1000]--></g></svg>