<?plantuml 1.2026.1?><svg xmlns="http://www.w3.org/2000/svg" xmlns:xlink="http://www.w3.org/1999/xlink" contentStyleType="text/css" data-diagram-type="DESCRIPTION" height="341px" preserveAspectRatio="none" style="width:1454px;height:341px;" version="1.1" viewBox="0 0 1454 341" width="1454px" zoomAndPan="magnify"><defs/><g><!--cluster VM_TEE--><g class="cluster" data-qualified-name="VM_TEE" data-source-line="11" id="ent0004"><polygon fill="none" points="573.5,7,573.5,7.2102,583.4315,6.5857,593.363,7.1933,603.2945,7.3997,613.226,6.2866,623.1575,6.9223,633.089,6.5735,643.0205,6.6165,652.9521,6.9318,662.8836,6.3086,672.8151,7.5536,682.7466,6.3697,692.6781,6.8022,702.6096,7.4319,712.5411,6.9142,722.4726,7.0682,732.4041,6.9681,742.3356,7.1785,752.2671,7.2391,762.1986,7.5857,772.1301,7.6711,782.0616,7.6793,791.9932,7.2546,801.9247,7.4636,811.8562,7.7022,821.7877,6.2788,831.7192,7.6785,841.6507,6.7035,851.5822,7.5338,861.5137,6.505,871.4452,6.9315,881.3767,7.7416,891.3082,6.9513,901.2397,7.1053,911.1712,7.3386,921.1027,7.4162,931.0342,6.9961,940.9658,7.2872,950.8973,6.4276,960.8288,7.2844,970.7603,7.5482,980.6918,7.4445,990.6233,7.613,1000.5548,6.5169,1010.4863,6.3478,1020.4178,6.3786,1030.3493,6.9411,1040.2808,6.8035,1050.2123,7.6814,1060.1438,6.8253,1070.0753,6.6569,1080.0068,7.2283,1089.9384,6.3332,1099.8699,6.4809,1109.8014,7.649,1119.7329,7.4357,1129.6644,7.7345,1139.5959,6.6782,1149.5274,7.3192,1159.4589,7.5904,1169.3904,6.5276,1179.3219,6.9041,1189.2534,7.126,1199.1849,7.6518,1209.1164,6.9958,1219.0479,7.4626,1228.9795,6.4462,1238.911,6.3227,1248.8425,7.5036,1258.774,6.2831,1268.7055,7.509,1278.637,7.2066,1288.5685,6.7321,1298.5,7,1298.4549,6.8911,1298.9121,7.2877,1299.1689,7.2007,1299.6362,7.6216,1299.8437,7.4156,1300.2678,7.7322,1300.4579,7.811,1300.5634,8.1476,1300.6361,8.4706,1300.7216,8.7989,1301.0773,9.2391,1301,9.5,1301.6136,9.5,1301.1693,19.5938,1301.2682,29.6875,1300.8697,39.7813,1301.7165,49.875,1301.1549,59.9688,1301.1726,70.0625,1300.3916,80.1563,1300.5948,90.25,1301.5307,100.3438,1301.4298,110.4375,1300.9571,120.5313,1300.6778,130.625,1300.7811,140.7188,1300.3138,150.8125,1301.4147,160.9063,1301.7396,171,1301.5264,181.0938,1301.6949,191.1875,1300.8633,201.2813,1301.0872,211.375,1300.6124,221.4688,1301.284,231.5625,1301.2468,241.6563,1301.5524,251.75,1300.7703,261.8438,1300.8656,271.9375,1301.4435,282.0313,1301.5673,292.125,1300.4875,302.2188,1300.8061,312.3125,1301.1493,322.4063,1301,332.5,1300.8119,332.4221,1300.9624,332.8986,1300.7866,333.24,1300.5296,333.5478,1300.458,333.9324,1300.2678,334.2678,1300.3607,334.4922,1299.8743,334.3179,1299.6008,334.6577,1299.2435,334.7951,1298.8683,334.8892,1298.5,335,1298.5,335.1409,1288.5685,335.1135,1278.637,334.3758,1268.7055,334.5992,1258.774,334.5385,1248.8425,335.0638,1238.911,335.0881,1228.9795,335.1617,1219.0479,334.709,1209.1164,334.9325,1199.1849,334.8798,1189.2534,335.5769,1179.3219,335.4266,1169.3904,334.5145,1159.4589,334.9271,1149.5274,334.4228,1139.5959,335.2884,1129.6644,335.6085,1119.7329,335.5446,1109.8014,334.5644,1099.8699,335.464,1089.9384,334.2572,1080.0068,335.2002,1070.0753,334.7007,1060.1438,335.0967,1050.2123,335.2403,1040.2808,335.4721,1030.3493,334.2801,1020.4178,335.4755,1010.4863,335.1782,1000.5548,335.3553,990.6233,335.7478,980.6918,335.0055,970.7603,335.1753,960.8288,335.2134,950.8973,335.1972,940.9658,334.9992,931.0342,335.7107,921.1027,334.3903,911.1712,335.5653,901.2397,334.376,891.3082,334.4597,881.3767,335.04,871.4452,335.0283,861.5137,334.5072,851.5822,335.4137,841.6507,335.1089,831.7192,335.7267,821.7877,335.6671,811.8562,334.5517,801.9247,334.6021,791.9932,334.8708,782.0616,335.3555,772.1301,335.403,762.1986,335.3012,752.2671,334.658,742.3356,335.6364,732.4041,335.6338,722.4726,334.9527,712.5411,334.7609,702.6096,334.5986,692.6781,334.7854,682.7466,335.1374,672.8151,334.9316,662.8836,334.5822,652.9521,335.4874,643.0205,334.5411,633.089,335.5024,623.1575,335.4272,613.226,335.3719,603.2945,335.6925,593.363,334.7541,583.4315,334.6994,573.5,335,573.5662,335.1598,573.0703,334.6697,572.763,334.635,572.4541,334.5962,572.0945,334.4354,571.7322,334.2678,571.6218,334.222,571.5726,333.9087,571.6686,333.6556,571.4926,333.2898,570.9628,332.7775,571,332.5,571.0785,332.5,570.4861,322.4063,570.9737,312.3125,571.293,302.2188,571.4199,292.125,570.3353,282.0313,571.4005,271.9375,571.0084,261.8438,570.4447,251.75,570.5289,241.6563,571.3266,231.5625,571.2499,221.4688,570.9836,211.375,570.3279,201.2813,571.6581,191.1875,570.6882,181.0938,570.4719,171,570.9327,160.9063,571.5897,150.8125,571.6154,140.7188,571.0351,130.625,570.8488,120.5313,571.1698,110.4375,571.1862,100.3438,570.4922,90.25,571.414,80.1563,571.5588,70.0625,570.7842,59.9688,570.5708,49.875,571.6746,39.7813,571.021,29.6875,570.9998,19.5938,571,9.5,571.0921,9.5381,570.9476,9.0641,571.4561,8.8605,571.4346,8.4374,571.7918,8.1711,571.7322,7.7322,571.7047,7.6658,572.138,7.7117,572.3827,7.3026,572.8241,7.3683,573.1948,7.2633,573.5,7" style="stroke:#181818;stroke-width:1;"/><path d="M641.4434,7 L641.6302,7 L641.0751,8.8594 L641.6152,10.7188 L641.7986,12.5781 L640.8092,14.4375 L641.4434,16.2969 L641.3945,16.248 L639.1753,18.0288 L637.2023,20.0558 L635.4005,22.254 L633.0088,23.8623 L631.4434,26.2969 L631.4434,27.7733 L621.3695,24.6161 L611.2956,25.7695 L601.2217,27.4487 L591.1478,26.0681 L581.0739,26.4788 L571,26.2969" fill="none" style="stroke:#181818;stroke-width:1;"/><text fill="#000000" font-family="sans-serif" font-size="14" font-weight="bold" lengthAdjust="spacing" textLength="60.4434" x="574" y="20.9951">VM_TEE</text></g><!--cluster kata_containers_agent--><g class="cluster" data-qualified-name="VM_TEE.kata_containers_agent" data-source-line="13" id="ent0005"><polygon fill="none" points="632.5,182,632.5,182.2102,642.3846,181.5857,652.2692,182.1933,662.1538,182.3997,672.0385,181.2866,681.9231,181.9223,691.8077,181.5735,701.6923,181.6165,711.5769,181.9318,721.4615,181.3086,731.3462,182.5536,741.2308,181.3697,751.1154,181.8022,761,182.4319,770.8846,181.9142,780.7692,182.0682,790.6538,181.9681,800.5385,182.1785,810.4231,182.2391,820.3077,182.5857,830.1923,182.6711,840.0769,182.6793,849.9615,182.2546,859.8462,182.4636,869.7308,182.7022,879.6154,181.2788,889.5,182,889.5866,182.209,889.8157,182.0551,890.2752,182.4573,890.4975,182.2869,890.9055,182.5647,891.2678,182.7322,891.4962,182.8268,891.3992,183.0796,891.5931,183.4528,891.8114,183.8361,891.9817,184.1995,892,184.5,891.9961,184.5,892.2872,194.3182,891.4276,204.1364,892.2844,213.9545,892.5482,223.7727,892.4445,233.5909,892.613,243.4091,891.5169,253.2273,891.3478,263.0455,891.3786,272.8636,891.9411,282.6818,892,292.5,891.9395,292.4749,892.0634,292.9405,891.6533,293.1848,891.455,293.5169,891.4845,293.9433,891.2678,294.2678,891.1827,294.0624,890.848,294.2543,890.6434,294.7605,890.2627,294.8413,889.9472,295.0797,889.5,295,889.5,294.6782,879.6154,295.3192,869.7308,295.5904,859.8462,294.5276,849.9615,294.9041,840.0769,295.126,830.1923,295.6518,820.3077,294.9958,810.4231,295.4626,800.5385,294.4462,790.6538,294.3227,780.7692,295.5036,770.8846,294.2831,761,295.509,751.1154,295.2066,741.2308,294.7321,731.3462,294.6462,721.4615,295.4588,711.5769,294.7007,701.6923,295.5919,691.8077,294.4473,681.9231,295.6174,672.0385,295.4843,662.1538,295.245,652.2692,295.0472,642.3846,295.7266,632.5,295,632.5783,295.189,632.168,294.9057,631.8271,294.7897,631.4227,294.5205,631.1772,294.6349,630.7322,294.2678,630.7799,294.2875,630.6389,293.9362,630.252,293.4831,630.1681,293.1554,630.3099,292.9213,630,292.5,630.4298,292.5,629.9571,282.6818,629.6778,272.8636,629.7811,263.0455,629.3138,253.2273,630.4147,243.4091,630.7396,233.5909,630.5264,223.7727,630.6949,213.9545,629.8633,204.1364,630.0872,194.3182,630,184.5,629.8806,184.4506,630.2339,184.1827,630.3689,183.8244,630.6095,183.5098,630.5151,183.0565,630.7322,182.7322,630.7151,182.6908,631.1424,182.7224,631.5117,182.6141,631.7275,182.1351,632.1217,182.0867,632.5,182" style="stroke:#181818;stroke-width:1;"/><path d="M818.042,182 L818.2288,182 L817.6737,183.8594 L818.2138,185.7188 L818.3973,187.5781 L817.4079,189.4375 L818.042,191.2969 L817.9931,191.248 L815.7739,193.0288 L813.8009,195.0558 L811.9992,197.254 L809.6074,198.8623 L808.042,201.2969 L808.042,202.7733 L798.1508,199.6161 L788.2595,200.7695 L778.3683,202.4487 L768.4771,201.0681 L758.5859,201.4788 L748.6947,201.2117 L738.8034,201.7729 L728.9122,201.9346 L719.021,202.8587 L709.1298,203.0864 L699.2386,203.1082 L689.3473,201.9759 L679.4561,202.5331 L669.5649,203.1695 L659.6737,199.3737 L649.7824,203.1062 L639.8912,200.5062 L630,201.2969" fill="none" style="stroke:#181818;stroke-width:1;"/><text fill="#000000" font-family="sans-serif" font-size="14" font-weight="bold" lengthAdjust="spacing" textLength="178.042" x="633" y="195.9951">kata_containers_agent</text></g><!--entity coco_att_agent--><g class="entity" data-qualified-name="VM_TEE.coco_att_agent" data-source-line="18" id="ent0007"><polygon fill="#F1F1F1" points="893.5,50,893.5,50.2102,903.531,49.5857,913.562,50.1933,923.5931,50.3997,933.6241,49.2866,943.6551,49.9223,953.6861,49.5735,963.7171,49.6165,973.7481,49.9318,983.7792,49.3086,993.8102,50.5536,1003.8412,49.3697,1013.8722,49.8022,1023.9032,50.4319,1033.9343,49.9142,1043.9653,50.0682,1053.9963,49.9681,1064.0273,50.1785,1074.0583,50.2391,1084.0894,50.5857,1094.1204,50.6711,1104.1514,50.6793,1114.1824,50.2546,1124.2134,50.4636,1134.2444,50.7022,1144.2755,49.2788,1154.3065,50.6785,1164.3375,49.7035,1174.3685,50.5338,1184.3995,49.505,1194.4306,49.9315,1204.4616,50.7416,1214.4926,49.9513,1224.5236,50.1053,1234.5546,50.3386,1244.5857,50.4162,1254.6167,49.9961,1264.6477,50.2872,1274.6787,50,1274.6057,49.8237,1275.0685,50.234,1275.4557,50.4617,1275.7961,50.5762,1276.1711,50.7746,1276.4465,50.7322,1276.2977,50.6706,1276.3921,51.0026,1276.548,51.3601,1276.8677,51.7854,1276.9717,52.1214,1277.1787,52.5,1277.4058,52.5,1277.1205,60.7594,1277.0644,69.0188,1277.2548,77.2781,1276.9564,85.5375,1277.1787,93.7969,1277.0188,93.7307,1277.2321,94.2332,1277.02,94.5596,1276.9656,94.9512,1276.4938,95.17,1276.4465,95.5646,1276.4872,95.6629,1276.1682,95.8929,1275.6791,95.7121,1275.3736,95.9745,1275.0483,96.1892,1274.6787,96.2969,1274.6787,96.9486,1264.6477,96.2927,1254.6167,96.7594,1244.5857,95.7431,1234.5546,95.6196,1224.5236,96.8005,1214.4926,95.5799,1204.4616,96.8058,1194.4306,96.5035,1184.3995,96.029,1174.3685,95.9431,1164.3375,96.7556,1154.3065,95.9975,1144.2755,96.8887,1134.2444,95.7441,1124.2134,96.9143,1114.1824,96.7812,1104.1514,96.5418,1094.1204,96.3441,1084.0894,97.0235,1074.0583,96.9105,1064.0273,96.4661,1053.9963,96.5651,1043.9653,96.1666,1033.9343,97.0133,1023.9032,96.4517,1013.8722,96.4694,1003.8412,95.6885,993.8102,95.8917,983.7792,96.8276,973.7481,96.7266,963.7171,96.2539,953.6861,95.9747,943.6551,96.0779,933.6241,95.6107,923.5931,96.7116,913.562,97.0364,903.531,96.8233,893.5,96.2969,893.5886,96.5109,893.129,96.1083,892.804,96.0308,892.3899,95.7382,892.122,95.7986,891.7322,95.5646,891.8082,95.5961,891.7559,95.2816,891.3686,94.8282,891.2515,94.4868,891.283,94.207,891,93.7969,891.1891,93.7969,890.8292,85.5375,890.9354,77.2781,891.0498,69.0188,890.7964,60.7594,891,52.5,891.1088,52.5451,891.2259,52.1794,891.2619,51.78,891.4831,51.4575,891.8102,51.1787,891.7322,50.7322,891.6923,50.6359,892.126,50.6828,892.4758,50.5273,892.8077,50.3285,893.1644,50.1898,893.5,50" style="stroke:#181818;stroke-width:0.5;"/><polygon fill="#F1F1F1" points="1257.1787,55,1257.1787,55.0701,1260.1787,54.8619,1263.1787,55.0644,1266.1787,55.1332,1269.1787,54.7622,1272.1787,55,1272.1528,55,1272.0365,57,1272.0509,59,1272.156,61,1271.9483,63,1272.1787,65,1272.1787,65.1845,1269.1787,64.7899,1266.1787,64.9341,1263.1787,65.144,1260.1787,64.9714,1257.1787,65,1257.2015,65,1257.1681,63,1257.2382,61,1257.2584,59,1257.3739,57,1257.1787,55" style="stroke:#181818;stroke-width:0.5;"/><polygon fill="#F1F1F1" points="1255.1787,57,1255.1787,57.0701,1255.9787,56.8619,1256.7787,57.0644,1257.5787,57.1332,1258.3787,56.7622,1259.1787,57,1259.1528,57,1259.0365,57.4,1259.0509,57.8,1259.156,58.2,1258.9483,58.6,1259.1787,59,1259.1787,59.1845,1258.3787,58.7899,1257.5787,58.9341,1256.7787,59.144,1255.9787,58.9714,1255.1787,59,1255.2015,59,1255.1681,58.6,1255.2382,58.2,1255.2584,57.8,1255.3739,57.4,1255.1787,57" style="stroke:#181818;stroke-width:0.5;"/><polygon fill="#F1F1F1" points="1255.1787,61,1255.1787,61.0701,1255.9787,60.8619,1256.7787,61.0644,1257.5787,61.1332,1258.3787,60.7622,1259.1787,61,1259.1528,61,1259.0365,61.4,1259.0509,61.8,1259.156,62.2,1258.9483,62.6,1259.1787,63,1259.1787,63.1845,1258.3787,62.7899,1257.5787,62.9341,1256.7787,63.144,1255.9787,62.9714,1255.1787,63,1255.2015,63,1255.1681,62.6,1255.2382,62.2,1255.2584,61.8,1255.3739,61.4,1255.1787,61" style="stroke:#181818;stroke-width:0.5;"/><text fill="#000000" font-family="sans-serif" font-size="14" lengthAdjust="spacing" textLength="346.1787" x="906" y="82.9951">Confidential Containers Attestation Agent (CCAA)</text></g><!--entity coco_CDH--><g class="entity" data-qualified-name="VM_TEE.coco_CDH" data-source-line="19" id="ent0008"><polygon fill="#F1F1F1" points="617,50,617,50.2102,626.8469,49.5857,636.6938,50.1933,646.5406,50.3997,656.3875,49.2866,666.2344,49.9223,676.0813,49.5735,685.9282,49.6165,695.7751,49.9318,705.6219,49.3086,715.4688,50.5536,725.3157,49.3697,735.1626,49.8022,745.0095,50.4319,754.8564,49.9142,764.7032,50.0682,774.5501,49.9681,784.397,50.1785,794.2439,50.2391,804.0908,50.5857,813.9377,50.6711,823.7845,50.6793,833.6314,50.2546,843.4783,50.4636,853.3252,50,853.4148,50.2163,853.5868,49.9244,854.1189,50.5018,854.348,50.348,854.8075,50.7502,855.093,50.7322,854.9405,50.6691,855.2183,51.077,855.6142,51.5339,855.5173,51.7867,855.7112,52.1599,855.8252,52.5,855.9381,52.5,855.9639,60.7594,855.8239,69.0188,855.9209,77.2781,855.6344,85.5375,855.8252,93.7969,855.9128,93.8332,855.8476,94.2204,855.6692,94.5607,855.5746,94.9357,855.0906,95.1495,855.093,95.5646,855.0098,95.3638,854.6601,95.5197,854.3783,95.8394,854.0072,95.9435,853.7657,96.3603,853.3252,96.2969,853.3252,96.1222,843.4783,95.9538,833.6314,96.5251,823.7845,95.63,813.9377,95.7777,804.0908,96.9458,794.2439,96.7325,784.397,97.0314,774.5501,95.9751,764.7032,96.6161,754.8564,96.8873,745.0095,95.8245,735.1626,96.201,725.3157,96.4229,715.4688,96.9486,705.6219,96.2927,695.7751,96.7594,685.9282,95.7431,676.0813,95.6196,666.2344,96.8005,656.3875,95.5799,646.5406,96.8058,636.6938,96.5035,626.8469,96.029,617,96.2969,616.9549,96.1879,616.705,96.2917,616.2547,95.9118,616.0148,96.0398,615.5153,95.5409,615.2322,95.5646,615.4224,95.6434,615.2349,95.2729,615.0148,94.8888,614.8074,94.51,614.8702,94.2431,614.5,93.7969,614.7045,93.7969,614.5564,85.5375,614.5894,77.2781,614.4566,69.0188,614.7388,60.7594,614.5,52.5,614.5477,52.5198,614.6996,52.1685,614.6055,51.7153,614.8145,51.3876,615.2492,51.1535,615.2322,50.7322,615.2871,50.8646,615.5803,50.5726,615.8982,50.3401,616.265,50.2255,616.5589,49.9351,617,50" style="stroke:#181818;stroke-width:0.5;"/><polygon fill="#F1F1F1" points="835.8252,55,835.8252,55.0701,838.8252,54.8619,841.8252,55.0644,844.8252,55.1332,847.8252,54.7622,850.8252,55,850.7993,55,850.683,57,850.6974,59,850.8025,61,850.5947,63,850.8252,65,850.8252,65.1845,847.8252,64.7899,844.8252,64.9341,841.8252,65.144,838.8252,64.9714,835.8252,65,835.8479,65,835.8145,63,835.8847,61,835.9049,59,836.0204,57,835.8252,55" style="stroke:#181818;stroke-width:0.5;"/><polygon fill="#F1F1F1" points="833.8252,57,833.8252,57.0701,834.6252,56.8619,835.4252,57.0644,836.2252,57.1332,837.0252,56.7622,837.8252,57,837.7993,57,837.683,57.4,837.6974,57.8,837.8025,58.2,837.5947,58.6,837.8252,59,837.8252,59.1845,837.0252,58.7899,836.2252,58.9341,835.4252,59.144,834.6252,58.9714,833.8252,59,833.8479,59,833.8145,58.6,833.8847,58.2,833.9049,57.8,834.0204,57.4,833.8252,57" style="stroke:#181818;stroke-width:0.5;"/><polygon fill="#F1F1F1" points="833.8252,61,833.8252,61.0701,834.6252,60.8619,835.4252,61.0644,836.2252,61.1332,837.0252,60.7622,837.8252,61,837.7993,61,837.683,61.4,837.6974,61.8,837.8025,62.2,837.5947,62.6,837.8252,63,837.8252,63.1845,837.0252,62.7899,836.2252,62.9341,835.4252,63.144,834.6252,62.9714,833.8252,63,833.8479,63,833.8145,62.6,833.8847,62.2,833.9049,61.8,834.0204,61.4,833.8252,61" style="stroke:#181818;stroke-width:0.5;"/><text fill="#000000" font-family="sans-serif" font-size="14" lengthAdjust="spacing" textLength="201.3252" x="629.5" y="82.9951">Confidential Data Hub (CDH)</text></g><g class="entity" data-qualified-name="VM_TEE.GMN9" data-source-line="21" id="ent0010"><path d="M916,235.5 L916.1868,235.5 L915.6317,240.5266 L916.1718,245.5531 L916.3553,250.5797 L915.3659,255.6063 L916,260.6328 L916,260.4256 L925.9877,259.4955 L935.9755,259.6101 L945.9632,260.4511 L955.9509,258.7892 L965.9387,262.1092 L975.9264,258.9521 L985.9141,260.1054 L995.9019,261.7847 L1005.8896,260.4041 L1015.8773,260.8148 L1025.8651,260.5476 L1035.8528,261.1089 L1045.8405,261.2705 L1055.8283,262.1947 L1065.816,262.4223 L1075.8038,262.4442 L1085.7915,261.3118 L1095.7792,261.869 L1105.767,262.5054 L1115.7547,258.7097 L1125.7424,262.4422 L1135.7302,259.8421 L1145.7179,262.0563 L1155.7056,259.3128 L1165.6934,260.6328 L1165.6325,260.6328 L1166.3526,257.6063 L1165.65,254.5797 L1165.787,251.5531 L1165.9944,248.5266 L1165.6934,245.5 L1165.955,245.7616 L1163.6909,243.4975 L1161.8739,241.6805 L1159.3336,239.1402 L1157.8721,237.6787 L1155.6934,235.5 L1155.6934,236.9619 L1145.7061,236.6854 L1135.7189,237.1347 L1125.7317,234.2118 L1115.7445,233.7608 L1105.7572,233.8429 L1095.77,235.343 L1085.7828,234.9759 L1075.7956,237.3171 L1065.8083,235.0342 L1055.8211,234.5852 L1045.8339,236.1087 L1035.8467,233.7218 L1025.8595,234.1157 L1015.8722,237.2305 L1005.885,236.6618 L995.8978,237.4586 L985.9106,234.6419 L975.9233,236.3512 L965.9361,237.0745 L955.9489,234.2403 L945.9617,235.2444 L935.9744,235.836 L925.9872,237.238 L916,235.5" fill="#FEFFDD" style="stroke:#181818;stroke-width:0.5;"/><path d="M1155.6934,235.5 L1155.8802,235.5 L1155.3251,237.5 L1155.8652,239.5 L1156.0486,241.5 L1155.0592,243.5 L1155.6934,245.5 L1155.6934,245.4309 L1157.6934,245.1209 L1159.6934,245.1591 L1161.6934,245.4394 L1163.6934,244.8854 L1165.6934,245.5 L1166.0413,245.848 L1163.2972,243.1038 L1161.5691,241.3757 L1159.9649,239.7715 L1157.6394,237.4461 L1155.6934,235.5" fill="#FEFFDD" style="stroke:#181818;stroke-width:1;"/><text fill="#000000" font-family="sans-serif" font-size="13" lengthAdjust="spacing" textLength="228.6934" x="922" y="252.5669">CDH uses token provided via CCAA</text></g><!--entity deployment--><g class="entity" data-qualified-name="VM_TEE.kata_containers_agent.deployment" data-source-line="14" id="ent0006"><polygon fill="#F1F1F1" points="746.5,225,746.5,225.2102,756.395,224.5857,766.29,225.1933,776.1851,225.3997,786.0801,224.2866,795.9751,224.9223,805.8701,224.5735,815.7651,224.6165,825.6602,224.9318,835.5552,224.3086,845.4502,225.5536,855.3452,224.3697,865.2402,225,865.215,224.9391,865.6489,225.2795,865.9364,225.2665,866.3096,225.4604,866.6504,225.5759,867.008,225.7322,867.063,225.755,867.2281,226.1163,867.4813,226.5141,867.654,226.8785,867.803,227.2331,867.7402,227.5,867.8251,227.5,867.8948,235.7594,867.9743,244.0188,867.4998,252.2781,867.9664,260.5375,867.7402,268.7969,867.6489,268.7591,867.7582,269.2185,867.2949,269.4408,867.2798,269.8488,867.3828,270.3057,867.008,270.5646,867.0018,270.5496,866.6679,270.7435,866.3441,270.9618,866.0004,271.1322,865.5933,271.1492,865.2402,271.2969,865.2402,271.5841,855.3452,270.7245,845.4502,271.5813,835.5552,271.8451,825.6602,271.7414,815.7651,271.9099,805.8701,270.8138,795.9751,270.6447,786.0801,270.6755,776.1851,271.238,766.29,271.1003,756.395,271.9783,746.5,271.2969,746.4777,271.2431,746.1027,271.0448,745.822,271.0743,745.3543,270.6522,745.0196,270.5512,744.7322,270.5646,744.9321,270.6474,744.72,270.2667,744.6655,269.9512,744.1938,269.4629,744.2447,269.1911,744,268.7969,744.1968,268.7969,743.8425,260.5375,743.968,252.2781,744.042,244.0188,744.2173,235.7594,744,227.5,743.9987,227.4995,744.2889,227.2055,744.1223,226.7223,744.2308,226.3529,744.7409,226.15,744.7322,225.7322,744.6408,225.5114,745.1507,225.7425,745.4657,225.503,745.7587,225.2104,746.1013,225.0375,746.5,225" style="stroke:#181818;stroke-width:0.5;"/><polygon fill="#F1F1F1" points="847.7402,230,847.7402,230.0701,850.7402,229.8619,853.7402,230.0644,856.7402,230.1332,859.7402,229.7622,862.7402,230,862.7143,230,862.5981,232,862.6124,234,862.7175,236,862.5098,238,862.7402,240,862.7402,240.1845,859.7402,239.7899,856.7402,239.9341,853.7402,240.144,850.7402,239.9714,847.7402,240,847.763,240,847.7296,238,847.7997,236,847.8199,234,847.9355,232,847.7402,230" style="stroke:#181818;stroke-width:0.5;"/><polygon fill="#F1F1F1" points="845.7402,232,845.7402,232.0701,846.5402,231.8619,847.3402,232.0644,848.1402,232.1332,848.9402,231.7622,849.7402,232,849.7143,232,849.5981,232.4,849.6124,232.8,849.7175,233.2,849.5098,233.6,849.7402,234,849.7402,234.1845,848.9402,233.7899,848.1402,233.9341,847.3402,234.144,846.5402,233.9714,845.7402,234,845.763,234,845.7296,233.6,845.7997,233.2,845.8199,232.8,845.9355,232.4,845.7402,232" style="stroke:#181818;stroke-width:0.5;"/><polygon fill="#F1F1F1" points="845.7402,236,845.7402,236.0701,846.5402,235.8619,847.3402,236.0644,848.1402,236.1332,848.9402,235.7622,849.7402,236,849.7143,236,849.5981,236.4,849.6124,236.8,849.7175,237.2,849.5098,237.6,849.7402,238,849.7402,238.1845,848.9402,237.7899,848.1402,237.9341,847.3402,238.144,846.5402,237.9714,845.7402,238,845.763,238,845.7296,237.6,845.7997,237.2,845.8199,236.8,845.9355,236.4,845.7402,236" style="stroke:#181818;stroke-width:0.5;"/><text fill="#000000" font-family="sans-serif" font-size="14" lengthAdjust="spacing" textLength="83.7402" x="759" y="257.9951">deployment</text></g><!--entity trustee--><g class="entity" data-qualified-name="trustee" data-source-line="25" id="ent0012"><polygon fill="#F1F1F1" points="1327,225,1327,225.2102,1336.7989,224.5857,1346.5979,225.1933,1356.3968,225.3997,1366.1957,224.2866,1375.9947,224.9223,1385.7936,224.5735,1395.5926,224.6165,1405.3915,224.9318,1415.1904,225,1415.1022,224.7871,1415.6146,225.3169,1415.8171,225.0988,1416.2259,225.3784,1416.6597,225.7188,1416.9582,225.7322,1416.9318,225.7213,1417.1257,226.0945,1417.2413,226.4353,1417.4525,226.8157,1417.6176,227.177,1417.6904,227.5,1417.8857,227.5,1417.9141,235.7594,1417.9168,244.0188,1417.7753,252.2781,1417.845,260.5375,1417.6904,268.7969,1417.9067,268.8865,1417.3219,269.0584,1417.6065,269.5905,1417.1598,269.8197,1417.269,270.2792,1416.9582,270.5646,1416.8951,270.4122,1416.5959,270.69,1416.3457,271.0859,1415.8913,270.989,1415.5574,271.1829,1415.1904,271.2969,1415.1904,271.6355,1405.3915,271.7131,1395.5926,271.293,1385.7936,271.5841,1375.9947,270.7245,1366.1957,271.5813,1356.3968,271.8451,1346.5979,271.7414,1336.7989,271.9099,1327,271.2969,1326.9384,271.1481,1326.5633,270.9496,1326.2136,270.8126,1325.9318,270.8394,1325.5607,270.6506,1325.2322,270.5646,1325.4421,270.6516,1325.032,270.1888,1324.8337,269.8138,1324.8632,269.5331,1324.4411,269.0654,1324.5,268.7969,1324.327,268.7969,1324.7163,260.5375,1324.6452,252.2781,1324.7448,244.0188,1324.3927,235.7594,1324.5,227.5,1324.5983,227.5407,1324.8283,227.2218,1324.6474,226.7326,1324.9098,226.4271,1325.1246,226.1019,1325.2322,225.7322,1325.3154,225.9329,1325.5853,225.5845,1325.9983,225.5818,1326.2223,225.1223,1326.5601,224.9379,1327,225" style="stroke:#181818;stroke-width:0.5;"/><path d="M1355.5635,225 L1355.7503,225 L1355.1952,226 L1355.7353,227 L1355.9187,228 L1354.9293,229 L1355.5635,230 L1355.5146,229.9512 L1353.8954,231.1319 L1352.5224,232.559 L1351.3206,234.1572 L1349.5289,235.1654 L1348.5635,237 L1348.5635,237.4921 L1343.7508,236.4398 L1338.9381,236.8242 L1334.1254,237.384 L1329.3127,236.9238 L1324.5,237" fill="none" style="stroke:#181818;stroke-width:0.5;"/><text fill="#000000" font-family="sans-serif" font-size="14" lengthAdjust="spacing" textLength="53.1904" x="1339.5" y="257.9951">Trustee</text></g><!--entity admin--><g class="entity" data-qualified-name="admin" data-source-line="3" id="ent0002"><polygon fill="#F1F1F1" points="35.9773,45.4459,34.8046,47.0482,33.4176,49.3951,31.4339,50.9767,29.3494,51.8415,27.6873,51.9166,25.5511,50.8349,23.5354,50.1283,22.0055,48.6936,21.203,47.0511,20.727,45.7433,20.2608,44.0351,19.504,42.5651,20.0856,41.1298,20.5951,39.5576,22.5071,38.3142,23.8524,36.7008,25.5174,36.165,27.4968,35.7037,30.0352,35.9778,31.4255,36.6335,33.042,36.9307,35.0074,38.9443,35.6926,41.0701,35.9903,42.5206,35.6531,44.9108" style="stroke:#181818;stroke-width:0.5;"/><path d="M27.9331,51.5 L28.1199,51.5 L27.5648,56.9 L28.1049,62.3 L28.2884,67.7 L27.299,73.1 L27.9331,78.5 M14.9331,59.5 L14.9331,59.4309 L20.1331,59.1209 L25.3331,59.1591 L30.5331,59.4394 L35.7331,58.8854 L40.9331,59.5 M27.9331,78.5 L28.305,78.8223 L24.9097,81.1331 L22.6003,84.3849 L20.4233,87.7515 L17.4755,90.4501 L14.9331,93.5 M27.9331,78.5 L27.9789,78.5397 L30.5116,81.4814 L33.253,84.6039 L35.8937,87.6392 L38.7265,90.841 L40.9331,93.5" fill="none" style="stroke:#181818;stroke-width:0.5;"/><text fill="#000000" font-family="sans-serif" font-size="14" lengthAdjust="spacing" textLength="43.8662" x="6" y="107.9951">admin</text></g><!--entity K8S_Worker--><g class="entity" data-qualified-name="K8S_Worker" data-source-line="5" id="ent0003"><polygon fill="#F1F1F1" points="166,47.5,166.0495,47.5495,167.9023,45.4023,170.0456,43.5456,172.0942,41.5942,173.8319,39.3319,176,37.5,176,37.4223,185.9703,37.0735,195.9405,37.1165,205.9108,37.4318,215.881,36.8086,225.8513,38.0536,235.8216,36.8697,245.7918,37.3022,255.7621,37.9319,265.7323,37.4142,275.7026,37.5682,285.6729,37.5,285.6409,37.5,285.8514,47.599,285.912,57.6979,286.2585,67.7969,286.3439,77.8958,286.3521,87.9948,285.6729,98.0938,285.7329,98.1538,283.7821,100.203,281.8384,102.2593,279.5029,103.9238,277.8328,106.2537,275.6729,108.0938,275.6729,107.7972,265.7026,108.6276,255.7323,107.5987,245.7621,108.0253,235.7918,108.8354,225.8216,108.045,215.8513,108.1991,205.881,108.4324,195.9108,108.51,185.9405,108.0898,175.9703,108.381,166,108.0938,165.4276,108.0938,166.2844,97.9948,166.5482,87.8958,166.4445,77.7969,166.613,67.6979,165.5169,57.599,166,47.5" style="stroke:#181818;stroke-width:0.5;"/><path d="M275.6729,47.5 L275.7389,47.5661 L277.5426,45.3698 L279.7336,43.5607 L281.7985,41.6256 L283.4487,39.2758 L285.6729,37.5" fill="#F1F1F1" style="stroke:#181818;stroke-width:0.5;"/><path d="M166,47.5 L166,47.7802 L175.9703,46.9476 L185.9405,47.7577 L195.9108,48.0329 L205.881,46.5488 L215.8513,47.3964 L225.8216,46.9313 L235.7918,46.9887 L245.7621,47.4091 L255.7323,46.5782 L265.7026,48.2382 L275.6729,47.5" fill="#F1F1F1" style="stroke:#181818;stroke-width:0.5;"/><path d="M275.6729,47.5 L275.9531,47.5 L275.1204,57.599 L275.9306,67.6979 L276.2058,77.7969 L274.7217,87.8958 L275.5692,97.9948 L275.6729,108.0938" fill="#F1F1F1" style="stroke:#181818;stroke-width:0.5;"/><text fill="#000000" font-family="sans-serif" font-size="14" lengthAdjust="spacing" textLength="79.6729" x="181" y="70.4951">K8S worker</text><path d="M166,73.7969 L166,74.0771 L175.9703,73.2444 L185.9405,74.0546 L195.9108,74.3298 L205.881,72.8457 L215.8513,73.6933 L225.8216,73.2282 L235.7918,73.2855 L245.7621,73.706 L255.7323,72.875 L265.7026,74.5351 L275.6729,73.7969" fill="none" style="stroke:#181818;stroke-width:1;"/><path d="M275.6729,73.7969 L275.7389,73.8629 L277.5426,71.6667 L279.7336,69.8576 L281.7985,67.9225 L283.4487,65.5727 L285.6729,63.7969" fill="none" style="stroke:#181818;stroke-width:1;"/><text fill="#000000" font-family="sans-serif" font-size="14" lengthAdjust="spacing" textLength="43.9961" x="181" y="90.792">Libvirt</text></g><!--link coco_CDH to GMN9--><g class="link" data-entity-1="ent0008" data-entity-2="ent0010" data-link-type="association" data-source-line="21" id="lnk11"><path d="M817.27,96.09 L817.3412,96.361 L826.5846,98.0407 L836.2455,101.3093 L845.7705,104.0604 L854.8482,105.11 L864.5187,108.4148 L874,111 L873.9621,110.8143 L877.6772,111.5894 L881.4164,112.4831 L885.0723,112.9681 L888.8941,114.2667 L892.5562,114.782 L892.5263,114.5035 L895.8323,115.0461 L899.1476,115.676 L902.4086,115.7987 L905.7013,116.2183 L908.9836,116.5397 L908.9829,116.5255 L911.955,116.7671 L914.9238,116.9422 L917.8989,117.2443 L920.8682,117.4303 L923.8208,117.2807 L923.8368,117.5821 L926.5839,117.54 L929.3459,117.7791 L932.1086,118.0314 L934.8322,117.5461 L937.6063,118.0125 L937.6452,118.3115 L940.2436,118.2279 L942.9458,118.9399 L945.5411,118.8325 L948.22,119.3665 L950.8784,119.7428 L950.9676,120.0601 L953.532,120.4692 L956.21,121.2823 L958.8975,122.1294 L961.5663,122.9099 L964.1758,123.4791 L964.175,123.4775 L967.0039,124.9438 L969.6088,125.9503 L972.5477,127.6426 L975.3713,129.098 L978.0368,130.2289 L978.1522,130.3893 L981.1886,132.6043 L983.8967,134.3631 L986.8454,136.4563 L989.846,138.6216 L993,141 L992.9815,140.9814 L995.0185,143.0063 L997.3738,145.3512 L999.1856,147.1496 L1001.213,149.1648 L1003.4006,151.3412 L1003.482,151.4017 L1004.9321,153.5421 L1006.754,155.9592 L1008.9398,158.6469 L1010.633,160.9682 L1012.2469,163.2305 L1012.5298,163.3933 L1013.6044,165.7336 L1015.3327,168.4502 L1016.9186,171.0849 L1017.9906,173.4238 L1019.6541,176.103 L1019.6153,176.0853 L1020.9217,178.7844 L1022.3508,181.5399 L1023.3024,184.0767 L1024.7077,186.8212 L1025.7375,189.3937 L1025.5067,189.3082 L1026.4303,191.9179 L1027.8974,194.7292 L1028.3637,197.1694 L1029.8496,199.9876 L1030.6125,202.5378 L1030.7004,202.5645 L1031.255,204.9896 L1031.9748,207.465 L1033.0767,210.0565 L1033.5107,212.445 L1034.3944,214.9702 L1034.6495,215.0343 L1034.7169,217.1414 L1035.7821,219.4993 L1036.2856,221.7161 L1036.7432,223.9213 L1037.1984,226.1259 L1037.219,226.1302 L1037.9029,228.0546 L1038.242,229.9072 L1038.437,231.7297 L1038.8684,233.6015 L1039.14,235.44" fill="none" style="stroke:#181818;stroke-width:1;stroke-dasharray:7,7;"/></g><!--link admin to K8S_Worker--><g class="link" data-entity-1="ent0002" data-entity-2="ent0003" data-link-type="dependency" data-source-line="28" id="lnk13"><path d="M50.33,73 L50.33,73.2802 L60.2818,72.4476 L70.2336,73.2577 L80.1855,73.5329 L90.1373,72.0488 L100.0891,72.8964 L110.0409,72.4313 L119.9927,72.4887 L129.9445,72.9091 L139.8964,72.0782 L149.8482,73.7382 L159.8,73" fill="none" style="stroke:#181818;stroke-width:1;"/><polygon fill="#181818" points="165.8,73,165.8285,73.064,163.9439,72.0738,162.2262,71.4589,160.4541,70.7217,158.5034,69.5827,156.8,69,156.7817,68.9817,157.4995,69.6995,158.3096,70.5096,159.1839,71.3839,159.837,72.037,160.8,73,160.9305,73.1305,159.8514,73.6514,159.1534,74.5534,158.5018,75.5018,157.5798,76.1798,156.8,77,156.8092,77.0208,158.5957,76.1903,160.4242,75.4544,162.2324,74.6728,164.0793,73.9784,165.8,73" style="stroke:#181818;stroke-width:1;"/><text fill="#000000" font-family="sans-serif" font-size="13" lengthAdjust="spacing" textLength="79.5171" x="68.5" y="66.0669">Deployment</text></g><!--link K8S_Worker to VM_TEE--><g class="link" data-entity-1="ent0003" data-entity-2="ent0004" data-link-type="dependency" data-source-line="29" id="lnk14"><path d="M286.28,73 L286.28,73.2802 L296.1942,72.4476 L306.1083,73.2577 L316.0225,73.5329 L325.9367,72.0488 L335.8508,72.8964 L345.765,72.4313 L355.6792,72.4887 L365.5933,72.9091 L375.5075,72.0782 L385.4217,73.7382 L395.3358,72.1596 L405.25,72.7363 L415.1642,73.5759 L425.0783,72.8856 L434.9925,73.091 L444.9067,72.9574 L454.8208,73.238 L464.735,73 L464.735,73.3188 L474.3613,73.7809 L483.9875,73.8947 L493.6138,73.9057 L503.24,73.3395 L512.8663,73.6181 L522.4925,73.9363 L532.1188,72.0384 L541.745,73 L541.745,73.3016 L546.7246,72.8682 L551.7043,73.2372 L556.6839,72.78 L561.6635,72.9696 L566.6431,73 L566.6431,73.3296 L566.3025,72.9783 L565.9618,73.0468 L565.6212,73.1505 L565.2806,73.185 L564.9399,73" fill="none" style="stroke:#181818;stroke-width:1;"/><polygon fill="#181818" points="570.9399,73,570.9684,73.064,569.0838,72.0738,567.3661,71.4589,565.594,70.7217,563.6433,69.5827,561.9399,69,561.9216,68.9817,562.6394,69.6995,563.4495,70.5096,564.3239,71.3839,564.977,72.037,565.9399,73,566.0704,73.1305,564.9914,73.6514,564.2933,74.5534,563.6417,75.5018,562.7197,76.1798,561.9399,77,561.9492,77.0208,563.7356,76.1903,565.5641,75.4544,567.3723,74.6728,569.2192,73.9784,570.9399,73" style="stroke:#181818;stroke-width:1;"/><text fill="#000000" font-family="sans-serif" font-size="13" lengthAdjust="spacing" textLength="256.4263" x="304.32" y="66.0669">Libvirt boots (config via kernel params)</text></g><!--link K8S_Worker to kata_containers_agent--><g class="link" data-entity-1="ent0003" data-entity-2="ent0005" data-link-type="dependency" data-source-line="30" id="lnk15"><path d="M286.35,99.34 L286.4585,99.5984 L295.1782,102.6276 L304.5339,107.1715 L313.6826,111.2221 L322.1501,113.6507 L331.5203,118.2291 L340.3823,121.5973 L349.4466,125.447 L358.6515,129.6316 L367.3718,132.6624 L377.0566,137.9899 L385.4876,140.3314 L394.7529,144.66 L404.1201,149.2311 L412.8949,152.3915 L422.0165,156.3778 L431.0068,160.0516 L440.1576,164.1072 L449.2309,167.9787 L458.4519,172.2016 L467.5381,176.1035 L476.5844,179.9105 L485.4073,183.1854 L494.5572,187.2392 L503.36,190.4663 L503.7225,191.3295 L512.3961,193.5301 L522.5269,199.2013 L531.432,201.9531 L541.2689,206.9243 L550.1462,209.61 L559.7747,214.0848 L569.6012,219.0311 L578.6016,222.01 L588.0895,226.1498 L597.4434,229.9708 L597.5017,230.1095 L603.3179,232.5777 L609.0485,234.8418 L614.9015,237.3975 L620.5565,239.4815 L626.4579,242.1524 L626.5068,242.269 L627.0482,242.5853 L627.5263,242.7511 L628.0513,243.0283 L628.3587,242.7874 L628.9378,243.1935 L628.8256,242.9263 L627.8397,242.5228 L626.9453,242.3372 L625.9304,241.8647 L625.0902,241.8084 L623.9818,241.1131" fill="none" style="stroke:#181818;stroke-width:1;"/><polygon fill="#181818" points="629.5141,243.4355,629.5651,243.4835,628.0635,241.9065,626.861,240.6109,625.561,239.2237,623.9408,237.535,622.7639,236.2636,622.74,236.2538,623.0603,237.2572,623.5016,238.3099,624.0269,239.3969,624.2626,240.3656,624.9039,241.5001,624.9737,241.671,623.7771,241.7336,622.7843,242.2951,621.8164,242.9174,620.7039,243.1856,619.6674,243.64,619.6679,243.6628,621.6365,243.5885,623.6073,243.6177,625.5771,243.597,627.5488,243.6716,629.5141,243.4355" style="stroke:#181818;stroke-width:1;"/><text fill="#000000" font-family="sans-serif" font-size="13" lengthAdjust="spacing" textLength="127.2388" x="420" y="154.0669">k8s communication</text></g><!--link kata_containers_agent to deployment--><g class="link" data-entity-1="ent0005" data-entity-2="ent0006" data-link-type="dependency" data-source-line="31" id="lnk16"><path d="M638.48,248 L638.48,248.2802 L648.415,247.4476 L658.35,248.2577 L668.285,248.5329 L678.22,247.0488 L688.155,247.8964 L698.09,247.4313 L708.025,247.4887 L717.96,247.9091 L727.895,247.0782 L737.83,248" fill="none" style="stroke:#181818;stroke-width:1;"/><polygon fill="#181818" points="743.83,248,743.8585,248.064,741.9739,247.0738,740.2562,246.4589,738.4841,245.7217,736.5334,244.5827,734.83,244,734.8117,243.9817,735.5295,244.6995,736.3396,245.5096,737.2139,246.3839,737.867,247.037,738.83,248,738.9605,248.1305,737.8814,248.6514,737.1834,249.5534,736.5318,250.5018,735.6098,251.1798,734.83,252,734.8392,252.0208,736.6257,251.1903,738.4542,250.4544,740.2624,249.6728,742.1093,248.9784,743.83,248" style="stroke:#181818;stroke-width:1;"/><text fill="#000000" font-family="sans-serif" font-size="13" lengthAdjust="spacing" textLength="69.9004" x="656.68" y="241.0669">sandboxes</text></g><!--link coco_CDH to deployment--><g class="link" data-entity-1="ent0008" data-entity-2="ent0006" data-link-type="dependency" data-source-line="32" id="lnk17"><path d="M744.14,96.26 L744.3993,96.3664 L747.5122,105.5125 L752.1449,115.2823 L756.2828,124.849 L758.7931,133.7478 L763.4605,143.5318 L766.9135,152.8175 L770.8498,162.3015 L775.122,171.9234 L778.2366,181.0702 L783.6555,191.1626 L786.0784,200.0256 L790.4952,209.7067 L794.6224,219.2691" fill="none" style="stroke:#181818;stroke-width:1;"/><polygon fill="#181818" points="796.9,224.82,796.97,224.822,796.8188,222.8471,797.0781,220.884,797.2037,218.917,796.8897,216.9373,797.1842,214.9752,797.1603,214.9653,796.6166,215.9642,796.1934,217.0135,795.8539,218.0979,795.2258,219.0615,795.002,220.1942,795.0732,220.3645,793.8772,219.564,792.889,219.2605,791.9261,219.0178,790.8158,218.4221,789.783,218.012,789.7987,218.0285,791.199,219.3659,792.6709,220.7782,794.1083,222.1544,795.6116,223.5995,796.9,224.82" style="stroke:#181818;stroke-width:1;"/><text fill="#000000" font-family="sans-serif" font-size="13" lengthAdjust="spacing" textLength="215.3379" x="769" y="154.0669">transparently provides resources</text></g><!--link coco_att_agent to trustee--><g class="link" data-entity-1="ent0007" data-entity-2="ent0012" data-link-type="dependency" data-source-line="34" id="lnk18"><path d="M1166.8474,97.9214 L1166.8779,98.0097 L1169.2506,98.5981 L1171.8021,99.7041 L1174.2953,100.6415 L1176.5971,101.0246 L1179.164,102.1751 L1179.1521,102.1427 L1181.5522,102.8959 L1184.0122,103.8126 L1186.5138,104.843 L1188.872,105.4817 L1191.4311,106.669 L1191.5207,106.8981 L1193.7727,107.3632 L1196.2862,108.4973 L1198.8317,109.7131 L1201.1915,110.4539 L1203.6489,111.4445 L1203.6606,111.4725 L1206.0771,112.4511 L1208.547,113.5571 L1210.9911,114.6017 L1213.4843,115.7635 L1215.8175,116.5432 L1215.94,116.8151 L1218.3654,117.9111 L1220.7117,118.8317 L1223.1737,120.009 L1225.6412,121.1984 L1227.9368,122.0066 L1227.7966,121.7183 L1230.4827,123.4517 L1232.7072,124.2359 L1235.2826,125.7417 L1237.4967,126.5044 L1240.0069,127.8761 L1239.9928,127.8492 L1242.5645,129.4314 L1244.8053,130.3839 L1247.2413,131.708 L1249.6938,133.0632 L1252.028,134.1935 L1252.1194,134.3543 L1254.4215,135.5533 L1256.8799,137.027 L1259.0855,138.0562 L1261.6681,139.7486 L1264,141 L1264.1449,141.1959 L1267.1892,143.4308 L1270.3055,145.763 L1273.0876,147.6434 L1276.1146,149.855 L1279.3588,152.36 L1279.1635,152.1647 L1282.0685,155.0695 L1284.7535,157.7542 L1287.7576,160.7582 L1290.2169,163.2171 L1293,166 L1292.894,165.8904 L1296.0221,168.9258 L1298.6973,171.4925 L1301.6946,174.3925 L1305.007,177.6186 L1307.7582,180.264 L1307.8954,180.4007 L1310.7601,183.2773 L1313.198,185.7291 L1316.1705,188.7131 L1319.0265,191.5811 L1321.6112,194.1789 L1321.46,194.0332 L1324.1696,196.8348 L1326.8297,199.5888 L1329.587,202.4364 L1331.9662,204.9196 L1334.5566,207.6063 L1334.7064,207.7471 L1336.7845,209.998 L1339.1516,212.5208 L1341.9411,215.4406 L1343.953,217.6293 L1346.5923,220.4079" fill="none" style="stroke:#181818;stroke-width:1;"/><polygon fill="#181818" points="1161.16,96.01,1161.2074,96.0616,1162.518,97.24,1164.1063,98.7209,1165.6042,100.1034,1166.8047,101.1617,1168.4169,102.6686,1168.3937,102.6571,1167.7861,101.5922,1167.2955,100.5854,1166.8861,99.619,1166.1966,98.5134,1165.8995,97.6028,1165.9816,97.7681,1166.8192,96.9112,1167.8965,96.5368,1169.0031,96.2213,1169.9395,95.5633,1170.9654,95.0854,1170.9675,95.1081,1169.0033,95.2597,1167.0488,95.5145,1165.0896,95.7195,1163.1394,96.0195,1161.16,96.01" style="stroke:#181818;stroke-width:1;"/><polygon fill="#181818" points="1350.68,224.8,1350.7463,224.8228,1349.9087,222.8924,1349.4596,221.0956,1348.8839,219.2553,1347.8924,217.272,1347.4766,215.4867,1347.4507,215.4857,1347.2939,216.6122,1347.2676,217.7434,1347.3321,218.8778,1347.0839,220.001,1347.2736,221.1399,1347.2802,221.3243,1346.1354,220.8893,1345.01,220.9928,1343.8868,221.162,1342.75,220.9489,1341.6204,220.9369,1341.6293,220.9578,1343.4281,221.6997,1345.2676,222.5369,1347.0874,223.3281,1348.9447,224.207,1350.68,224.8" style="stroke:#181818;stroke-width:1;"/><text fill="#000000" font-family="sans-serif" font-size="13" lengthAdjust="spacing" textLength="161.3447" x="1285" y="154.0669">verification / token grant</text></g><!--link coco_CDH to trustee--><g class="link" data-entity-1="ent0008" data-entity-2="ent0012" data-link-type="dependency" data-source-line="35" id="lnk19"><path d="M818.4097,97.5873 L818.4333,97.6777 L821.2182,98.1522 L824.1411,99.1567 L827.0191,99.9886 L829.7494,100.253 L832.6841,101.303 L832.6758,101.2695 L835.3351,101.7892 L838.0363,102.4779 L840.7668,103.284 L843.3966,103.6853 L846.1674,104.6536 L846.2236,104.8932 L848.8037,105.0151 L851.5481,105.8363 L854.3124,106.7429 L856.9602,107.153 L859.6693,107.8243 L859.6759,107.8539 L862.5324,108.4455 L865.4188,109.172 L868.2907,109.8335 L871.1902,110.619 L874,111 L874.0626,111.2916 L882.5828,113.1229 L891.0626,114.7661 L899.6015,116.6846 L908.1432,118.6161 L916.5971,120.1386 L916.5317,119.8248 L923.8798,121.9393 L931.0124,123.0205 L938.3089,124.8872 L945.4366,125.945 L952.7027,127.6658 L952.6968,127.6359 L959.1283,129.2402 L965.4225,130.1466 L971.7978,131.4648 L978.1798,132.8176 L984.5128,133.921 L984.5454,134.1031 L990.4547,134.9838 L996.4197,136.1757 L1002.2945,136.8642 L1008.3038,138.3036 L1014.2238,139.2438 L1014.2631,139.4842 L1017.2066,139.9223 L1020.1696,140.4797 L1023.0418,140.4826 L1025.9806,140.8919 L1028.9784,141.6615 L1028.9364,141.3886 L1031.9851,142.0981 L1034.9864,142.5 L1038.0564,143.3481 L1041.0093,143.4344 L1044.0317,143.9735 L1044.0107,143.8225 L1050.466,144.9693 L1056.8313,145.4705 L1063.2606,146.4308 L1069.7526,147.8402 L1076.133,148.4498 L1076.1569,148.642 L1083.4915,149.6862 L1090.7515,150.1329 L1098.1049,151.328 L1105.438,152.3601 L1112.7237,153.0122 L1112.6996,152.8036 L1121.374,153.9674 L1130.0406,155.0629 L1138.7226,156.2926 L1147.3445,157.0006 L1156,158 L1156.0122,158.2052 L1158.676,157.9137 L1161.3633,158.0183 L1164.085,158.7016 L1166.7435,158.3195 L1169.4529,158.797 L1169.4541,159.0232 L1172.8224,158.9077 L1176.1902,158.7157 L1179.559,158.6964 L1182.9301,159.0764 L1186.298,158.8914 L1186.2964,158.7584 L1190.1143,159.1089 L1193.9214,158.5546 L1197.7407,159.0291 L1201.5532,158.9244 L1205.3638,158.6636 L1205.3647,158.7724 L1209.3869,158.6506 L1213.4125,158.9186 L1217.4351,158.8344 L1221.4564,158.6029 L1225.4788,158.4937 L1225.4804,158.6129 L1229.4765,158.4896 L1233.4801,158.9195 L1237.4753,158.7236 L1241.4739,158.7852 L1245.4714,158.7622 L1245.4557,158.4923 L1249.2007,158.7998 L1252.9646,159.4325 L1256.7017,159.6051 L1260.4293,159.6128 L1264.1702,159.8492 L1264.1502,159.7074 L1267.4033,160.21 L1270.621,160.4616 L1273.9359,161.4032 L1277.2027,162.0034 L1280.4035,162.1351 L1280.4722,162.3587 L1283.0134,163.2033 L1285.4243,163.6229 L1287.9728,164.4911 L1290.4302,165.0623 L1293,166 L1293.0582,166.112 L1295.0239,167.1226 L1297.0598,168.2685 L1298.8728,168.9854 L1300.8656,170.0482 L1302.8664,171.1265 L1302.9728,171.2925 L1304.83,172.5107 L1306.3984,173.2786 L1308.3024,174.5698 L1310.2122,175.8701 L1312.0039,176.9862 L1311.839,176.7705 L1313.7872,178.4017 L1315.4493,179.6589 L1317.0403,180.823 L1318.7938,182.1996 L1320.4433,183.4402 L1320.6585,183.6822 L1321.9054,184.7182 L1323.6453,186.3087 L1325.1911,187.6808 L1326.6954,189.0063 L1328.2157,190.3498 L1328.2602,190.3938 L1329.6788,191.8305 L1330.8728,193.0455 L1332.3707,194.5605 L1333.7787,195.9868 L1335.3519,197.5763 L1335.3732,197.595 L1336.6875,199.0831 L1338.0183,200.5857 L1339.1736,201.9335 L1340.5543,203.4801 L1341.8831,204.9809 L1341.8407,204.9483 L1344.3605,208.0949 L1346.5817,211.0119 L1348.5345,213.7226 L1350.954,216.7921 L1353.2538,219.7696" fill="none" style="stroke:#181818;stroke-width:1;"/><polygon fill="#181818" points="812.61,96.05,812.6539,96.1046,814.0584,97.1769,815.7203,98.5692,817.2983,99.8573,818.6008,100.8026,820.2847,102.2224,820.2623,102.2094,819.5935,101.1727,819.0375,100.2016,818.5601,99.2762,817.8122,98.1936,817.4431,97.3311,817.5358,97.4906,818.3158,96.5811,819.3665,96.1374,820.4502,95.7506,821.3418,95.033,822.3344,94.4894,822.338,94.5119,820.3879,94.791,818.4541,95.1724,816.5124,95.5045,814.5858,95.9306,812.61,96.05" style="stroke:#181818;stroke-width:1;"/><polygon fill="#181818" points="1356.73,224.66,1356.7987,224.6739,1356.2038,222.702,1356.0116,220.8115,1355.6882,218.8946,1354.9337,216.8904,1354.776,215.0069,1354.7505,215.0026,1354.4473,216.0988,1354.2728,217.2167,1354.1879,218.3498,1353.7945,219.4307,1353.8332,220.5846,1353.8639,220.7666,1352.6826,220.1889,1351.5911,220.1425,1350.5106,220.1609,1349.3662,219.8022,1348.2555,219.6418,1348.2671,219.6614,1349.9449,220.6363,1351.6756,221.7003,1353.3808,222.7213,1355.1346,223.8244,1356.73,224.66" style="stroke:#181818;stroke-width:1;"/><text fill="#000000" font-family="sans-serif" font-size="13" lengthAdjust="spacing" textLength="98.1919" x="1157" y="154.0669">pulls resources</text></g><?plantuml-src RLB1QiCm3BthAxIUraFPTOGnA6cXiEsqiHrA2OxZTYQ95MobModzzwbEscQbFXXBrdjFVl8TDMp9uRTonO-tpCOX-zP0AArhb5SrvagN6q-jArAgoCkrSa6kZ6DGcYMZYjewL057yJG2S5GOV7bypxx8byRZ4YJ0dnZ0H1QysdnhFSCAO2qg1Z_Vie_v7FS0AAlBbOfLficniixuaAcDY4e9zcjPcAQYNItPLOSxn3rkIqsQCiNSmLQnmPJSsXOIMbLXUcR6gRmyi8fUJAFAVPfEf-FHW2gTBMwGpAH7NBIv06QBlZvkZjXWJinK9oXts0OJaAaKYnjFMs4eS6iL7eNW02SZnFx0naIbZ-uymlsHLMewgoVFGtCJd9rjW45UgdfJ4-pjbdw80zxhumisKLqgdQampZgCh_2t1v1W-HXGKrstpkfe6jok58hBY0GNv9lbz6i2d1p5oNNDu7zLkvDJ0Rq9r7ejKFW_M7mwKfnSIt1hl5ttRU53R_X6IFaYUWLfsgeQAlm1?></g></svg>