<?plantuml 1.2026.1?><svg xmlns="http://www.w3.org/2000/svg" xmlns:xlink="http://www.w3.org/1999/xlink" contentStyleType="text/css" data-diagram-type="DESCRIPTION" height="605px" preserveAspectRatio="none" style="width:319px;height:605px;" version="1.1" viewBox="0 0 319 605" width="319px" zoomAndPan="magnify"><title>Trusted compute base</title><defs/><g><g class="title" data-source-line="9"><text fill="#000000" font-family="sans-serif" font-size="14" font-weight="bold" lengthAdjust="spacing" textLength="176.6885" x="64.5737" y="22.9951">Trusted compute base</text></g><!--entity confidential--><g class="entity" data-qualified-name="confidential" data-source-line="12" id="ent0002"><polygon fill="#4CAF50" points="102,44.2969,102,44.5071,111.7431,43.8826,121.4862,44.4902,131.2292,44.6966,140.9723,43.5835,150.7154,44.2192,160.4585,43.8704,170.2016,43.9134,179.9447,44.2287,189.6877,43.6055,199.4308,44.8505,209.1739,43.6666,218.917,44.2969,218.8918,44.236,219.3256,44.5763,219.6132,44.5634,219.9864,44.7572,220.3271,44.8728,220.6848,45.0291,220.7397,45.0519,220.9048,45.4132,221.158,45.8109,221.3308,46.1754,221.4797,46.53,221.417,46.7969,221.5019,46.7969,221.5715,53.0563,221.6511,59.3156,221.1766,65.575,221.6432,71.8344,221.417,78.0938,221.3257,78.0559,221.4349,78.5154,220.9717,78.7377,220.9566,79.1457,221.0596,79.6026,220.6848,79.8615,220.6785,79.8465,220.3446,80.0404,220.0208,80.2587,219.6772,80.429,219.27,80.4461,218.917,80.5938,218.917,80.881,209.1739,80.0213,199.4308,80.8781,189.6877,81.1419,179.9447,81.0383,170.2016,81.2068,160.4585,80.1107,150.7154,79.9416,140.9723,79.9723,131.2292,80.5349,121.4862,80.3972,111.7431,81.2752,102,80.5938,101.9777,80.54,101.6027,80.3417,101.322,80.3712,100.8543,79.9491,100.5196,79.8481,100.2322,79.8615,100.4321,79.9443,100.22,79.5635,100.1655,79.2481,99.6938,78.7598,99.7447,78.488,99.5,78.0938,99.6968,78.0938,99.3425,71.8344,99.468,65.575,99.542,59.3156,99.7173,53.0563,99.5,46.7969,99.4987,46.7963,99.7889,46.5023,99.6223,46.0191,99.7308,45.6498,100.2409,45.4469,100.2322,45.0291,100.1408,44.8083,100.6507,45.0394,100.9657,44.7998,101.2587,44.5073,101.6013,44.3344,102,44.2969" style="stroke:#333333;stroke-width:0.5;"/><text fill="#FFFFFF" font-family="sans-serif" font-size="14" lengthAdjust="spacing" textLength="101.917" x="109.5" y="67.292">Confidentiality</text></g><!--entity application--><g class="entity" data-qualified-name="application" data-source-line="15" id="ent0003"><polygon fill="#2196F3" points="111.5,157.2969,111.5,157.5071,121.2674,156.8826,131.0348,157.4902,140.8021,157.6966,150.5695,156.5835,160.3369,157.2192,170.1043,156.8704,179.8717,156.9134,189.6391,157.2287,199.4064,156.6055,209.1738,157.2969,209.2445,157.4674,209.447,157.2492,209.8557,157.5289,210.2896,157.8692,210.5771,157.8562,210.9416,158.0291,210.9626,158.0378,211.0782,158.3786,211.2895,158.759,211.4546,159.1203,211.7078,159.518,211.6738,159.7969,212.3449,159.7969,212.3531,169.3156,211.9285,178.8344,212.1374,188.3531,212.3761,197.8719,211.6738,207.3906,211.4517,207.2986,211.7363,207.8307,211.2896,208.0599,211.3989,208.5194,210.9356,208.7417,210.9416,209.1584,210.9329,209.1373,210.6826,209.5332,210.2283,209.4363,209.8944,209.6302,209.5706,209.8485,209.1738,209.8906,209.1738,210.3069,199.4064,209.8867,189.6391,210.1778,179.8717,209.3182,170.1043,210.175,160.3369,210.4388,150.5695,210.3352,140.8021,210.5036,131.0348,209.4075,121.2674,209.2384,111.5,209.8906,111.4207,209.6993,111.1389,209.726,110.7678,209.5372,110.5263,209.6611,110.0635,209.251,109.7322,209.1584,109.6266,209.1146,109.6561,208.834,109.234,208.3662,109.133,208.0315,109.3463,207.827,109,207.3906,109.4357,207.3906,109.7345,197.8719,108.6782,188.3531,109.3192,178.8344,109.5904,169.3156,109,159.7969,108.8545,159.7366,109.1169,159.4311,109.3317,159.1058,109.6401,158.8194,109.5845,158.3821,109.7322,158.0291,109.7912,158.1716,110.0151,157.7121,110.3529,157.5276,110.8571,157.7449,111.055,157.2225,111.5,157.2969" style="stroke:#333333;stroke-width:0.5;"/><text fill="#FFFFFF" font-family="sans-serif" font-size="14" lengthAdjust="spacing" textLength="78.2236" x="119" y="180.292">Application</text><text fill="#FFFFFF" font-family="sans-serif" font-size="14" lengthAdjust="spacing" textLength="8.2578" x="119" y="196.5889">&#8226;</text></g><!--entity configuration--><g class="entity" data-qualified-name="configuration" data-source-line="18" id="ent0004"><polygon fill="#2196F3" points="91,287.2969,91,287.5071,100.9039,286.8826,110.8079,287.4902,120.7118,287.6966,130.6158,286.5835,140.5197,287.2192,150.4237,286.8704,160.3276,286.9134,170.2316,287.2287,180.1355,286.6055,190.0395,287.8505,199.9434,286.6666,209.8474,287.0991,219.7513,287.7288,229.6553,287.2969,229.6443,287.2705,230.0175,287.4643,230.3583,287.5799,230.7387,287.7912,231.1,287.9563,231.423,288.0291,231.6034,288.1038,231.7761,288.4683,231.9251,288.8229,231.9408,289.1222,232.1516,289.5025,232.1553,289.7969,232.8575,289.7969,231.4341,299.3156,232.8338,308.8344,231.8588,318.3531,232.6891,327.8719,232.1553,337.3906,232.0028,337.3275,231.9877,337.7354,232.0908,338.1923,231.7009,338.4451,231.6019,338.8183,231.423,339.1584,231.4662,339.2627,231.1226,339.433,230.7154,339.4501,230.399,339.6862,229.9358,339.5679,229.6553,339.8906,229.6553,340.175,219.7513,340.4388,209.8474,340.3352,199.9434,340.5036,190.0395,339.4075,180.1355,339.2384,170.2316,339.2692,160.3276,339.8317,150.4237,339.6941,140.5197,340.572,130.6158,339.7159,120.7118,339.5476,110.8079,340.1189,100.9039,339.2238,91,339.8906,90.9338,339.7308,90.7292,339.944,90.3485,339.7319,90.033,339.6775,89.5447,339.2057,89.2322,339.1584,89.3305,339.1991,89.2676,338.8802,88.7939,338.391,88.7634,338.0855,88.6852,337.7602,88.5,337.3906,89.1518,337.3906,88.4958,327.8719,88.9626,318.3531,87.9462,308.8344,87.8227,299.3156,88.5,289.7969,88.6551,289.8611,88.4257,289.3519,88.9496,289.1547,89.003,288.7626,89.0033,288.3485,89.2322,288.0291,89.1871,287.9202,89.6443,288.0239,89.9012,287.644,90.3684,287.772,90.5759,287.2731,91,287.2969" style="stroke:#333333;stroke-width:0.5;"/><text fill="#FFFFFF" font-family="sans-serif" font-size="14" lengthAdjust="spacing" textLength="119.2051" x="98.5" y="310.292">Secrets Handling</text><text fill="#FFFFFF" font-family="sans-serif" font-size="14" lengthAdjust="spacing" textLength="8.2578" x="98.5" y="326.5889">&#8226;</text></g><!--entity rats--><g class="entity" data-qualified-name="rats" data-source-line="21" id="ent0005"><polygon fill="#9C27B0" points="85,417.2969,85,417.5071,95.0964,416.8826,105.1927,417.4902,115.2891,417.6966,125.3854,416.5835,135.4818,417.2192,145.5781,416.8704,155.6745,416.9134,165.7708,417.2287,175.8672,416.6055,185.9635,417.8505,196.0599,416.6666,206.1563,417.0991,216.2526,417.7288,226.349,417.2111,236.4453,417.2969,236.454,417.3179,236.7948,417.4335,237.1752,417.6447,237.5365,417.8099,237.9342,418.063,238.2131,418.0291,238.4197,418.1147,238.5687,418.4693,238.5844,418.7687,238.7952,419.1489,239.0151,419.5329,238.9453,419.7969,238.2241,419.7969,239.6238,429.3156,238.6488,438.8344,239.4791,448.3531,238.4503,457.8719,238.9453,467.3906,238.9242,467.3819,239.0273,467.8388,238.6374,468.0915,238.5384,468.4647,238.4638,468.848,238.2131,469.1584,238.2662,469.2866,237.859,469.3036,237.5426,469.5397,237.0794,469.4215,236.8351,469.8318,236.4453,469.8906,236.4453,470.4388,226.349,470.3352,216.2526,470.5036,206.1563,469.4075,196.0599,469.2384,185.9635,469.2692,175.8672,469.8317,165.7708,469.6941,155.6745,470.572,145.5781,469.7159,135.4818,469.5476,125.3854,470.1189,115.2891,469.2238,105.1927,469.3715,95.0964,470.5396,85,469.8906,85.0556,470.0248,84.7401,469.9704,84.2518,469.4986,83.9801,469.5496,83.6611,469.4867,83.2322,469.1584,83.0868,469.0981,83.0563,468.7926,82.9781,468.4674,82.9936,468.1809,82.6452,467.7436,82.5,467.3906,82.9626,467.3906,81.9462,457.8719,81.8227,448.3531,83.0036,438.8344,81.7831,429.3156,82.5,419.7969,82.6567,419.8618,82.7101,419.4697,82.7104,419.0556,82.8304,418.6911,83.2271,418.4412,83.2322,418.0291,83.194,417.9369,83.6613,418.0649,83.8688,417.566,84.3717,417.7799,84.7082,417.5925,85,417.2969" style="stroke:#333333;stroke-width:0.5;"/><text fill="#FFFFFF" font-family="sans-serif" font-size="14" lengthAdjust="spacing" textLength="136.4453" x="92.5" y="440.292">Remote Attestation</text><text fill="#FFFFFF" font-family="sans-serif" font-size="14" lengthAdjust="spacing" textLength="8.2578" x="92.5" y="456.5889">&#8226;</text></g><!--entity hardware--><g class="entity" data-qualified-name="hardware" data-source-line="24" id="ent0006"><polygon fill="#FF9800" points="9.5,547.2969,9.5,547.5071,19.5612,546.8826,29.6224,547.4902,39.6836,547.6966,49.7448,546.5835,59.806,547.2192,69.8672,546.8704,79.9284,546.9134,89.9896,547.2287,100.0508,546.6055,110.112,547.8505,120.1732,546.6666,130.2344,547.0991,140.2956,547.7288,150.3568,547.2111,160.418,547.3651,170.4792,547.2649,180.5404,547.4754,190.6016,547.536,200.6628,547.8826,210.724,547.9679,220.7852,547.9761,230.8464,547.5515,240.9076,547.7605,250.9688,547.9991,261.0299,546.5757,271.0911,547.9754,281.1523,547.0004,291.2135,547.8307,301.2747,546.8019,311.3359,547.2969,311.3272,547.2758,311.7841,547.6717,312.0368,547.5748,312.41,547.7686,312.7933,547.9869,313.1037,548.0291,313.2319,548.0822,313.2489,548.3822,313.485,548.7729,313.3668,549.0167,313.7771,549.4796,313.8359,549.7969,314.3841,549.7969,314.2805,559.3156,314.449,568.8344,313.3529,578.3531,313.1838,587.8719,313.8359,597.3906,313.6446,597.3114,313.6714,597.7367,313.4825,598.0727,313.6064,598.5382,313.1964,598.7826,313.1037,599.1584,313.0599,599.0527,312.7793,599.3751,312.3115,599.2459,311.9768,599.4379,311.7723,599.944,311.3359,599.8906,311.3359,600.3263,301.2747,600.6251,291.2135,599.5688,281.1523,600.2098,271.0911,600.481,261.0299,599.4182,250.9688,599.7948,240.9076,600.0166,230.8464,600.5424,220.7852,599.8864,210.724,600.3532,200.6628,599.3368,190.6016,599.2134,180.5404,600.3942,170.4792,599.1737,160.418,600.3996,150.3568,600.0973,140.2956,599.6227,130.2344,599.5369,120.1732,600.3494,110.112,599.5913,100.0508,600.4825,89.9896,599.3379,79.9284,600.5081,69.8672,600.3749,59.806,600.1356,49.7448,599.9378,39.6836,600.6172,29.6224,600.5042,19.5612,600.0599,9.5,599.8906,9.5342,599.9732,9.1298,599.7041,8.8843,599.8184,8.4591,599.499,8.1078,599.358,7.7322,599.1584,7.5449,599.0808,7.461,598.7531,7.6028,598.519,7.4252,598.1526,7.1332,597.7387,7,597.3906,6.6778,597.3906,6.7811,587.8719,6.3138,578.3531,7.4147,568.8344,7.7396,559.3156,7,549.7969,7.1621,549.864,7.3605,549.532,7.2508,549.0723,7.4662,548.7473,7.4664,548.3332,7.7322,548.0291,7.7685,548.1166,8.1173,547.9587,8.5098,547.9063,8.7636,547.519,9.1293,547.4019,9.5,547.2969" style="stroke:#333333;stroke-width:0.5;"/><text fill="#FFFFFF" font-family="sans-serif" font-size="14" lengthAdjust="spacing" textLength="286.8359" x="17" y="570.292">Hardware Root of Trust &amp; Measurements</text><text fill="#FFFFFF" font-family="sans-serif" font-size="14" lengthAdjust="spacing" textLength="8.2578" x="17" y="586.5889">&#8226;</text></g><!--link confidential to application--><g class="link" data-entity-1="ent0002" data-entity-2="ent0003" data-link-type="dependency" data-source-line="28" id="lnk7"><path d="M160.5,80.4169 L160.7802,80.4169 L159.9476,90.4869 L160.7577,100.5569 L161.0329,110.6269 L159.5488,120.6969 L160.3964,130.7669 L159.9313,140.8369 L160.5,150.9069" fill="none" style="stroke:#181818;stroke-width:1;"/><polygon fill="#181818" points="160.5,156.9069,160.564,156.9353,161.1738,155.0508,162.1589,153.333,163.0217,151.561,163.4827,149.6103,164.5,147.9069,164.4817,147.8886,163.5995,148.6063,162.8096,149.4165,162.0839,150.2908,161.137,150.9439,160.5,151.9069,160.6305,152.0374,159.5514,150.9583,158.8534,150.2603,158.2018,149.6087,157.2798,148.6867,156.5,147.9069,156.5208,147.9161,157.2903,149.7025,158.1544,151.531,158.9728,153.3392,159.8784,155.1862,160.5,156.9069" style="stroke:#181818;stroke-width:1;"/><text fill="#000000" font-family="sans-serif" font-size="13" lengthAdjust="spacing" textLength="59.0649" x="161.5" y="123.3638">builds on</text></g><!--link application to configuration--><g class="link" data-entity-1="ent0003" data-entity-2="ent0004" data-link-type="dependency" data-source-line="29" id="lnk8"><path d="M160.5,210.3969 L160.7802,210.3969 L159.9476,220.5183 L160.7577,230.6397 L161.0329,240.7612 L159.5488,250.8826 L160.3964,261.004 L159.9313,271.1254 L160.5,281.2469" fill="none" style="stroke:#181818;stroke-width:1;"/><polygon fill="#181818" points="160.5,287.2469,160.564,287.2753,161.1738,285.3908,162.1589,283.673,163.0217,281.901,163.4827,279.9503,164.5,278.2469,164.4817,278.2286,163.5995,278.9463,162.8096,279.7565,162.0839,280.6308,161.137,281.2839,160.5,282.2469,160.6305,282.3774,159.5514,281.2983,158.8534,280.6003,158.2018,279.9487,157.2798,279.0267,156.5,278.2469,156.5208,278.2561,157.2903,280.0425,158.1544,281.871,158.9728,283.6792,159.8784,285.5262,160.5,287.2469" style="stroke:#181818;stroke-width:1;"/><text fill="#000000" font-family="sans-serif" font-size="13" lengthAdjust="spacing" textLength="59.0649" x="161.5" y="253.3638">builds on</text></g><!--link configuration to rats--><g class="link" data-entity-1="ent0004" data-entity-2="ent0005" data-link-type="dependency" data-source-line="30" id="lnk9"><path d="M160.5,340.3969 L160.7802,340.3969 L159.9476,350.5183 L160.7577,360.6397 L161.0329,370.7612 L159.5488,380.8826 L160.3964,391.004 L159.9313,401.1254 L160.5,411.2469" fill="none" style="stroke:#181818;stroke-width:1;"/><polygon fill="#181818" points="160.5,417.2469,160.564,417.2753,161.1738,415.3908,162.1589,413.673,163.0217,411.901,163.4827,409.9503,164.5,408.2469,164.4817,408.2286,163.5995,408.9463,162.8096,409.7565,162.0839,410.6308,161.137,411.2839,160.5,412.2469,160.6305,412.3774,159.5514,411.2983,158.8534,410.6003,158.2018,409.9487,157.2798,409.0267,156.5,408.2469,156.5208,408.2561,157.2903,410.0425,158.1544,411.871,158.9728,413.6792,159.8784,415.5262,160.5,417.2469" style="stroke:#181818;stroke-width:1;"/><text fill="#000000" font-family="sans-serif" font-size="13" lengthAdjust="spacing" textLength="59.0649" x="161.5" y="383.3638">builds on</text></g><!--link rats to hardware--><g class="link" data-entity-1="ent0005" data-entity-2="ent0006" data-link-type="dependency" data-source-line="31" id="lnk10"><path d="M160.5,470.3969 L160.7802,470.3969 L159.9476,480.5183 L160.7577,490.6397 L161.0329,500.7612 L159.5488,510.8826 L160.3964,521.004 L159.9313,531.1254 L160.5,541.2469" fill="none" style="stroke:#181818;stroke-width:1;"/><polygon fill="#181818" points="160.5,547.2469,160.564,547.2753,161.1738,545.3908,162.1589,543.673,163.0217,541.901,163.4827,539.9503,164.5,538.2469,164.4817,538.2286,163.5995,538.9463,162.8096,539.7565,162.0839,540.6308,161.137,541.2839,160.5,542.2469,160.6305,542.3774,159.5514,541.2983,158.8534,540.6003,158.2018,539.9487,157.2798,539.0267,156.5,538.2469,156.5208,538.2561,157.2903,540.0425,158.1544,541.871,158.9728,543.6792,159.8784,545.5262,160.5,547.2469" style="stroke:#181818;stroke-width:1;"/><text fill="#000000" font-family="sans-serif" font-size="13" lengthAdjust="spacing" textLength="59.0649" x="161.5" y="513.3638">builds on</text></g><?plantuml-src PP7BJiCm44Nt_eeXaNWiAlN5eooGqaXLDmYfxPADcqnJguuTsHCgG4Xy2v_6b-2uXTh2otll7C_ZJ3Saj88jL-NU229KGAP5PdT2DTpm6jQys5L6jwhCjTJ6sLnPPw6Y86Mm8AugYV3E0ARQb6WE-NJadrDdMj5Hc_btr9RY3M4mPX-CaI27M9dM4fPGwBff2LqB5XcxW9LkGE8BIhXKt1YzHqjNxFHrackr4QNhJ70fw3K1RXtaf44wphFPTHywMjOqKXIycpza138yg-_FB_0O7iZfS32vcOqynNzPjUOVPuc5GR8mTwkLGbKXh0YB8jmYMor3oW9hxJQGkSjOyl40u-ejf9DyU3izZBJGciBgEJVbtftA6w0tXyt2EJmYjwt1sgt51i3jRzuTQ7BNxw2E-jGTqqt0ebNsUW_HKkuXMRT2bXQqIbZeTCbuuZWRUrtQ3nQ7lDHvVpt6Fli1?></g></svg>